<svg id="Capa_1" enable-background="new 0 0 512 512" height="512" viewBox="0 0 512 512" width="512" xmlns="http://www.w3.org/2000/svg"><g id="XMLID_1666_"><g id="XMLID_907_"><path id="XMLID_908_" d="m448.34 141.06c-2.63 0-5.21 1.07-7.07 2.931-1.86 1.859-2.93 4.43-2.93 7.069 0 2.641 1.07 5.21 2.93 7.07s4.44 2.93 7.07 2.93 5.21-1.069 7.07-2.93c1.86-1.86 2.93-4.44 2.93-7.07s-1.07-5.21-2.93-7.069c-1.86-1.861-4.44-2.931-7.07-2.931z"/><path id="XMLID_961_" d="m413 151.06c0-2.63-1.06-5.21-2.92-7.069-1.87-1.86-4.44-2.931-7.08-2.931-2.63 0-5.2 1.07-7.07 2.931-1.86 1.859-2.92 4.439-2.92 7.069s1.06 5.21 2.92 7.07c1.87 1.86 4.44 2.93 7.07 2.93s5.21-1.069 7.08-2.93c1.86-1.86 2.92-4.441 2.92-7.07z"/><path id="XMLID_964_" d="m430.047 172.448h-11.002c-5.49 0-10.412 3.057-12.846 7.978s-1.876 10.689 1.456 15.052c0 0 .001.001.001.001l5.5 7.2c2.734 3.58 6.885 5.633 11.389 5.633s8.655-2.053 11.389-5.632l5.501-7.201c3.333-4.363 3.891-10.131 1.457-15.053-2.433-4.921-7.355-7.978-12.845-7.978z"/><path id="XMLID_985_" d="m512 91.605c0-19.115-15.551-34.666-34.667-34.666-15.413 0-28.503 10.113-32.998 24.051-6.156-1.496-12.56-2.335-19.146-2.384-7.265-.043-14.389.816-21.25 2.515-4.454-14.006-17.581-24.182-33.043-24.182-14.519 0-26.974 8.976-32.128 21.667h-78.267c-5.523 0-10 4.478-10 10s4.477 10 10 10h76.455c1.838 8.85 7.084 16.601 14.421 21.63-7.748 13-11.89 27.888-11.89 43.428v.942c0 28.321 15.547 54.148 40.574 67.403l27.341 14.48c5.368 2.843 11.256 4.265 17.145 4.265.584 0 1.167-.025 1.751-.053-13.703 45.951-35.504 88.492-64.962 126.674l-11.247 14.576c-2.329 3.018-2.739 7.098-1.057 10.52 1.682 3.421 5.162 5.589 8.975 5.589 13.831 0 25.494 13.133 29.508 27h-43.245c-3.436-18.17-15.822-35.938-32.85-43.367l1.693-2.28c27.806-37.43 43.119-83.724 43.119-130.353 0-5.522-4.477-10-10-10s-10 4.478-10 10c0 42.362-13.912 84.421-39.174 118.427l-10.854 14.61c-2.254 3.033-2.605 7.079-.907 10.455 1.698 3.377 5.155 5.508 8.934 5.508 13.831 0 25.494 13.133 29.508 27h-51.509c-11.58 0-21-9.421-21-21v-79.664c0-29.469 9.247-57.581 26.742-81.296 3.278-4.444 2.334-10.705-2.111-13.983-4.445-3.279-10.704-2.335-13.984 2.11-18.193 24.663-28.603 53.475-30.374 83.833h-104.503c-.225 0-.445.019-.667.034v-27.7c0-5.522-4.477-10-10-10s-10 4.478-10 10v100.666c0 5.523 4.477 10 10 10 13.831 0 25.494 13.133 29.508 27h-52.03c-10.002 0-18.947-6.341-22.259-15.778l-31.188-88.887c-13.512-38.511-20.364-78.732-20.364-119.544 0-61.892 50.353-112.244 112.245-112.244h38.256c5.523 0 10-4.478 10-10s-4.477-10-10-10h-38.256c-72.92-.001-132.245 59.324-132.245 132.244 0 43.073 7.231 85.522 21.492 126.166l31.188 88.887c6.12 17.441 22.648 29.157 41.131 29.157h133.619c5.523 0 10-4.477 10-10 0-3.815-.444-7.694-1.28-11.542 6.94 12.817 20.509 21.542 36.08 21.542h126.775c5.523 0 10-4.477 10-10 0-21.195-13.534-44.367-33.547-53.25l1.711-2.218c33.94-43.99 58.216-93.484 72.205-147.172l19.656-10.411c25.027-13.255 40.575-39.082 40.575-67.403 0-16.301-4.547-31.579-12.416-44.607 9.027-6.347 14.811-16.844 14.811-28.395zm-345.639 343.455c-3.903-20.64-19.343-40.759-40.028-45.798v-44.236c.221.015.442.034.667.034h49.43v53c0 5.523 4.477 10 10 10 13.831 0 25.494 13.133 29.508 27zm30.069-45.797v-44.203h34.8v69c0 2.177.174 4.313.503 6.399-6.907-14.844-19.594-27.37-35.303-31.196zm280.903-312.324c8.087 0 14.667 6.579 14.667 14.666 0 5.23-2.798 9.949-7.078 12.551-6.344-6.478-13.703-11.93-21.796-16.126 1.602-6.361 7.355-11.091 14.207-11.091zm-121.103 14.666c0-8.087 6.58-14.666 14.666-14.666 6.927 0 12.734 4.832 14.261 11.299-7.462 3.905-14.38 8.946-20.533 15.055-.342.34-.663.696-.999 1.041-4.456-2.559-7.395-7.372-7.395-12.729zm103.44 122.731-27.339 14.48c-4.875 2.579-10.696 2.581-15.569 0l-27.34-14.48c-18.464-9.779-29.935-28.835-29.935-49.73v-.942c0-17.47 6.829-33.869 19.228-46.176 12.28-12.189 28.537-18.884 45.829-18.884.165 0 .332 0 .497.002 35.601.264 64.565 29.871 64.565 66-.001 20.895-11.471 39.951-29.936 49.73z"/><path id="XMLID_991_" d="m215.5 98.609c2.63 0 5.21-1.069 7.07-2.93 1.86-1.86 2.93-4.44 2.93-7.07 0-2.64-1.07-5.21-2.93-7.08-1.86-1.859-4.44-2.92-7.07-2.92s-5.21 1.061-7.07 2.92c-1.86 1.87-2.93 4.44-2.93 7.08 0 2.631 1.07 5.21 2.93 7.07 1.86 1.861 4.44 2.93 7.07 2.93z"/></g></g></svg>