<svg width="292" height="313" viewBox="0 0 292 313" fill="none" xmlns="http://www.w3.org/2000/svg">
<path d="M201.463 97.7867C201.463 97.7867 184.02 93.8927 189.242 74.6733C189.242 74.6733 189.258 74.6826 189.297 74.7038C191.725 76.0109 194.709 76.7869 198.169 76.3558C209.663 74.9239 216.942 87.682 216.07 86.2842L201.463 97.7867Z" fill="black"/>
<path d="M229.024 86.2842C228.152 87.682 235.431 74.9239 246.925 76.3558C250.384 76.7869 253.368 76.0109 255.797 74.7038C255.835 74.6826 255.852 74.6733 255.852 74.6733C261.073 93.8922 243.631 97.7867 243.631 97.7867L229.024 86.2842Z" fill="black"/>
<path d="M266.323 112.486C255.29 106.567 244.952 99.4011 235.506 91.1233C231.905 87.9666 227.305 86.23 222.546 86.23C215.282 86.23 208.599 90.2611 205.128 96.7374C201.369 103.751 194.131 108.117 186.264 108.117H62.461C39.3947 108.117 20.7026 127.108 20.7295 150.516L20.7478 164.98C20.7661 179.694 28.221 193.369 40.4942 201.204L46.1087 220.626V258.009C46.1087 260.239 47.8906 262.047 50.0882 262.047H68.5491H68.5511H89.5977C92.7505 262.047 94.7641 258.635 93.2759 255.814L89.5357 248.727V211.029H143.84C144.924 214.652 146.915 217.968 149.672 220.625V258.008C149.672 260.239 151.454 262.047 153.652 262.047H168.867H191.308C194.46 262.047 196.474 258.634 194.985 255.814L191.245 248.726V209.63C208.794 205.074 221.769 188.921 221.769 169.692V149.786C221.769 143.263 226.98 137.975 233.408 137.975H261.692C266.676 137.975 270.716 133.875 270.716 128.818V119.884C270.716 116.782 269.025 113.935 266.323 112.486V112.486Z" fill="white"/>
<path d="M194.984 255.815L191.244 248.727V209.009H180.463C178.062 213.224 174.685 216.874 170.525 219.594V251.305L173.251 255.471C175.029 258.189 173.233 261.778 170.111 262.023V262.047H191.307C194.46 262.047 196.473 258.635 194.984 255.815V255.815Z" fill="#E2E9EE"/>
<path d="M93.2751 255.815L89.535 248.727V219.594V211.029L78.0559 210.968C75.6663 214.543 72.4094 217.535 68.4863 219.594V248.727L72.2265 255.815C73.7147 258.635 71.7011 262.047 68.5483 262.047H89.597C92.7497 262.047 94.7633 258.635 93.2751 255.815V255.815Z" fill="#E2E9EE"/>
<path d="M25.4467 158.75C23.9987 158.75 22.5785 158.872 21.1955 159.105L20.7412 159.322L20.7483 164.98C20.7666 179.693 28.2215 193.369 40.4947 201.203L41.6308 205.134C41.7345 205.036 41.8005 204.973 41.8005 204.973C47.5146 200.188 51.1567 192.946 51.1567 184.841C51.1567 170.431 39.6462 158.75 25.4467 158.75V158.75Z" fill="black"/>
<path d="M62.4601 108.117C58.4258 108.117 54.5297 108.71 50.8398 109.794V131.077C50.8398 135.634 54.4794 139.327 58.9695 139.327C62.7996 139.327 66.2379 141.711 67.6316 145.331C70.068 151.661 76.0798 155.827 82.7766 155.827H110.288C114.778 155.827 118.417 152.134 118.417 147.577C118.417 143.021 122.057 139.327 126.547 139.327C132.16 139.327 136.709 134.711 136.709 129.015V108.117H62.4601V108.117Z" fill="black"/>
<path d="M204.599 132.627H184.145C179.726 132.627 176.144 136.262 176.144 140.747C176.144 145.231 172.561 148.866 168.142 148.866H167.765C162.701 148.866 158.596 153.032 158.596 158.171C158.596 163.31 162.701 167.476 167.765 167.476H204.599C214.082 167.476 221.77 159.675 221.77 150.051C221.769 140.428 214.082 132.627 204.599 132.627Z" fill="black"/>
<path d="M268.697 107.927C263.461 105.118 258.378 102.008 253.476 98.6255C255.457 97.1292 257.432 95.1425 258.991 92.5169C262.169 87.1694 262.76 80.705 260.749 73.3027C260.33 71.7604 259.29 70.4683 257.83 69.8645C256.371 69.2602 254.777 69.3427 253.415 70.1486C251.592 71.1293 249.616 71.4975 247.543 71.2376C241.668 70.5064 235.812 72.457 230.613 76.8821C229.159 78.1191 227.554 79.781 226.283 81.3655C225.052 81.1757 223.804 81.0731 222.546 81.0731C221.283 81.0731 220.034 81.1732 218.807 81.3619C217.537 79.7784 215.933 78.1181 214.48 76.8821C209.281 72.4565 203.426 70.5049 197.55 71.2376C195.487 71.4969 193.517 71.1324 191.701 70.161L191.674 70.1465C190.312 69.3927 188.685 69.3133 187.258 69.9264C185.829 70.541 184.756 71.7847 184.344 73.3032C182.333 80.7045 182.924 87.1694 186.102 92.5169C188.481 96.5213 191.824 99.0473 194.686 100.598C192.186 102.117 189.288 102.961 186.264 102.961H116.64C113.834 102.961 111.559 105.27 111.559 108.118C111.559 110.965 113.834 113.274 116.64 113.274H131.629V129.015C131.629 131.859 129.35 134.172 126.548 134.172C119.263 134.172 113.337 140.185 113.337 147.578C113.337 149.284 111.97 150.672 110.289 150.672H82.7774C78.1395 150.672 74.0523 147.839 72.3654 143.456C70.1943 137.816 64.9364 134.172 58.9703 134.172C57.289 134.172 55.9217 132.784 55.9217 131.078V113.871C58.0593 113.483 60.2436 113.274 62.461 113.274H70.9107C73.7164 113.274 75.9917 110.965 75.9917 108.118C75.9917 105.27 73.7164 102.961 70.9107 102.961H62.461C49.9464 102.961 38.1843 107.91 29.3403 116.895C20.4963 125.88 15.6342 137.822 15.6485 150.522L15.6668 233.097C15.6668 235.945 17.942 238.254 20.7478 238.254C23.554 238.254 25.8288 235.945 25.8288 233.097V194.698C28.725 198.407 32.1847 201.707 36.1428 204.468L41.0272 221.365V258.008C41.0272 263.078 45.092 267.202 50.0882 267.202H89.5977C92.881 267.202 95.8489 265.496 97.5358 262.637C99.2227 259.778 99.3045 256.318 97.7548 253.38L94.6167 247.433V216.185H140.376C141.465 218.539 142.878 220.74 144.591 222.702V258.008C144.591 263.078 148.655 267.203 153.652 267.203H191.307C194.591 267.203 197.559 265.496 199.246 262.637C200.933 259.778 201.014 256.318 199.464 253.381L196.326 247.433V213.439C214.088 207.074 226.85 189.868 226.85 169.693V149.787C226.85 146.118 229.792 143.132 233.407 143.132H261.692C269.469 143.132 275.797 136.711 275.797 128.818V119.885C275.797 114.858 273.077 110.276 268.697 107.927ZM246.305 81.4738C248.133 81.7006 249.958 81.6774 251.742 81.4078C251.742 83.5976 251.27 85.5101 250.329 87.1245C248.822 89.7078 246.333 91.2124 244.574 92.0054C242.625 90.4518 240.703 88.8642 238.828 87.2214C238.075 86.562 237.285 85.9566 236.468 85.3977C238.808 83.2192 242.272 80.9721 246.305 81.4738ZM198.788 81.4738C202.822 80.9726 206.284 83.2161 208.622 85.3925C205.914 87.2457 203.559 89.6444 201.722 92.4875C200.145 91.9265 196.706 90.3925 194.804 87.1915C193.837 85.5627 193.352 83.6286 193.352 81.4088C195.135 81.678 196.959 81.7017 198.788 81.4738ZM25.8288 164.973L25.8273 163.917C37.0264 164.124 46.0747 173.427 46.0747 184.841C46.0747 189.033 44.8461 193.05 42.6094 196.45C32.1064 189.466 25.8451 177.755 25.8288 164.973ZM85.0568 251.161L88.08 256.89H77.766C77.6466 255.686 77.2945 254.495 76.7061 253.38L73.5676 247.433V222.549C76.2422 220.777 78.5937 218.625 80.5728 216.185H84.4547V248.726C84.4547 249.576 84.6615 250.412 85.0568 251.161ZM186.766 251.161L189.789 256.89H178.983C178.837 255.391 178.338 253.923 177.485 252.619L175.607 249.749V222.271C177.964 220.45 180.061 218.36 181.872 216.063C183.32 216.04 184.751 215.949 186.164 215.792V248.728C186.164 249.576 186.371 250.412 186.766 251.161ZM216.688 150.072C216.677 156.827 211.258 162.32 204.599 162.32H167.765C165.51 162.32 163.676 160.459 163.676 158.171C163.676 155.884 165.51 154.023 167.765 154.023H168.142C175.356 154.023 181.224 148.067 181.224 140.746C181.224 139.112 182.534 137.783 184.145 137.783H204.599C211.258 137.783 216.677 143.276 216.688 150.032V150.072ZM265.635 128.818C265.635 131.024 263.866 132.819 261.692 132.819H233.407C229.302 132.819 225.54 134.331 222.627 136.831C218.581 131.164 212.007 127.471 204.599 127.471H184.145C176.931 127.471 171.062 133.426 171.062 140.746C171.062 142.381 169.752 143.71 168.142 143.71H167.765C159.907 143.71 153.514 150.197 153.514 158.171C153.514 166.146 159.907 172.633 167.765 172.633H204.599C209.055 172.633 213.204 171.288 216.688 168.989V169.692C216.688 187.282 204.213 201.961 187.772 205.122C189.008 201.417 189.665 197.479 189.665 193.435V188.067C189.665 185.22 187.39 182.911 184.584 182.911C181.778 182.911 179.503 185.22 179.503 188.067V193.435C179.503 202.3 175.118 210.458 167.774 215.259C166.323 216.209 165.445 217.841 165.445 219.594V251.305C165.445 252.319 165.74 253.312 166.293 254.157L168.082 256.89H154.754V220.625C154.754 219.212 154.182 217.86 153.172 216.887C149.871 213.705 147.978 209.23 147.978 204.61V190.043C147.978 187.195 145.703 184.886 142.897 184.886C140.091 184.886 137.816 187.195 137.816 190.043V204.61C137.816 205.032 137.826 205.453 137.846 205.872H86.1274C87.107 202.786 87.6257 199.514 87.6257 196.153V186.691C87.6257 183.843 85.3505 181.534 82.5447 181.534C79.739 181.534 77.4637 183.843 77.4637 186.691V196.153C77.4637 204.124 73.1296 211.351 66.1528 215.013C64.4654 215.899 63.406 217.665 63.406 219.593V248.726C63.406 249.575 63.6128 250.412 64.0081 251.16L67.0318 256.89H51.1892V220.624C51.1892 220.133 51.1201 219.645 50.9839 219.173L47.3932 206.751C53.0458 200.929 56.2372 193.109 56.2372 184.84C56.2372 167.736 42.6231 153.805 25.8146 153.603L25.8105 150.509C25.7988 140.567 29.606 131.217 36.53 124.182C39.2798 121.388 42.395 119.102 45.7596 117.349V131.077C45.7596 138.47 51.6856 144.484 58.9703 144.484C60.7202 144.484 62.2628 145.553 62.9 147.207C66.1208 155.576 73.9232 160.984 82.7774 160.984H110.289C117.573 160.984 123.499 154.97 123.499 147.577C123.499 145.871 124.867 144.484 126.548 144.484C134.953 144.484 141.791 137.544 141.791 129.015V113.273H186.264C196.001 113.273 204.94 107.881 209.591 99.201C212.175 94.3799 217.139 91.3856 222.546 91.3856C226.085 91.3856 229.507 92.6783 232.185 95.0254C241.907 103.545 252.594 110.954 263.948 117.044C264.989 117.602 265.635 118.69 265.635 119.884V128.818Z" fill="black"/>
<path d="M231.084 106.944C229.748 106.944 228.437 107.495 227.492 108.454C226.547 109.413 226.003 110.744 226.003 112.105C226.003 113.461 226.546 114.791 227.492 115.75C228.437 116.71 229.748 117.256 231.084 117.256C232.42 117.256 233.731 116.71 234.676 115.75C235.621 114.786 236.165 113.461 236.165 112.105C236.165 110.744 235.621 109.419 234.676 108.454C233.731 107.496 232.42 106.944 231.084 106.944Z" fill="black"/>
<path d="M93.7744 113.276C95.1107 113.276 96.4216 112.724 97.3667 111.765C98.3112 110.806 98.8554 109.476 98.8554 108.12C98.8554 106.758 98.3117 105.428 97.3667 104.469C96.4216 103.51 95.1102 102.963 93.7744 102.963C92.4381 102.963 91.1272 103.51 90.1821 104.469C89.2375 105.433 88.6934 106.758 88.6934 108.12C88.6934 109.476 89.237 110.806 90.1821 111.765C91.1272 112.724 92.4381 113.276 93.7744 113.276Z" fill="black"/>
</svg>
