<?xml version="1.0" encoding="iso-8859-1"?>
<!-- Generator: Adobe Illustrator 19.0.0, SVG Export Plug-In . SVG Version: 6.00 Build 0)  -->
<svg version="1.1" id="Capa_1" xmlns="http://www.w3.org/2000/svg" xmlns:xlink="http://www.w3.org/1999/xlink" x="0px" y="0px"
	 viewBox="0 0 472.008 472.008" style="enable-background:new 0 0 472.008 472.008;" xml:space="preserve">
<g>
	<g>
		<g>
			<path d="M168,336.004v-16H40c-13.232,0-24-10.768-24-24s10.768-24,24-24h87.096c12.136,0,22.696-8.592,24.568-19.984
				c1.168-7.024-0.792-14.144-5.36-19.52c-4.576-5.4-11.248-8.496-18.304-8.496H24c-4.416,0-8-3.584-8-8v-48
				c0-13.232,10.768-24,24-24s24,10.768,24,24v8h16v-8c0-2.736-0.28-5.416-0.808-8H96v16h16v-16h16v16h16v-16h12.448
				c5.552,9.52,15.76,16,27.552,16c17.648,0,32-14.352,32-32s-14.352-32-32-32s-32,14.352-32,32H71.792
				c-7.312-9.656-18.784-16-31.792-16c-22.056,0-40,17.944-40,40v48c0,13.232,10.768,24,24,24h104c2.352,0,4.568,1.032,6.104,2.832
				c1.544,1.832,2.176,4.16,1.784,6.568c-0.616,3.704-4.472,6.6-8.792,6.6H40c-22.056,0-40,17.944-40,40c0,22.056,17.944,40,40,40
				H168z M184,128.004c8.824,0,16,7.176,16,16c0,8.824-7.176,16-16,16c-8.824,0-16-7.176-16-16
				C168,135.18,175.176,128.004,184,128.004z"/>
			<path d="M413.032,215.9c15.36-0.888,29.728-7.336,41.112-18.728c11.528-11.528,17.872-26.856,17.864-43.168l-0.016-18h-54.736
				c-8.992,0-17.448-3.504-23.808-9.856c-3.128-3.128-6.52-5.896-10.064-8.392c14.288-2.664,28.112-7.672,40.8-14.928
				C443.816,91.62,456,70.612,456,48.004V36.9l-86.896,28.968c-12.224,4.072-24.936,6.136-37.792,6.136
				c-1.824,0-3.312-1.488-3.312-3.312c0-0.872,0.352-1.728,0.968-2.344l42.344-42.344H352c-42.088,0-81.648,16.016-112,44.96V36.692
				l-13.656,13.656c-13.968,13.968-32.528,21.656-52.28,21.656h-10.752c-9.432,0-18.296,3.672-24.968,10.344S128,97.884,128,107.316
				v20.688h16v-20.688c0-5.16,2.008-10.008,5.656-13.656s8.504-5.656,13.656-5.656h10.752c18.048,0,35.28-5.28,49.936-15.112v31.112
				h16V91.316l8.4-8.4c22.72-22.72,51.576-37.056,82.832-41.464l-13.576,13.576c-3.592,3.6-5.656,8.576-5.656,13.664
				c0,10.648,8.664,19.312,19.312,19.312c14.576,0,28.992-2.336,42.84-6.952l64.392-21.464c-3.12,12.232-11.08,22.936-22.296,29.344
				c-17.248,9.864-36.872,15.072-56.744,15.072H344v0.192c-1.336-0.064-2.656-0.192-4-0.192c-19.6,0-38.024,7.456-52.144,20.952
				c-10.16-8.28-23.072-12.952-36.24-12.952c-8.832,0-17.672,2.088-25.584,6.04l-5.608,2.808l7.16,14.312l5.608-2.808
				c15.424-7.696,35.4-4.448,47.568,7.72l3.928,3.928l-3.928,3.928c-12.168,12.168-32.152,15.424-47.568,7.72l-5.608-2.808
				l-7.16,14.312l5.608,2.808c7.912,3.952,16.76,6.04,25.584,6.04c15.064,0,29.808-6.112,40.456-16.76l15.24-15.24l-7.928-7.928
				c11.072-10.352,25.384-16.072,40.616-16.072c15.92,0,30.88,6.192,42.144,17.456c9.376,9.376,21.848,14.544,35.112,14.544h38.752
				v2.016c0.008,12.024-4.672,23.336-13.584,32.248c-8.864,8.864-20.592,13.736-33.048,13.736c-0.008,0-0.016,0-0.024,0h-36.664
				l17.376,17.376c17.616,17.616,40.416,28.168,64.96,30.248c-1.368,5.264-4.12,10.16-7.992,14.032l-1.376,1.376
				c-5.704,5.704-13.592,8.968-21.656,8.968h-32v8c0,29.52,22.96,53.784,51.96,55.856c-8.608,17.168-23.648,30.272-42.048,36.408
				c-7.424,2.48-15.176,3.736-23.032,3.736h-62.192l45.032,45.032c-19.664,7.28-40.248,10.968-61.264,10.968
				c-47.168,0-91.504-18.368-124.856-51.72l-5-5c-1.696-7.616-2.6-15.408-2.6-23.28h-16c0,22.176,5.976,43.952,17.272,63.008
				c-23.232-3.152-44.696-13.744-61.552-30.6L80,356.692v53.52l-9.304-5.312C51.768,394.084,40,373.812,40,352.004H24
				c0,27.536,14.848,53.128,38.76,66.792l33.24,19v-42.48l0.408,0.408c23.4,23.4,54.496,36.28,87.592,36.28h14.136l-13.76-22.92
				c33.256,25.232,73.608,38.92,116.08,38.92c24.6,0,48.664-4.632,71.512-13.776l18.272-7.304l-34.928-34.92h23.568
				c9.568,0,19.024-1.528,28.096-4.56c24.832-8.272,44.656-26.96,54.376-51.272l6.464-16.168H448c-19.32,0-35.48-13.768-39.192-32
				H424c12.272,0,24.288-4.976,32.968-13.656l1.376-1.376c8.68-8.68,13.656-20.696,13.656-32.968v-8h-8
				C445.496,232.004,427.84,226.364,413.032,215.9z"/>
			<path d="M296,176.004h-16v14.064c0,19.752-7.688,38.312-21.656,52.28c-13.968,13.968-32.528,21.656-52.28,21.656H181.64
				c1.52-5.072,2.36-10.44,2.36-16c0-30.872-25.128-56-56-56H32v16h96c22.056,0,40,17.944,40,40c0,22.056-17.944,40-40,40H32v16h96
				c18.976,0,35.752-9.512,45.888-24h18.256l5.2,16H184v33.376c0,16.488,6.688,32.624,18.344,44.28s27.8,18.344,44.28,18.344h44.688
				l-20.688-20.688c-6.424-6.432-10.88-14.296-13.072-22.872l13.336,5.336c10.336,4.128,21.224,6.224,32.344,6.224
				c23.264,0,45.144-9.064,61.592-25.512l22.488-22.488H368c-13.032,0-25.52-3.576-36.336-10.264
				c15.256-3.584,29.256-11.344,40.616-22.704l31.032-31.032H328v16h36.688l-3.72,3.72c-13.08,13.08-30.472,20.28-48.968,20.28
				h-19.312l15.032,15.032c11.848,11.848,26.576,19.784,42.6,23.152c-13,11.52-29.56,17.816-47.088,17.816
				c-9.08,0-17.96-1.712-26.408-5.088L240,324.188v11.816c0,14.648,4.744,28.56,13.504,40h-6.872
				c-12.272,0-24.288-4.976-32.968-13.656S200,341.652,200,329.38v-17.376h10.744c31.32,0,60.768-12.192,82.912-34.344
				C315.8,255.508,328,226.068,328,194.748v-18.744h-16v16h-16.096c0.016-0.648,0.096-1.288,0.096-1.936V176.004z M214.112,295.844
				l-5.192-15.976c5.912-0.184,11.712-0.928,17.36-2.224l10.776,14.816C229.632,294.444,221.96,295.588,214.112,295.844z
				 M252.736,286.82l-10.496-14.44c5.504-2.416,10.744-5.408,15.696-8.92l15.136,11C266.76,279.42,259.936,283.54,252.736,286.82z
				 M285.032,263.38l-14.584-10.6c4.232-4.336,7.96-9.032,11.184-14.008l17.312,5.624C295.112,251.188,290.44,257.54,285.032,263.38
				z M311.04,208.004c-0.976,7.488-2.776,14.768-5.352,21.768l-16.456-5.352c2.184-5.28,3.848-10.776,4.984-16.416H311.04z"/>
		</g>
	</g>
</g>
<g>
</g>
<g>
</g>
<g>
</g>
<g>
</g>
<g>
</g>
<g>
</g>
<g>
</g>
<g>
</g>
<g>
</g>
<g>
</g>
<g>
</g>
<g>
</g>
<g>
</g>
<g>
</g>
<g>
</g>
</svg>
