<?xml version="1.0"?>
<svg xmlns="http://www.w3.org/2000/svg" viewBox="0 0 512 512" width="512" height="512"><g id="Outline"><path d="M492.678,241.51a8,8,0,0,0-7.208-1.1l-40.607,13.535a15.891,15.891,0,0,1-9.883.076l-215.8-68.236A15.939,15.939,0,0,1,208,170.531V80A63.993,63.993,0,0,0,86.2,52.556L52.9,72.528,32.27,77.689A21.476,21.476,0,0,0,37.48,120h88.463l-17.507,75.87A173.36,173.36,0,0,0,104,234.813c0,85.55,62.355,156.8,144,170.715v33.41l-55.008-6.876A8,8,0,0,0,184,440v48a8,8,0,0,0,8,8H320a8,8,0,0,0,8-8V408h9.585a173.24,173.24,0,0,0,142.266-74.425l2.417-3.481c.133-.193.258-.39.375-.594A101.553,101.553,0,0,0,496,279.2V248A8,8,0,0,0,492.678,241.51ZM32,98.52a5.467,5.467,0,0,1,4.151-5.309l21.79-5.45a8.008,8.008,0,0,0,2.174-.9L80.23,74.792C80.091,76.512,80,78.245,80,80v24H37.48A5.486,5.486,0,0,1,32,98.52ZM200,449.062l55.008,6.876A8,8,0,0,0,264,448V408h16v72H200ZM312,480H296V408h16ZM480,279.2a85.523,85.523,0,0,1-11.08,42.062l-2.212,3.187A157.238,157.238,0,0,1,337.585,392h-60.4C190.514,392,120,321.486,120,234.813a157.4,157.4,0,0,1,4.025-35.345l19.77-85.669A8,8,0,0,0,136,104H96V80a48,48,0,0,1,96,0v90.531a31.88,31.88,0,0,0,22.353,30.511l215.8,68.236a31.8,31.8,0,0,0,19.768-.153L480,259.1Z"/><rect x="128" y="64" width="16" height="16"/><path d="M413.358,302.584l-130.7-46.128-5.324,15.088,124.224,43.844a107.019,107.019,0,0,1-32.177,20.522l-94.308-39.3-6.154,14.77,75.421,31.425a107.864,107.864,0,0,1-15.9,1.19H310.12A110.12,110.12,0,0,1,200,233.88V216H184v17.88A126.118,126.118,0,0,0,310.12,360h18.326a123.774,123.774,0,0,0,110.709-68.422l-14.31-7.156A107.739,107.739,0,0,1,413.358,302.584Z"/></g></svg>
