<svg width="292" height="313" viewBox="0 0 292 313" fill="none" xmlns="http://www.w3.org/2000/svg">
<g clip-path="url(#clip0)">
<g clip-path="url(#clip1)">
<path d="M184.859 177.237C185.176 190.524 192.288 235.717 192.288 235.717H188.296C185.098 235.717 182.132 237.388 180.476 240.124L177.538 244.976C176.353 246.933 177.761 249.433 180.049 249.433H192.169C195.114 249.433 197.879 248.014 199.596 245.622L205.897 236.845C206.96 235.365 207.513 233.618 207.578 231.798C208.095 217.552 212.351 201.365 214.575 194.572L196.288 171.713L184.859 177.237Z" fill="white"/>
<path d="M118.569 185.429H91.1387L110.372 235.718C106.979 235.718 103.864 237.597 102.283 240.599L99.7407 245.424C98.7814 247.245 100.102 249.432 102.159 249.432H112.509C116.182 249.432 119.499 247.234 120.93 243.852L125.266 233.604C125.945 231.999 126.151 230.233 125.86 228.516L118.569 185.429Z" fill="white"/>
<path d="M86.2393 157.999V193.155C141.812 192.618 176.018 183.052 191.715 177.265V157.999H86.2393Z" fill="#E5E5E5"/>
<path d="M238.291 153.32V140.558C238.291 129.076 230.612 118.965 219.516 116.012C219.427 115.988 214.861 115.032 214.861 115.032C185.089 109.327 129.967 120.134 115.63 120.461C96.7698 120.891 80.452 109.994 64.9378 105.271C58.0529 103.174 50.717 103.058 43.6594 104.468L34.6439 106.269C22.8355 108.508 18.7538 111.222 14.3994 118.42C10.1301 125.478 4.27637 143.727 4.27637 143.727C4.27637 143.727 17.9913 162.178 22.5635 157.606C27.9033 152.266 33.2306 149.034 39.7071 148.789C43.7489 148.636 48.649 150.435 52.9977 148.263C75.2422 180.929 49.9938 235.325 49.9938 235.325H48.6844C45.1895 235.325 42.0009 237.317 40.4679 240.458L38.1176 245.273C37.2684 247.012 38.5351 249.04 40.4713 249.04H51.8188C53.8121 249.04 55.7854 248.449 57.3423 247.205C78.8996 229.971 96.3033 187.376 101.639 173.272C102.75 170.334 105.271 168.15 108.352 167.535C108.915 167.422 109.52 167.305 110.165 167.184L129.043 164.795C144.198 163.759 163.669 164.584 180.652 172.104C183.663 173.438 186.307 175.53 188.197 178.226C196.958 190.724 210.183 195.117 225.433 207.037C238.958 217.609 239.453 235.325 239.453 235.325C235.517 235.325 232.023 237.843 230.778 241.577L229.44 245.593C228.874 247.288 230.137 249.04 231.924 249.04H246.989C249.348 249.04 251.319 247.246 251.541 244.899L255.454 203.524C255.562 202.381 255.249 201.263 254.556 200.349C250.778 195.363 238.291 177.086 238.291 153.32Z" fill="white"/>
<path d="M44.7681 98.5659C44.7681 98.5659 38.0025 100.984 33.9509 109.015C32.954 110.991 34.4323 113.344 36.6423 113.459L46.8879 113.987C48.9411 114.093 50.5477 112.241 50.1228 110.229C49.3774 106.699 47.829 101.627 44.7681 98.5659Z" fill="white"/>
<path d="M60.9181 228.22C78.9349 193.77 71.4489 161.535 66.4558 147.329C65.2633 143.935 61.0515 142.649 58.2308 144.881C56.6755 146.112 54.9053 147.287 52.997 148.262C75.2415 180.929 49.9932 235.325 49.9932 235.325C54.615 235.024 58.772 232.324 60.9181 228.22Z" fill="white"/>
<path d="M22.5635 157.606C27.9033 152.266 33.2306 149.034 39.7071 148.789C43.7489 148.636 48.6491 150.435 52.9977 148.263C52.2437 148.568 51.4071 148.403 50.4866 147.935C47.0431 146.185 42.4264 140.207 36.5641 138.855C29.1352 137.14 16.8489 153.84 4.27637 143.728C4.27637 143.727 17.9918 162.178 22.5635 157.606Z" fill="#E5E5E5"/>
<path d="M116.286 157.996C120.072 157.996 123.141 154.927 123.141 151.141C123.141 147.355 120.072 144.286 116.286 144.286C112.5 144.286 109.431 147.355 109.431 151.141C109.431 154.927 112.5 157.996 116.286 157.996Z" fill="black"/>
<path d="M198.576 139.712C203.625 139.712 207.718 135.619 207.718 130.57C207.718 125.521 203.625 121.427 198.576 121.427C193.527 121.427 189.434 125.521 189.434 130.57C189.434 135.619 193.527 139.712 198.576 139.712Z" fill="black"/>
<path d="M166.571 148.854C170.357 148.854 173.426 145.785 173.426 141.999C173.426 138.213 170.357 135.144 166.571 135.144C162.785 135.144 159.716 138.213 159.716 141.999C159.716 145.785 162.785 148.854 166.571 148.854Z" fill="black"/>
<path d="M84.28 135.138C88.066 135.138 91.1351 132.069 91.1351 128.283C91.1351 124.497 88.066 121.427 84.28 121.427C80.494 121.427 77.4248 124.497 77.4248 128.283C77.4248 132.069 80.494 135.138 84.28 135.138Z" fill="black"/>
<path d="M139.144 139.706C142.93 139.706 145.999 136.637 145.999 132.851C145.999 129.065 142.93 125.996 139.144 125.996C135.358 125.996 132.289 129.065 132.289 132.851C132.289 136.637 135.358 139.706 139.144 139.706Z" fill="black"/>
<path d="M88.8542 176.28C92.6402 176.28 95.7094 173.211 95.7094 169.425C95.7094 165.639 92.6402 162.57 88.8542 162.57C85.0682 162.57 81.999 165.639 81.999 169.425C81.999 173.211 85.0682 176.28 88.8542 176.28Z" fill="black"/>
<path d="M91.1403 153.428C93.6664 153.428 95.7142 151.38 95.7142 148.854C95.7142 146.328 93.6664 144.28 91.1403 144.28C88.6142 144.28 86.5664 146.328 86.5664 148.854C86.5664 151.38 88.6142 153.428 91.1403 153.428Z" fill="#E5E5E5"/>
<path d="M63.7087 135.144C66.2348 135.144 68.2826 133.096 68.2826 130.57C68.2826 128.044 66.2348 125.996 63.7087 125.996C61.1826 125.996 59.1348 128.044 59.1348 130.57C59.1348 133.096 61.1826 135.144 63.7087 135.144Z" fill="#E5E5E5"/>
<path d="M113.999 135.144C116.525 135.144 118.573 133.096 118.573 130.57C118.573 128.044 116.525 125.996 113.999 125.996C111.473 125.996 109.425 128.044 109.425 130.57C109.425 133.096 111.473 135.144 113.999 135.144Z" fill="#E5E5E5"/>
<path d="M134.188 155.715C135.451 155.715 136.475 154.691 136.475 153.428C136.475 152.165 135.451 151.141 134.188 151.141C132.925 151.141 131.901 152.165 131.901 153.428C131.901 154.691 132.925 155.715 134.188 155.715Z" fill="#808080"/>
<path d="M152.855 125.996C154.118 125.996 155.142 124.972 155.142 123.709C155.142 122.446 154.118 121.422 152.855 121.422C151.592 121.422 150.568 122.446 150.568 123.709C150.568 124.972 151.592 125.996 152.855 125.996Z" fill="#808080"/>
<path d="M226.003 153.428C227.266 153.428 228.29 152.404 228.29 151.141C228.29 149.878 227.266 148.854 226.003 148.854C224.74 148.854 223.716 149.878 223.716 151.141C223.716 152.404 224.74 153.428 226.003 153.428Z" fill="#808080"/>
<path d="M239.72 199.144C240.983 199.144 242.007 198.121 242.007 196.858C242.007 195.594 240.983 194.571 239.72 194.571C238.457 194.571 237.433 195.594 237.433 196.858C237.433 198.121 238.457 199.144 239.72 199.144Z" fill="#808080"/>
<path d="M198.577 176.286C199.84 176.286 200.864 175.262 200.864 173.999C200.864 172.736 199.84 171.712 198.577 171.712C197.314 171.712 196.29 172.736 196.29 173.999C196.29 175.262 197.314 176.286 198.577 176.286Z" fill="#808080"/>
<path d="M230.765 189.238C232.028 189.238 233.052 188.214 233.052 186.951C233.052 185.688 232.028 184.664 230.765 184.664C229.502 184.664 228.479 185.688 228.479 186.951C228.479 188.214 229.502 189.238 230.765 189.238Z" fill="#808080"/>
<path d="M216.861 144.286C218.124 144.286 219.148 143.262 219.148 141.999C219.148 140.736 218.124 139.712 216.861 139.712C215.598 139.712 214.574 140.736 214.574 141.999C214.574 143.262 215.598 144.286 216.861 144.286Z" fill="#808080"/>
<path d="M213.998 126.48C215.261 126.48 216.285 125.457 216.285 124.193C216.285 122.93 215.261 121.906 213.998 121.906C212.735 121.906 211.711 122.93 211.711 124.193C211.711 125.457 212.735 126.48 213.998 126.48Z" fill="#808080"/>
<path d="M125.429 139.712C126.692 139.712 127.716 138.688 127.716 137.425C127.716 136.162 126.692 135.138 125.429 135.138C124.166 135.138 123.142 136.162 123.142 137.425C123.142 138.688 124.166 139.712 125.429 139.712Z" fill="#808080"/>
<path d="M175.719 158.002C176.982 158.002 178.006 156.978 178.006 155.715C178.006 154.452 176.982 153.428 175.719 153.428C174.456 153.428 173.432 154.452 173.432 155.715C173.432 156.978 174.456 158.002 175.719 158.002Z" fill="#808080"/>
<path d="M102.57 135.138C103.833 135.138 104.857 134.114 104.857 132.851C104.857 131.588 103.833 130.564 102.57 130.564C101.307 130.564 100.283 131.588 100.283 132.851C100.283 134.114 101.307 135.138 102.57 135.138Z" fill="#808080"/>
<path d="M184.861 144.286C186.124 144.286 187.148 143.262 187.148 141.999C187.148 140.736 186.124 139.712 184.861 139.712C183.598 139.712 182.574 140.736 182.574 141.999C182.574 143.262 183.598 144.286 184.861 144.286Z" fill="#808080"/>
<path d="M102.57 148.854C103.833 148.854 104.857 147.83 104.857 146.567C104.857 145.304 103.833 144.28 102.57 144.28C101.307 144.28 100.283 145.304 100.283 146.567C100.283 147.83 101.307 148.854 102.57 148.854Z" fill="#808080"/>
<path d="M111.142 182.383C112.405 182.383 113.429 181.359 113.429 180.096C113.429 178.833 112.405 177.809 111.142 177.809C109.879 177.809 108.855 178.833 108.855 180.096C108.855 181.359 109.879 182.383 111.142 182.383Z" fill="#808080"/>
<path d="M77.4256 205.811C78.6887 205.811 79.7126 204.787 79.7126 203.524C79.7126 202.261 78.6887 201.237 77.4256 201.237C76.1626 201.237 75.1387 202.261 75.1387 203.524C75.1387 204.787 76.1626 205.811 77.4256 205.811Z" fill="#808080"/>
<path d="M52.2801 130.57C53.5432 130.57 54.5671 129.546 54.5671 128.283C54.5671 127.02 53.5432 125.996 52.2801 125.996C51.0171 125.996 49.9932 127.02 49.9932 128.283C49.9932 129.546 51.0171 130.57 52.2801 130.57Z" fill="#808080"/>
<path d="M56.8543 121.428C58.1174 121.428 59.1413 120.404 59.1413 119.141C59.1413 117.878 58.1174 116.854 56.8543 116.854C55.5913 116.854 54.5674 117.878 54.5674 119.141C54.5674 120.404 55.5913 121.428 56.8543 121.428Z" fill="#808080"/>
<path d="M75.1385 158.002C76.4016 158.002 77.4255 156.978 77.4255 155.715C77.4255 154.452 76.4016 153.428 75.1385 153.428C73.8755 153.428 72.8516 154.452 72.8516 155.715C72.8516 156.978 73.8755 158.002 75.1385 158.002Z" fill="#808080"/>
<path d="M75.1385 144.286C76.4016 144.286 77.4255 143.262 77.4255 141.999C77.4255 140.736 76.4016 139.712 75.1385 139.712C73.8755 139.712 72.8516 140.736 72.8516 141.999C72.8516 143.262 73.8755 144.286 75.1385 144.286Z" fill="#808080"/>
<path d="M151.715 175.904C152.978 175.904 154.002 174.88 154.002 173.617C154.002 172.354 152.978 171.33 151.715 171.33C150.452 171.33 149.428 172.354 149.428 173.617C149.428 174.88 150.452 175.904 151.715 175.904Z" fill="#808080"/>
<path d="M136.664 180.096C137.927 180.096 138.951 179.072 138.951 177.809C138.951 176.546 137.927 175.522 136.664 175.522C135.401 175.522 134.377 176.546 134.377 177.809C134.377 179.072 135.401 180.096 136.664 180.096Z" fill="#808080"/>
<path d="M123.523 177.05C124.786 177.05 125.81 176.027 125.81 174.764C125.81 173.5 124.786 172.477 123.523 172.477C122.26 172.477 121.236 173.5 121.236 174.764C121.236 176.027 122.26 177.05 123.523 177.05Z" fill="#808080"/>
<path d="M180.287 130.57C181.55 130.57 182.574 129.546 182.574 128.283C182.574 127.02 181.55 125.996 180.287 125.996C179.024 125.996 178 127.02 178 128.283C178 129.546 179.024 130.57 180.287 130.57Z" fill="#808080"/>
<path d="M184.861 121.428C186.124 121.428 187.148 120.404 187.148 119.141C187.148 117.878 186.124 116.854 184.861 116.854C183.598 116.854 182.574 117.878 182.574 119.141C182.574 120.404 183.598 121.428 184.861 121.428Z" fill="#808080"/>
<path d="M218.385 192.095C219.648 192.095 220.672 191.071 220.672 189.808C220.672 188.545 219.648 187.521 218.385 187.521C217.122 187.521 216.098 188.545 216.098 189.808C216.098 191.071 217.122 192.095 218.385 192.095Z" fill="#808080"/>
<path d="M191.715 162.57C194.241 162.57 196.288 160.522 196.288 157.996C196.288 155.47 194.241 153.422 191.715 153.422C189.188 153.422 187.141 155.47 187.141 157.996C187.141 160.522 189.188 162.57 191.715 162.57Z" fill="black" fill-opacity="0.5"/>
<path d="M228.289 176.286C230.815 176.286 232.863 174.238 232.863 171.712C232.863 169.186 230.815 167.138 228.289 167.138C225.763 167.138 223.715 169.186 223.715 171.712C223.715 174.238 225.763 176.286 228.289 176.286Z" fill="black" fill-opacity="0.5"/>
<path d="M168.857 130.57C171.383 130.57 173.431 128.522 173.431 125.996C173.431 123.47 171.383 121.422 168.857 121.422C166.331 121.422 164.283 123.47 164.283 125.996C164.283 128.522 166.331 130.57 168.857 130.57Z" fill="black" fill-opacity="0.5"/>
<path d="M210.005 185.428C212.531 185.428 214.578 183.381 214.578 180.854C214.578 178.328 212.531 176.281 210.005 176.281C207.478 176.281 205.431 178.328 205.431 180.854C205.431 183.381 207.478 185.428 210.005 185.428Z" fill="black" fill-opacity="0.5"/>
<path d="M223.715 139.712C226.241 139.712 228.288 137.664 228.288 135.138C228.288 132.612 226.241 130.564 223.715 130.564C221.188 130.564 219.141 132.612 219.141 135.138C219.141 137.664 221.188 139.712 223.715 139.712Z" fill="black" fill-opacity="0.5"/>
<path d="M68.2819 121.428C70.808 121.428 72.8558 119.38 72.8558 116.854C72.8558 114.328 70.808 112.28 68.2819 112.28C65.7558 112.28 63.708 114.328 63.708 116.854C63.708 119.38 65.7558 121.428 68.2819 121.428Z" fill="black" fill-opacity="0.5"/>
<path d="M80.0876 191.719C82.6137 191.719 84.6615 189.671 84.6615 187.145C84.6615 184.619 82.6137 182.571 80.0876 182.571C77.5615 182.571 75.5137 184.619 75.5137 187.145C75.5137 189.671 77.5615 191.719 80.0876 191.719Z" fill="black" fill-opacity="0.5"/>
<path d="M145.999 153.428C148.525 153.428 150.573 151.38 150.573 148.854C150.573 146.328 148.525 144.28 145.999 144.28C143.473 144.28 141.425 146.328 141.425 148.854C141.425 151.38 143.473 153.428 145.999 153.428Z" fill="black" fill-opacity="0.5"/>
<path d="M210.005 167.138C215.054 167.138 219.148 163.045 219.148 157.996C219.148 152.947 215.054 148.854 210.005 148.854C204.956 148.854 200.863 152.947 200.863 157.996C200.863 163.045 204.956 167.138 210.005 167.138Z" fill="#808080"/>
<path d="M287.951 186.396C285.864 186.277 284.027 187.703 283.561 189.679C282.486 190.051 279.863 190.199 277.578 189.651C270.077 187.851 267.922 179.684 265.696 168.342C265.48 167.242 265.268 166.165 265.051 165.125C258.949 135.887 245.71 119.493 222.531 112.858C221.906 112.645 217.034 111.486 215.666 111.224C193.694 107.014 158.794 111.463 135.702 114.409C126.949 115.526 119.389 116.489 115.533 116.578C103.623 116.836 92.5273 112.137 81.7957 107.579C71.2124 103.085 61.1909 98.845 50.7638 99.2995C49.9238 97.9319 48.9229 96.6208 47.7263 95.4756C46.491 94.2939 44.6706 93.9614 43.0971 94.6304C42.7715 94.7689 37.0261 97.2703 32.8206 102.66C20.953 105.035 15.7089 108.386 10.7404 116.599C6.26227 124.002 0.449634 142.05 0.204399 142.814C-0.217062 144.129 0.0213286 145.565 0.844861 146.673C4.36541 151.41 13.2982 162.481 20.1876 162.985C20.3735 162.998 20.5583 163.005 20.7414 163.005C22.5961 163.005 24.3007 162.313 25.5891 161.025C30.6398 155.974 35.0443 153.64 39.8697 153.457C40.8546 153.417 42.0802 153.56 43.3777 153.708C45.7998 153.985 48.9046 154.335 52.0744 153.552C64.9367 186.302 51.2281 222.245 47.2057 231.524C42.6916 232.034 38.6401 234.845 36.6246 238.974L32.4351 247.557C31.7884 248.883 31.8699 250.448 32.6512 251.7C33.4326 252.951 34.8036 253.711 36.279 253.711H54.8918C55.7672 253.711 56.6215 253.442 57.3396 252.941C72.1192 242.63 84.9775 220.963 93.9622 202.408L104.745 232.671C102.115 233.884 99.9021 235.94 98.4979 238.606L93.8448 247.44C93.1461 248.765 93.1929 250.36 93.9668 251.643C94.7413 252.926 96.1306 253.71 97.6288 253.71H118.569C120.287 253.71 121.839 252.682 122.508 251.1L130.245 232.814C130.554 232.085 130.653 231.284 130.534 230.501L125.03 194.458C153.432 191.702 171.634 185.9 180.861 182.195C181.93 195.596 185.674 220.811 187.304 231.478C183.015 231.801 179.061 234.203 176.817 237.909L171.179 247.217C170.38 248.538 170.353 250.187 171.111 251.532C171.869 252.878 173.293 253.71 174.838 253.71H196.859C198.237 253.71 199.531 253.046 200.334 251.927L211.001 237.068C211.523 236.342 211.804 235.469 211.804 234.574C211.804 223.012 213.4 212.476 215.149 205.269C217.639 206.947 220.182 208.755 222.798 210.799C231.096 217.285 233.847 227.079 234.747 232.288C231.027 233.678 228.03 236.685 226.719 240.616L224.232 248.08C223.796 249.384 224.015 250.818 224.82 251.934C225.623 253.049 226.914 253.71 228.289 253.71H251.148C253.354 253.71 255.199 252.032 255.407 249.835L259.883 202.498C259.991 201.349 259.631 200.205 258.883 199.325C258.72 199.133 242.568 179.839 242.568 153.712V140.95C242.568 138.514 242.268 136.134 241.706 133.846C248.842 141.548 253.643 152.338 256.677 166.872C256.887 167.88 257.092 168.923 257.301 169.989C259.352 180.437 262.161 194.748 275.581 197.969C276.918 198.29 278.827 198.568 280.877 198.568C283.697 198.568 286.784 198.041 289.018 196.375C290.82 195.031 291.877 193.085 291.994 190.895C292.119 188.537 290.309 186.522 287.951 186.396ZM121.895 230.595L115.735 245.156H104.717L106.067 242.593C106.911 240.99 108.561 239.995 110.372 239.995C111.762 239.995 113.066 239.319 113.867 238.182C114.669 237.046 114.868 235.591 114.401 234.281L100.725 195.9C106.258 195.766 111.509 195.514 116.484 195.168L121.895 230.595ZM203.257 233.188L194.665 245.156H182.43L184.135 242.34C185.011 240.893 186.606 239.995 188.297 239.995H192.288C193.538 239.995 194.726 239.447 195.539 238.497C196.352 237.546 196.708 236.288 196.514 235.052C196.456 234.689 191.84 205.274 189.934 187.313C195.01 192.406 200.932 196.163 207.427 200.273C207.48 200.307 207.534 200.341 207.588 200.375C205.505 207.87 203.396 219.89 203.257 233.188ZM251.205 203.409L247.257 245.156H234.224L234.835 243.322C235.499 241.332 237.354 239.995 239.452 239.995C240.607 239.995 241.713 239.528 242.519 238.7C243.324 237.872 243.76 236.753 243.728 235.598C243.705 234.793 243.005 215.738 228.067 204.06C222.352 199.594 216.853 196.114 212.001 193.044C202.478 187.019 194.955 182.26 189.722 173.033C189.716 173.023 189.71 173.02 189.705 173.011C189.327 172.354 188.775 171.787 188.063 171.395C168.644 160.714 145.09 159.802 128.751 160.921C126.394 161.082 124.614 163.123 124.776 165.48C124.937 167.836 126.977 169.616 129.335 169.456C142.193 168.576 159.786 169.011 175.557 175.03C163.802 179.42 139.378 186.368 100.781 187.342C103.561 180.769 105.543 175.511 106.578 172.673C107.671 172.429 109.15 172.118 110.948 171.782C113.271 171.35 114.803 169.116 114.37 166.793C113.936 164.471 111.703 162.937 109.381 163.373C104.969 164.195 102.349 164.882 102.24 164.911C100.861 165.274 99.7543 166.301 99.2878 167.648C99.0825 168.241 78.7634 226.321 53.5105 245.156H43.1256L44.3113 242.727C45.1212 241.067 46.8378 239.995 48.6845 239.995H49.9933C51.6136 239.995 53.0947 239.079 53.819 237.63C54.0625 237.143 59.8216 225.513 63.3638 208.635C67.9565 186.752 66.5935 166.151 59.4343 148.93C61.1504 146.932 62.7159 144.19 63.9997 140.445C64.7656 138.21 63.5754 135.778 61.3409 135.012C59.1064 134.245 56.6734 135.436 55.9075 137.671C52.9846 146.196 49.7339 145.824 44.349 145.208C42.792 145.03 41.1837 144.849 39.5458 144.907C32.7545 145.164 26.6048 148.143 20.2595 154.266C17.997 153.249 13.1864 148.544 9.0454 143.308C11.0643 137.269 15.1643 125.813 18.0598 121.026C20.8555 116.404 23.2154 114.067 29.3326 112.276C29.7917 113.481 30.7829 114.466 32.1146 114.859C34.3782 115.53 36.7592 114.235 37.4288 111.97C38.5243 108.261 41.45 105.639 43.6737 104.11C45.4057 107.121 46.2219 110.95 46.4141 112.508C46.6758 114.679 48.5208 116.274 50.6555 116.274C50.8231 116.274 50.9931 116.264 51.1636 116.244C53.5093 115.966 55.186 113.839 54.9083 111.493C54.865 111.127 54.6842 109.756 54.2262 107.89C61.8559 108.415 69.9532 111.844 78.452 115.453C89.479 120.136 101.991 125.452 115.728 125.13C120.03 125.032 127.423 124.089 136.784 122.895C159.338 120.018 193.423 115.671 214.057 119.626C216.148 120.027 218.15 120.505 220.073 121.055C228.362 124.017 234.014 131.964 234.014 140.951V153.713C234.013 178.959 247.138 198.089 251.205 203.409Z" fill="black"/>
</g>
</g>
<defs>
<clipPath id="clip0">
<rect width="292" height="313" fill="white"/>
</clipPath>
<clipPath id="clip1">
<rect width="292" height="292" fill="white" transform="translate(0 28)"/>
</clipPath>
</defs>
</svg>
