<svg width="469" height="122" viewBox="0 0 469 122" fill="none" xmlns="http://www.w3.org/2000/svg">
<circle cx="15" cy="15" r="15" fill="#E26F60"/>
<circle cx="15" cy="61" r="15" fill="#697237"/>
<circle cx="128" cy="15" r="15" fill="#99443C"/>
<circle cx="128" cy="61" r="15" fill="#3D5A5C"/>
<circle cx="241" cy="15" r="15" fill="#A2D0C8"/>
<circle cx="241" cy="61" r="15" fill="#686868"/>
<circle cx="354" cy="15" r="15" fill="#916959"/>
<circle cx="354" cy="61" r="15" fill="#D49824"/>
<path d="M44.538 15.71C44.538 15.3273 44.5007 14.9587 44.426 14.604C44.3513 14.24 44.2253 13.918 44.048 13.638C43.8707 13.358 43.642 13.134 43.362 12.966C43.082 12.7887 42.732 12.7 42.312 12.7C41.9293 12.7 41.598 12.7793 41.318 12.938C41.038 13.0967 40.8047 13.316 40.618 13.596C40.4407 13.8667 40.3053 14.184 40.212 14.548C40.1187 14.912 40.072 15.2993 40.072 15.71C40.072 16.7927 40.2727 17.614 40.674 18.174C41.0847 18.7247 41.6307 19 42.312 19C42.6667 19 42.9793 18.9253 43.25 18.776C43.53 18.6173 43.7633 18.3933 43.95 18.104C44.146 17.8147 44.2907 17.4693 44.384 17.068C44.4867 16.6667 44.538 16.214 44.538 15.71ZM39.134 12.224C39.134 12.0933 39.1993 12.028 39.33 12.028H39.862C39.9927 12.028 40.058 12.0933 40.058 12.224L39.988 13.274C40.1747 12.8633 40.4873 12.532 40.926 12.28C41.374 12.028 41.892 11.902 42.48 11.902C43.0307 11.902 43.4973 12 43.88 12.196C44.272 12.392 44.5893 12.6627 44.832 13.008C45.084 13.344 45.266 13.7453 45.378 14.212C45.4993 14.6787 45.56 15.178 45.56 15.71C45.56 16.2887 45.49 16.8253 45.35 17.32C45.2193 17.8147 45.0233 18.244 44.762 18.608C44.51 18.972 44.1927 19.2567 43.81 19.462C43.4273 19.6767 42.984 19.784 42.48 19.784C41.9107 19.784 41.4207 19.672 41.01 19.448C40.5993 19.2333 40.2867 18.93 40.072 18.538V21.548C40.072 21.6787 40.0067 21.744 39.876 21.744H39.344C39.288 21.744 39.2367 21.7253 39.19 21.688C39.1527 21.6507 39.134 21.604 39.134 21.548V12.224ZM52.1042 15.654H51.8382C51.3156 15.6353 50.8489 15.6587 50.4382 15.724C50.0369 15.78 49.7009 15.8593 49.4302 15.962C49.0382 16.102 48.7442 16.312 48.5482 16.592C48.3522 16.8627 48.2542 17.1893 48.2542 17.572C48.2542 17.8053 48.2916 18.0247 48.3662 18.23C48.4409 18.426 48.5576 18.58 48.7162 18.692C48.9962 18.916 49.3696 19.028 49.8362 19.028C50.1629 19.028 50.4616 18.9627 50.7322 18.832C51.0122 18.7013 51.2549 18.5147 51.4602 18.272C51.6656 18.0293 51.8242 17.7307 51.9362 17.376C52.0482 17.012 52.1042 16.5967 52.1042 16.13V15.654ZM48.1142 13.204C48.0676 13.232 48.0209 13.2413 47.9742 13.232C47.9369 13.2133 47.9182 13.1807 47.9182 13.134V12.602C47.9182 12.4713 47.9836 12.3733 48.1142 12.308C48.4409 12.1307 48.7862 12.0093 49.1502 11.944C49.5236 11.8693 49.9296 11.832 50.3682 11.832C51.3016 11.832 51.9829 12.056 52.4122 12.504C52.8416 12.9427 53.0562 13.61 53.0562 14.506V18.02C53.0562 18.3 53.0609 18.552 53.0702 18.776C53.0796 18.9907 53.0936 19.2007 53.1122 19.406C53.1122 19.5367 53.0469 19.602 52.9162 19.602H52.4122C52.2816 19.602 52.2162 19.5367 52.2162 19.406V18.328C52.0202 18.804 51.6889 19.1727 51.2222 19.434C50.7649 19.6953 50.2656 19.826 49.7242 19.826C48.7816 19.826 48.0909 19.5507 47.6522 19C47.5029 18.8133 47.3909 18.5987 47.3162 18.356C47.2416 18.104 47.2042 17.8567 47.2042 17.614C47.2042 17.0447 47.3349 16.5547 47.5962 16.144C47.8669 15.7333 48.2776 15.4253 48.8282 15.22C49.5002 14.9773 50.5316 14.856 51.9222 14.856H52.1042V14.436C52.1042 13.848 51.9689 13.4 51.6982 13.092C51.4369 12.784 50.9936 12.63 50.3682 12.63C49.9482 12.63 49.5516 12.6767 49.1782 12.77C48.8049 12.854 48.4502 12.9987 48.1142 13.204ZM60.6571 15.71C60.6571 15.3273 60.6198 14.9587 60.5451 14.604C60.4705 14.24 60.3445 13.918 60.1671 13.638C59.9898 13.358 59.7611 13.134 59.4811 12.966C59.2011 12.7887 58.8511 12.7 58.4311 12.7C58.0485 12.7 57.7171 12.7793 57.4371 12.938C57.1571 13.0967 56.9238 13.316 56.7371 13.596C56.5598 13.8667 56.4245 14.184 56.3311 14.548C56.2378 14.912 56.1911 15.2993 56.1911 15.71C56.1911 16.7927 56.3918 17.614 56.7931 18.174C57.2038 18.7247 57.7498 19 58.4311 19C58.7858 19 59.0985 18.9253 59.3691 18.776C59.6491 18.6173 59.8825 18.3933 60.0691 18.104C60.2651 17.8147 60.4098 17.4693 60.5031 17.068C60.6058 16.6667 60.6571 16.214 60.6571 15.71ZM55.2531 12.224C55.2531 12.0933 55.3185 12.028 55.4491 12.028H55.9811C56.1118 12.028 56.1771 12.0933 56.1771 12.224L56.1071 13.274C56.2938 12.8633 56.6065 12.532 57.0451 12.28C57.4931 12.028 58.0111 11.902 58.5991 11.902C59.1498 11.902 59.6165 12 59.9991 12.196C60.3911 12.392 60.7085 12.6627 60.9511 13.008C61.2031 13.344 61.3851 13.7453 61.4971 14.212C61.6185 14.6787 61.6791 15.178 61.6791 15.71C61.6791 16.2887 61.6091 16.8253 61.4691 17.32C61.3385 17.8147 61.1425 18.244 60.8811 18.608C60.6291 18.972 60.3118 19.2567 59.9291 19.462C59.5465 19.6767 59.1031 19.784 58.5991 19.784C58.0298 19.784 57.5398 19.672 57.1291 19.448C56.7185 19.2333 56.4058 18.93 56.1911 18.538V21.548C56.1911 21.6787 56.1258 21.744 55.9951 21.744H55.4631C55.4071 21.744 55.3558 21.7253 55.3091 21.688C55.2718 21.6507 55.2531 21.604 55.2531 21.548V12.224ZM68.5874 15.29C68.5874 14.9073 68.55 14.5667 68.4754 14.268C68.4007 13.9693 68.284 13.6987 68.1254 13.456C67.78 12.9053 67.2807 12.63 66.6274 12.63C65.9554 12.63 65.4094 12.91 64.9894 13.47C64.8214 13.722 64.6814 14.0113 64.5694 14.338C64.4574 14.6647 64.3967 14.982 64.3874 15.29H68.5874ZM64.3874 16.088C64.378 16.5547 64.4294 16.97 64.5414 17.334C64.6627 17.6887 64.8354 17.9873 65.0594 18.23C65.2834 18.4727 65.5494 18.6593 65.8574 18.79C66.1747 18.9207 66.5247 18.986 66.9074 18.986C67.2807 18.986 67.6307 18.9533 67.9574 18.888C68.284 18.8133 68.5874 18.6967 68.8674 18.538C68.9887 18.482 69.0494 18.5147 69.0494 18.636V19.266C69.0494 19.35 68.998 19.4153 68.8954 19.462C68.5874 19.5833 68.2654 19.672 67.9294 19.728C67.5934 19.7933 67.2294 19.826 66.8374 19.826C65.6894 19.826 64.8214 19.4947 64.2334 18.832C63.6454 18.16 63.3514 17.152 63.3514 15.808C63.3514 14.6227 63.6454 13.666 64.2334 12.938C64.8494 12.2007 65.6287 11.832 66.5714 11.832C67.094 11.832 67.5467 11.9253 67.9294 12.112C68.312 12.2987 68.6387 12.5787 68.9094 12.952C69.3854 13.6147 69.6234 14.5013 69.6234 15.612C69.6234 15.7333 69.6187 15.8267 69.6094 15.892C69.6094 15.9573 69.5954 16.004 69.5674 16.032C69.5394 16.06 69.488 16.0787 69.4134 16.088C69.348 16.088 69.25 16.088 69.1194 16.088H64.3874ZM75.0963 12.882C74.9283 12.826 74.7043 12.798 74.4243 12.798C73.7336 12.798 73.2203 13.1387 72.8843 13.82C72.6229 14.352 72.4923 15.0333 72.4923 15.864V19.406C72.4923 19.5367 72.4269 19.602 72.2963 19.602H71.7503C71.6196 19.602 71.5543 19.5367 71.5543 19.406V13.722C71.5543 13.386 71.5496 13.1153 71.5403 12.91C71.5403 12.6953 71.5356 12.4667 71.5263 12.224C71.5263 12.0933 71.5916 12.028 71.7223 12.028H72.2403C72.3709 12.028 72.4363 12.0933 72.4363 12.224V13.596C72.8936 12.42 73.5656 11.832 74.4523 11.832C74.6669 11.832 74.8816 11.86 75.0963 11.916C75.1523 11.9347 75.1989 11.9673 75.2363 12.014C75.2829 12.0513 75.3063 12.1073 75.3063 12.182V12.77C75.3063 12.826 75.2829 12.8633 75.2363 12.882C75.1896 12.9007 75.1429 12.9007 75.0963 12.882Z" fill="black"/>
<path d="M38.322 67.73C38.1913 67.7207 38.126 67.632 38.126 67.464V67.072C38.126 66.96 38.1913 66.918 38.322 66.946C38.3593 66.9553 38.4107 66.96 38.476 66.96C38.5507 66.9693 38.616 66.974 38.672 66.974C38.896 66.974 39.0827 66.932 39.232 66.848C39.3813 66.7733 39.498 66.6707 39.582 66.54C39.6847 66.3347 39.736 65.9987 39.736 65.532V58.224C39.736 58.0933 39.8013 58.028 39.932 58.028H40.492C40.6227 58.028 40.688 58.0933 40.688 58.224V65.63C40.688 67.058 40.1047 67.772 38.938 67.772C38.8073 67.772 38.6953 67.7673 38.602 67.758C38.518 67.758 38.4247 67.7487 38.322 67.73ZM39.526 55.382C39.526 55.1953 39.5913 55.0367 39.722 54.906C39.8527 54.766 40.0113 54.696 40.198 54.696C40.3847 54.696 40.5433 54.766 40.674 54.906C40.814 55.0367 40.884 55.1953 40.884 55.382C40.884 55.5687 40.814 55.7273 40.674 55.858C40.5433 55.9887 40.3847 56.054 40.198 56.054C40.0113 56.054 39.8527 55.9887 39.722 55.858C39.5913 55.7273 39.526 55.5687 39.526 55.382ZM47.3738 61.654H47.1078C46.5851 61.6353 46.1184 61.6587 45.7078 61.724C45.3064 61.78 44.9704 61.8593 44.6998 61.962C44.3078 62.102 44.0138 62.312 43.8178 62.592C43.6218 62.8627 43.5238 63.1893 43.5238 63.572C43.5238 63.8053 43.5611 64.0247 43.6358 64.23C43.7104 64.426 43.8271 64.58 43.9858 64.692C44.2658 64.916 44.6391 65.028 45.1058 65.028C45.4324 65.028 45.7311 64.9627 46.0018 64.832C46.2818 64.7013 46.5244 64.5147 46.7298 64.272C46.9351 64.0293 47.0938 63.7307 47.2058 63.376C47.3178 63.012 47.3738 62.5967 47.3738 62.13V61.654ZM43.3838 59.204C43.3371 59.232 43.2904 59.2413 43.2438 59.232C43.2064 59.2133 43.1878 59.1807 43.1878 59.134V58.602C43.1878 58.4713 43.2531 58.3733 43.3838 58.308C43.7104 58.1307 44.0558 58.0093 44.4198 57.944C44.7931 57.8693 45.1991 57.832 45.6378 57.832C46.5711 57.832 47.2524 58.056 47.6818 58.504C48.1111 58.9427 48.3258 59.61 48.3258 60.506V64.02C48.3258 64.3 48.3304 64.552 48.3398 64.776C48.3491 64.9907 48.3631 65.2007 48.3818 65.406C48.3818 65.5367 48.3164 65.602 48.1858 65.602H47.6818C47.5511 65.602 47.4858 65.5367 47.4858 65.406V64.328C47.2898 64.804 46.9584 65.1727 46.4918 65.434C46.0344 65.6953 45.5351 65.826 44.9938 65.826C44.0511 65.826 43.3604 65.5507 42.9218 65C42.7724 64.8133 42.6604 64.5987 42.5858 64.356C42.5111 64.104 42.4738 63.8567 42.4738 63.614C42.4738 63.0447 42.6044 62.5547 42.8658 62.144C43.1364 61.7333 43.5471 61.4253 44.0978 61.22C44.7698 60.9773 45.8011 60.856 47.1918 60.856H47.3738V60.436C47.3738 59.848 47.2384 59.4 46.9678 59.092C46.7064 58.784 46.2631 58.63 45.6378 58.63C45.2178 58.63 44.8211 58.6767 44.4478 58.77C44.0744 58.854 43.7198 58.9987 43.3838 59.204ZM51.3067 61.808C51.3067 62.2467 51.3393 62.648 51.4047 63.012C51.4793 63.3667 51.5913 63.6793 51.7407 63.95C51.946 64.286 52.1933 64.5427 52.4827 64.72C52.7813 64.8973 53.136 64.986 53.5467 64.986C53.92 64.986 54.2467 64.888 54.5267 64.692C54.816 64.496 55.054 64.2487 55.2407 63.95C55.4367 63.642 55.5813 63.3013 55.6747 62.928C55.768 62.5453 55.8147 62.172 55.8147 61.808C55.8147 61.36 55.7633 60.9447 55.6607 60.562C55.5673 60.1793 55.4227 59.848 55.2267 59.568C55.04 59.288 54.8067 59.0687 54.5267 58.91C54.2467 58.7513 53.92 58.672 53.5467 58.672C52.7533 58.672 52.1513 59.0127 51.7407 59.694C51.5913 59.9647 51.4793 60.282 51.4047 60.646C51.3393 61.0007 51.3067 61.388 51.3067 61.808ZM56.7527 65.406C56.7527 65.5367 56.6873 65.602 56.5567 65.602H56.0107C55.88 65.602 55.8147 65.5367 55.8147 65.406V64.356C55.3107 65.308 54.4987 65.784 53.3787 65.784C52.38 65.784 51.6007 65.4013 51.0407 64.636C50.5273 63.9267 50.2707 62.984 50.2707 61.808C50.2707 59.1853 51.3067 57.874 53.3787 57.874C53.9387 57.874 54.4333 57.986 54.8627 58.21C55.3013 58.434 55.6187 58.7233 55.8147 59.078V54.668C55.8147 54.5373 55.88 54.472 56.0107 54.472H56.5567C56.6873 54.472 56.7527 54.5373 56.7527 54.668V65.406ZM63.8569 61.29C63.8569 60.9073 63.8196 60.5667 63.7449 60.268C63.6702 59.9693 63.5536 59.6987 63.3949 59.456C63.0496 58.9053 62.5502 58.63 61.8969 58.63C61.2249 58.63 60.6789 58.91 60.2589 59.47C60.0909 59.722 59.9509 60.0113 59.8389 60.338C59.7269 60.6647 59.6662 60.982 59.6569 61.29H63.8569ZM59.6569 62.088C59.6476 62.5547 59.6989 62.97 59.8109 63.334C59.9322 63.6887 60.1049 63.9873 60.3289 64.23C60.5529 64.4727 60.8189 64.6593 61.1269 64.79C61.4442 64.9207 61.7942 64.986 62.1769 64.986C62.5502 64.986 62.9002 64.9533 63.2269 64.888C63.5536 64.8133 63.8569 64.6967 64.1369 64.538C64.2582 64.482 64.3189 64.5147 64.3189 64.636V65.266C64.3189 65.35 64.2676 65.4153 64.1649 65.462C63.8569 65.5833 63.5349 65.672 63.1989 65.728C62.8629 65.7933 62.4989 65.826 62.1069 65.826C60.9589 65.826 60.0909 65.4947 59.5029 64.832C58.9149 64.16 58.6209 63.152 58.6209 61.808C58.6209 60.6227 58.9149 59.666 59.5029 58.938C60.1189 58.2007 60.8982 57.832 61.8409 57.832C62.3636 57.832 62.8162 57.9253 63.1989 58.112C63.5816 58.2987 63.9082 58.5787 64.1789 58.952C64.6549 59.6147 64.8929 60.5013 64.8929 61.612C64.8929 61.7333 64.8882 61.8267 64.8789 61.892C64.8789 61.9573 64.8649 62.004 64.8369 62.032C64.8089 62.06 64.7576 62.0787 64.6829 62.088C64.6176 62.088 64.5196 62.088 64.3889 62.088H59.6569Z" fill="black"/>
<path d="M157.16 19.658C156.88 19.7047 156.609 19.7373 156.348 19.756C156.087 19.7747 155.774 19.784 155.41 19.784C154.831 19.784 154.313 19.6813 153.856 19.476C153.408 19.2707 153.025 18.9907 152.708 18.636C152.4 18.2813 152.162 17.8613 151.994 17.376C151.826 16.8907 151.742 16.368 151.742 15.808C151.742 15.2387 151.831 14.716 152.008 14.24C152.185 13.7547 152.437 13.3393 152.764 12.994C153.1 12.6393 153.497 12.364 153.954 12.168C154.421 11.9627 154.943 11.86 155.522 11.86C155.83 11.86 156.11 11.874 156.362 11.902C156.614 11.9207 156.885 11.9627 157.174 12.028C157.305 12.0653 157.365 12.154 157.356 12.294L157.314 12.742C157.295 12.854 157.225 12.896 157.104 12.868C156.861 12.7933 156.628 12.742 156.404 12.714C156.18 12.6767 155.933 12.658 155.662 12.658C155.186 12.658 154.766 12.7373 154.402 12.896C154.047 13.0453 153.749 13.26 153.506 13.54C153.263 13.82 153.081 14.156 152.96 14.548C152.839 14.9307 152.778 15.3507 152.778 15.808C152.778 16.228 152.839 16.6293 152.96 17.012C153.091 17.3947 153.273 17.7353 153.506 18.034C153.749 18.3233 154.038 18.5567 154.374 18.734C154.719 18.902 155.111 18.986 155.55 18.986C155.877 18.986 156.147 18.972 156.362 18.944C156.577 18.916 156.819 18.8647 157.09 18.79C157.23 18.7527 157.305 18.7853 157.314 18.888L157.356 19.406C157.365 19.546 157.3 19.63 157.16 19.658ZM163.759 15.29C163.759 14.9073 163.722 14.5667 163.647 14.268C163.573 13.9693 163.456 13.6987 163.297 13.456C162.952 12.9053 162.453 12.63 161.799 12.63C161.127 12.63 160.581 12.91 160.161 13.47C159.993 13.722 159.853 14.0113 159.741 14.338C159.629 14.6647 159.569 14.982 159.559 15.29H163.759ZM159.559 16.088C159.55 16.5547 159.601 16.97 159.713 17.334C159.835 17.6887 160.007 17.9873 160.231 18.23C160.455 18.4727 160.721 18.6593 161.029 18.79C161.347 18.9207 161.697 18.986 162.079 18.986C162.453 18.986 162.803 18.9533 163.129 18.888C163.456 18.8133 163.759 18.6967 164.039 18.538C164.161 18.482 164.221 18.5147 164.221 18.636V19.266C164.221 19.35 164.17 19.4153 164.067 19.462C163.759 19.5833 163.437 19.672 163.101 19.728C162.765 19.7933 162.401 19.826 162.009 19.826C160.861 19.826 159.993 19.4947 159.405 18.832C158.817 18.16 158.523 17.152 158.523 15.808C158.523 14.6227 158.817 13.666 159.405 12.938C160.021 12.2007 160.801 11.832 161.743 11.832C162.266 11.832 162.719 11.9253 163.101 12.112C163.484 12.2987 163.811 12.5787 164.081 12.952C164.557 13.6147 164.795 14.5013 164.795 15.612C164.795 15.7333 164.791 15.8267 164.781 15.892C164.781 15.9573 164.767 16.004 164.739 16.032C164.711 16.06 164.66 16.0787 164.585 16.088C164.52 16.088 164.422 16.088 164.291 16.088H159.559ZM170.268 12.882C170.1 12.826 169.876 12.798 169.596 12.798C168.905 12.798 168.392 13.1387 168.056 13.82C167.795 14.352 167.664 15.0333 167.664 15.864V19.406C167.664 19.5367 167.599 19.602 167.468 19.602H166.922C166.791 19.602 166.726 19.5367 166.726 19.406V13.722C166.726 13.386 166.721 13.1153 166.712 12.91C166.712 12.6953 166.707 12.4667 166.698 12.224C166.698 12.0933 166.763 12.028 166.894 12.028H167.412C167.543 12.028 167.608 12.0933 167.608 12.224V13.596C168.065 12.42 168.737 11.832 169.624 11.832C169.839 11.832 170.053 11.86 170.268 11.916C170.324 11.9347 170.371 11.9673 170.408 12.014C170.455 12.0513 170.478 12.1073 170.478 12.182V12.77C170.478 12.826 170.455 12.8633 170.408 12.882C170.361 12.9007 170.315 12.9007 170.268 12.882ZM176.11 15.654H175.844C175.321 15.6353 174.855 15.6587 174.444 15.724C174.043 15.78 173.707 15.8593 173.436 15.962C173.044 16.102 172.75 16.312 172.554 16.592C172.358 16.8627 172.26 17.1893 172.26 17.572C172.26 17.8053 172.297 18.0247 172.372 18.23C172.447 18.426 172.563 18.58 172.722 18.692C173.002 18.916 173.375 19.028 173.842 19.028C174.169 19.028 174.467 18.9627 174.738 18.832C175.018 18.7013 175.261 18.5147 175.466 18.272C175.671 18.0293 175.83 17.7307 175.942 17.376C176.054 17.012 176.11 16.5967 176.11 16.13V15.654ZM172.12 13.204C172.073 13.232 172.027 13.2413 171.98 13.232C171.943 13.2133 171.924 13.1807 171.924 13.134V12.602C171.924 12.4713 171.989 12.3733 172.12 12.308C172.447 12.1307 172.792 12.0093 173.156 11.944C173.529 11.8693 173.935 11.832 174.374 11.832C175.307 11.832 175.989 12.056 176.418 12.504C176.847 12.9427 177.062 13.61 177.062 14.506V18.02C177.062 18.3 177.067 18.552 177.076 18.776C177.085 18.9907 177.099 19.2007 177.118 19.406C177.118 19.5367 177.053 19.602 176.922 19.602H176.418C176.287 19.602 176.222 19.5367 176.222 19.406V18.328C176.026 18.804 175.695 19.1727 175.228 19.434C174.771 19.6953 174.271 19.826 173.73 19.826C172.787 19.826 172.097 19.5507 171.658 19C171.509 18.8133 171.397 18.5987 171.322 18.356C171.247 18.104 171.21 17.8567 171.21 17.614C171.21 17.0447 171.341 16.5547 171.602 16.144C171.873 15.7333 172.283 15.4253 172.834 15.22C173.506 14.9773 174.537 14.856 175.928 14.856H176.11V14.436C176.11 13.848 175.975 13.4 175.704 13.092C175.443 12.784 174.999 12.63 174.374 12.63C173.954 12.63 173.557 12.6767 173.184 12.77C172.811 12.854 172.456 12.9987 172.12 13.204ZM179.441 13.806C179.441 13.414 179.436 13.106 179.427 12.882C179.418 12.6487 179.404 12.4293 179.385 12.224C179.385 12.0933 179.45 12.028 179.581 12.028H180.099C180.23 12.028 180.295 12.0933 180.295 12.224V12.98C180.51 12.6347 180.799 12.364 181.163 12.168C181.527 11.9627 181.975 11.86 182.507 11.86C183.067 11.86 183.557 12 183.977 12.28C184.397 12.5507 184.654 12.952 184.747 13.484C184.943 12.952 185.256 12.5507 185.685 12.28C186.124 12 186.628 11.86 187.197 11.86C187.561 11.86 187.888 11.9253 188.177 12.056C188.476 12.1867 188.728 12.3687 188.933 12.602C189.148 12.826 189.311 13.092 189.423 13.4C189.535 13.708 189.591 14.0347 189.591 14.38V19.406C189.591 19.5367 189.526 19.602 189.395 19.602H188.863C188.732 19.602 188.667 19.5413 188.667 19.42V14.576C188.667 13.2973 188.13 12.658 187.057 12.658C186.73 12.658 186.436 12.7327 186.175 12.882C185.923 13.022 185.704 13.218 185.517 13.47C185.34 13.722 185.204 14.016 185.111 14.352C185.027 14.688 184.99 15.0427 184.999 15.416V19.406C184.999 19.5367 184.934 19.602 184.803 19.602H184.243C184.112 19.602 184.047 19.5367 184.047 19.406V14.576C184.047 13.2973 183.506 12.658 182.423 12.658C181.788 12.658 181.289 12.8633 180.925 13.274C180.561 13.6847 180.379 14.226 180.379 14.898V19.406C180.379 19.5367 180.314 19.602 180.183 19.602H179.637C179.506 19.602 179.441 19.5367 179.441 19.406V13.806ZM193.136 19.406C193.136 19.5367 193.071 19.602 192.94 19.602H192.324C192.193 19.602 192.128 19.5367 192.128 19.406V12.224C192.128 12.0933 192.193 12.028 192.324 12.028H192.94C193.071 12.028 193.136 12.0933 193.136 12.224V19.406ZM191.946 9.382C191.946 9.19533 192.011 9.03667 192.142 8.906C192.273 8.766 192.431 8.696 192.618 8.696C192.805 8.696 192.963 8.766 193.094 8.906C193.234 9.03667 193.304 9.19533 193.304 9.382C193.304 9.56867 193.234 9.72733 193.094 9.858C192.963 9.98867 192.805 10.054 192.618 10.054C192.431 10.054 192.273 9.98867 192.142 9.858C192.011 9.72733 191.946 9.56867 191.946 9.382ZM200.39 19.658C200.11 19.7047 199.84 19.7373 199.578 19.756C199.317 19.7747 199.004 19.784 198.64 19.784C198.062 19.784 197.544 19.6813 197.086 19.476C196.638 19.2707 196.256 18.9907 195.938 18.636C195.63 18.2813 195.392 17.8613 195.224 17.376C195.056 16.8907 194.972 16.368 194.972 15.808C194.972 15.2387 195.061 14.716 195.238 14.24C195.416 13.7547 195.668 13.3393 195.994 12.994C196.33 12.6393 196.727 12.364 197.184 12.168C197.651 11.9627 198.174 11.86 198.752 11.86C199.06 11.86 199.34 11.874 199.592 11.902C199.844 11.9207 200.115 11.9627 200.404 12.028C200.535 12.0653 200.596 12.154 200.586 12.294L200.544 12.742C200.526 12.854 200.456 12.896 200.334 12.868C200.092 12.7933 199.858 12.742 199.634 12.714C199.41 12.6767 199.163 12.658 198.892 12.658C198.416 12.658 197.996 12.7373 197.632 12.896C197.278 13.0453 196.979 13.26 196.736 13.54C196.494 13.82 196.312 14.156 196.19 14.548C196.069 14.9307 196.008 15.3507 196.008 15.808C196.008 16.228 196.069 16.6293 196.19 17.012C196.321 17.3947 196.503 17.7353 196.736 18.034C196.979 18.3233 197.268 18.5567 197.604 18.734C197.95 18.902 198.342 18.986 198.78 18.986C199.107 18.986 199.378 18.972 199.592 18.944C199.807 18.916 200.05 18.8647 200.32 18.79C200.46 18.7527 200.535 18.7853 200.544 18.888L200.586 19.406C200.596 19.546 200.53 19.63 200.39 19.658Z" fill="black"/>
<path d="M151.924 64.678C152.493 64.9113 153.081 65.028 153.688 65.028C154.192 65.028 154.607 64.9067 154.934 64.664C155.261 64.412 155.424 64.076 155.424 63.656C155.424 63.4133 155.331 63.18 155.144 62.956C154.967 62.7227 154.747 62.5313 154.486 62.382C154.197 62.2233 153.898 62.074 153.59 61.934C153.291 61.7847 153.002 61.6307 152.722 61.472C152.386 61.2853 152.139 61.0567 151.98 60.786C151.821 60.506 151.742 60.2167 151.742 59.918C151.742 59.5727 151.807 59.2693 151.938 59.008C152.069 58.7467 152.246 58.5273 152.47 58.35C152.694 58.1727 152.955 58.042 153.254 57.958C153.553 57.874 153.87 57.832 154.206 57.832C154.561 57.832 154.869 57.8507 155.13 57.888C155.391 57.9253 155.653 57.9813 155.914 58.056C155.97 58.0747 156.017 58.1027 156.054 58.14C156.101 58.1773 156.119 58.2287 156.11 58.294L156.068 58.714C156.059 58.7887 156.031 58.8353 155.984 58.854C155.937 58.8727 155.891 58.8727 155.844 58.854C155.611 58.77 155.377 58.714 155.144 58.686C154.911 58.6487 154.631 58.63 154.304 58.63C153.221 58.63 152.68 59.0593 152.68 59.918C152.68 60.1047 152.75 60.282 152.89 60.45C153.039 60.618 153.287 60.786 153.632 60.954C153.931 61.1033 154.225 61.248 154.514 61.388C154.803 61.5187 155.116 61.6773 155.452 61.864C155.741 62.0227 155.979 62.2653 156.166 62.592C156.362 62.9187 156.46 63.2733 156.46 63.656C156.46 64.0293 156.385 64.3513 156.236 64.622C156.087 64.8927 155.886 65.1167 155.634 65.294C155.382 65.4713 155.093 65.602 154.766 65.686C154.439 65.7793 154.103 65.826 153.758 65.826C153.553 65.826 153.366 65.8213 153.198 65.812C153.039 65.8027 152.885 65.7887 152.736 65.77C152.596 65.7513 152.451 65.728 152.302 65.7C152.153 65.672 151.994 65.6347 151.826 65.588C151.695 65.5413 151.635 65.4573 151.644 65.336L151.7 64.818C151.719 64.6687 151.793 64.622 151.924 64.678ZM161.764 65.616C161.372 65.756 160.984 65.826 160.602 65.826C159.846 65.826 159.346 65.5787 159.104 65.084C158.945 64.748 158.866 64.1553 158.866 63.306V58.84H157.55C157.419 58.84 157.354 58.7747 157.354 58.644V58.224C157.354 58.0933 157.419 58.028 157.55 58.028H158.866V56.138C158.866 55.998 158.926 55.928 159.048 55.928H159.636C159.757 55.928 159.818 55.998 159.818 56.138V58.028H161.372C161.502 58.028 161.568 58.0933 161.568 58.224V58.644C161.568 58.7747 161.502 58.84 161.372 58.84H159.818V63.782C159.818 64.6127 160.154 65.028 160.826 65.028C161.087 65.028 161.381 64.972 161.708 64.86C161.754 64.8413 161.796 64.8413 161.834 64.86C161.88 64.8787 161.904 64.916 161.904 64.972L161.932 65.336C161.95 65.4667 161.894 65.56 161.764 65.616ZM168.866 61.822C168.866 61.3833 168.805 60.9727 168.684 60.59C168.572 60.2073 168.413 59.8667 168.208 59.568C167.722 58.9707 167.092 58.672 166.318 58.672C165.926 58.672 165.571 58.7513 165.254 58.91C164.946 59.0593 164.67 59.2787 164.428 59.568C164.213 59.8667 164.045 60.2073 163.924 60.59C163.812 60.9727 163.756 61.3833 163.756 61.822C163.756 62.27 163.812 62.6853 163.924 63.068C164.045 63.4507 164.213 63.7867 164.428 64.076C164.922 64.6827 165.552 64.986 166.318 64.986C166.71 64.986 167.06 64.9067 167.368 64.748C167.685 64.5893 167.965 64.3653 168.208 64.076C168.413 63.7867 168.572 63.4507 168.684 63.068C168.805 62.6853 168.866 62.27 168.866 61.822ZM169.902 61.822C169.902 62.3727 169.822 62.886 169.664 63.362C169.505 63.8287 169.295 64.2393 169.034 64.594C168.707 64.986 168.315 65.2893 167.858 65.504C167.41 65.7187 166.896 65.826 166.318 65.826C165.739 65.826 165.221 65.7187 164.764 65.504C164.306 65.2893 163.914 64.986 163.588 64.594C163.326 64.2393 163.116 63.8287 162.958 63.362C162.808 62.886 162.734 62.3727 162.734 61.822C162.734 60.6927 163.018 59.7687 163.588 59.05C164.241 58.238 165.151 57.832 166.318 57.832C166.906 57.832 167.424 57.9347 167.872 58.14C168.32 58.336 168.707 58.6393 169.034 59.05C169.612 59.7873 169.902 60.7113 169.902 61.822ZM177.804 65.406C177.804 65.5367 177.738 65.602 177.608 65.602H177.048C176.917 65.602 176.852 65.5367 176.852 65.406V60.996C176.852 60.1373 176.698 59.5307 176.39 59.176C176.082 58.812 175.648 58.63 175.088 58.63C174.332 58.63 173.753 58.84 173.352 59.26C172.96 59.68 172.764 60.268 172.764 61.024V65.406C172.764 65.5367 172.698 65.602 172.568 65.602H172.008C171.877 65.602 171.812 65.5367 171.812 65.406V59.806C171.812 59.4047 171.807 59.092 171.798 58.868C171.798 58.644 171.788 58.4293 171.77 58.224C171.76 58.1587 171.774 58.112 171.812 58.084C171.858 58.0467 171.91 58.028 171.966 58.028H172.47C172.6 58.028 172.666 58.0933 172.666 58.224V58.994C172.927 58.5927 173.24 58.2987 173.604 58.112C173.977 57.9253 174.486 57.832 175.13 57.832C176.016 57.832 176.684 58.0887 177.132 58.602C177.58 59.1153 177.804 59.8387 177.804 60.772V65.406ZM184.978 61.29C184.978 60.9073 184.941 60.5667 184.866 60.268C184.791 59.9693 184.675 59.6987 184.516 59.456C184.171 58.9053 183.671 58.63 183.018 58.63C182.346 58.63 181.8 58.91 181.38 59.47C181.212 59.722 181.072 60.0113 180.96 60.338C180.848 60.6647 180.787 60.982 180.778 61.29H184.978ZM180.778 62.088C180.769 62.5547 180.82 62.97 180.932 63.334C181.053 63.6887 181.226 63.9873 181.45 64.23C181.674 64.4727 181.94 64.6593 182.248 64.79C182.565 64.9207 182.915 64.986 183.298 64.986C183.671 64.986 184.021 64.9533 184.348 64.888C184.675 64.8133 184.978 64.6967 185.258 64.538C185.379 64.482 185.44 64.5147 185.44 64.636V65.266C185.44 65.35 185.389 65.4153 185.286 65.462C184.978 65.5833 184.656 65.672 184.32 65.728C183.984 65.7933 183.62 65.826 183.228 65.826C182.08 65.826 181.212 65.4947 180.624 64.832C180.036 64.16 179.742 63.152 179.742 61.808C179.742 60.6227 180.036 59.666 180.624 58.938C181.24 58.2007 182.019 57.832 182.962 57.832C183.485 57.832 183.937 57.9253 184.32 58.112C184.703 58.2987 185.029 58.5787 185.3 58.952C185.776 59.6147 186.014 60.5013 186.014 61.612C186.014 61.7333 186.009 61.8267 186 61.892C186 61.9573 185.986 62.004 185.958 62.032C185.93 62.06 185.879 62.0787 185.804 62.088C185.739 62.088 185.641 62.088 185.51 62.088H180.778Z" fill="black"/>
<path d="M270.454 15.78C270.454 14.7813 270.249 14.0113 269.838 13.47C269.427 12.9287 268.872 12.658 268.172 12.658C267.416 12.658 266.847 12.91 266.464 13.414C266.081 13.918 265.89 14.716 265.89 15.808C265.89 16.2093 265.946 16.578 266.058 16.914C266.17 17.25 266.324 17.5393 266.52 17.782C266.716 18.0153 266.949 18.202 267.22 18.342C267.491 18.4727 267.785 18.538 268.102 18.538C268.429 18.538 268.737 18.4727 269.026 18.342C269.315 18.202 269.563 18.0107 269.768 17.768C269.983 17.516 270.151 17.222 270.272 16.886C270.393 16.55 270.454 16.1813 270.454 15.78ZM265.638 21.436C265.526 21.408 265.479 21.338 265.498 21.226L265.54 20.61C265.54 20.4887 265.601 20.4607 265.722 20.526C266.077 20.6847 266.417 20.7967 266.744 20.862C267.071 20.9367 267.425 20.974 267.808 20.974C268.657 20.974 269.292 20.7127 269.712 20.19C270.141 19.6767 270.384 18.972 270.44 18.076C270.225 18.496 269.908 18.8133 269.488 19.028C269.068 19.2427 268.601 19.35 268.088 19.35C267.631 19.35 267.206 19.266 266.814 19.098C266.422 18.93 266.081 18.692 265.792 18.384C265.503 18.076 265.274 17.7027 265.106 17.264C264.938 16.8253 264.854 16.34 264.854 15.808C264.854 15.1827 264.91 14.6273 265.022 14.142C265.143 13.6473 265.33 13.232 265.582 12.896C265.834 12.56 266.161 12.3033 266.562 12.126C266.963 11.9487 267.449 11.86 268.018 11.86C268.513 11.86 268.947 11.944 269.32 12.112C269.703 12.2707 270.09 12.56 270.482 12.98L270.454 12.224C270.454 12.0933 270.519 12.028 270.65 12.028H271.182C271.313 12.028 271.378 12.0933 271.378 12.224V17.824C271.378 18.4307 271.299 18.9767 271.14 19.462C270.991 19.9567 270.762 20.372 270.454 20.708C270.155 21.0533 269.782 21.3147 269.334 21.492C268.886 21.6787 268.373 21.772 267.794 21.772C267.374 21.772 267.005 21.744 266.688 21.688C266.371 21.6413 266.021 21.5573 265.638 21.436ZM274.8 19.406C274.8 19.5367 274.735 19.602 274.604 19.602H273.988C273.858 19.602 273.792 19.5367 273.792 19.406V8.668C273.792 8.53733 273.858 8.472 273.988 8.472H274.604C274.735 8.472 274.8 8.53733 274.8 8.668V19.406ZM281.495 15.654H281.229C280.706 15.6353 280.24 15.6587 279.829 15.724C279.428 15.78 279.092 15.8593 278.821 15.962C278.429 16.102 278.135 16.312 277.939 16.592C277.743 16.8627 277.645 17.1893 277.645 17.572C277.645 17.8053 277.682 18.0247 277.757 18.23C277.832 18.426 277.948 18.58 278.107 18.692C278.387 18.916 278.76 19.028 279.227 19.028C279.554 19.028 279.852 18.9627 280.123 18.832C280.403 18.7013 280.646 18.5147 280.851 18.272C281.056 18.0293 281.215 17.7307 281.327 17.376C281.439 17.012 281.495 16.5967 281.495 16.13V15.654ZM277.505 13.204C277.458 13.232 277.412 13.2413 277.365 13.232C277.328 13.2133 277.309 13.1807 277.309 13.134V12.602C277.309 12.4713 277.374 12.3733 277.505 12.308C277.832 12.1307 278.177 12.0093 278.541 11.944C278.914 11.8693 279.32 11.832 279.759 11.832C280.692 11.832 281.374 12.056 281.803 12.504C282.232 12.9427 282.447 13.61 282.447 14.506V18.02C282.447 18.3 282.452 18.552 282.461 18.776C282.47 18.9907 282.484 19.2007 282.503 19.406C282.503 19.5367 282.438 19.602 282.307 19.602H281.803C281.672 19.602 281.607 19.5367 281.607 19.406V18.328C281.411 18.804 281.08 19.1727 280.613 19.434C280.156 19.6953 279.656 19.826 279.115 19.826C278.172 19.826 277.482 19.5507 277.043 19C276.894 18.8133 276.782 18.5987 276.707 18.356C276.632 18.104 276.595 17.8567 276.595 17.614C276.595 17.0447 276.726 16.5547 276.987 16.144C277.258 15.7333 277.668 15.4253 278.219 15.22C278.891 14.9773 279.922 14.856 281.313 14.856H281.495V14.436C281.495 13.848 281.36 13.4 281.089 13.092C280.828 12.784 280.384 12.63 279.759 12.63C279.339 12.63 278.942 12.6767 278.569 12.77C278.196 12.854 277.841 12.9987 277.505 13.204ZM284.434 18.678C285.003 18.9113 285.591 19.028 286.198 19.028C286.702 19.028 287.117 18.9067 287.444 18.664C287.77 18.412 287.934 18.076 287.934 17.656C287.934 17.4133 287.84 17.18 287.654 16.956C287.476 16.7227 287.257 16.5313 286.996 16.382C286.706 16.2233 286.408 16.074 286.1 15.934C285.801 15.7847 285.512 15.6307 285.232 15.472C284.896 15.2853 284.648 15.0567 284.49 14.786C284.331 14.506 284.252 14.2167 284.252 13.918C284.252 13.5727 284.317 13.2693 284.448 13.008C284.578 12.7467 284.756 12.5273 284.98 12.35C285.204 12.1727 285.465 12.042 285.764 11.958C286.062 11.874 286.38 11.832 286.716 11.832C287.07 11.832 287.378 11.8507 287.64 11.888C287.901 11.9253 288.162 11.9813 288.424 12.056C288.48 12.0747 288.526 12.1027 288.564 12.14C288.61 12.1773 288.629 12.2287 288.62 12.294L288.578 12.714C288.568 12.7887 288.54 12.8353 288.494 12.854C288.447 12.8727 288.4 12.8727 288.354 12.854C288.12 12.77 287.887 12.714 287.654 12.686C287.42 12.6487 287.14 12.63 286.814 12.63C285.731 12.63 285.19 13.0593 285.19 13.918C285.19 14.1047 285.26 14.282 285.4 14.45C285.549 14.618 285.796 14.786 286.142 14.954C286.44 15.1033 286.734 15.248 287.024 15.388C287.313 15.5187 287.626 15.6773 287.962 15.864C288.251 16.0227 288.489 16.2653 288.676 16.592C288.872 16.9187 288.97 17.2733 288.97 17.656C288.97 18.0293 288.895 18.3513 288.746 18.622C288.596 18.8927 288.396 19.1167 288.144 19.294C287.892 19.4713 287.602 19.602 287.276 19.686C286.949 19.7793 286.613 19.826 286.268 19.826C286.062 19.826 285.876 19.8213 285.708 19.812C285.549 19.8027 285.395 19.7887 285.246 19.77C285.106 19.7513 284.961 19.728 284.812 19.7C284.662 19.672 284.504 19.6347 284.336 19.588C284.205 19.5413 284.144 19.4573 284.154 19.336L284.21 18.818C284.228 18.6687 284.303 18.622 284.434 18.678ZM290.367 18.678C290.937 18.9113 291.525 19.028 292.131 19.028C292.635 19.028 293.051 18.9067 293.377 18.664C293.704 18.412 293.867 18.076 293.867 17.656C293.867 17.4133 293.774 17.18 293.587 16.956C293.41 16.7227 293.191 16.5313 292.929 16.382C292.64 16.2233 292.341 16.074 292.033 15.934C291.735 15.7847 291.445 15.6307 291.165 15.472C290.829 15.2853 290.582 15.0567 290.423 14.786C290.265 14.506 290.185 14.2167 290.185 13.918C290.185 13.5727 290.251 13.2693 290.381 13.008C290.512 12.7467 290.689 12.5273 290.913 12.35C291.137 12.1727 291.399 12.042 291.697 11.958C291.996 11.874 292.313 11.832 292.649 11.832C293.004 11.832 293.312 11.8507 293.573 11.888C293.835 11.9253 294.096 11.9813 294.357 12.056C294.413 12.0747 294.46 12.1027 294.497 12.14C294.544 12.1773 294.563 12.2287 294.553 12.294L294.511 12.714C294.502 12.7887 294.474 12.8353 294.427 12.854C294.381 12.8727 294.334 12.8727 294.287 12.854C294.054 12.77 293.821 12.714 293.587 12.686C293.354 12.6487 293.074 12.63 292.747 12.63C291.665 12.63 291.123 13.0593 291.123 13.918C291.123 14.1047 291.193 14.282 291.333 14.45C291.483 14.618 291.73 14.786 292.075 14.954C292.374 15.1033 292.668 15.248 292.957 15.388C293.247 15.5187 293.559 15.6773 293.895 15.864C294.185 16.0227 294.423 16.2653 294.609 16.592C294.805 16.9187 294.903 17.2733 294.903 17.656C294.903 18.0293 294.829 18.3513 294.679 18.622C294.53 18.8927 294.329 19.1167 294.077 19.294C293.825 19.4713 293.536 19.602 293.209 19.686C292.883 19.7793 292.547 19.826 292.201 19.826C291.996 19.826 291.809 19.8213 291.641 19.812C291.483 19.8027 291.329 19.7887 291.179 19.77C291.039 19.7513 290.895 19.728 290.745 19.7C290.596 19.672 290.437 19.6347 290.269 19.588C290.139 19.5413 290.078 19.4573 290.087 19.336L290.143 18.818C290.162 18.6687 290.237 18.622 290.367 18.678Z" fill="black"/>
<path d="M264.924 64.678C265.493 64.9113 266.081 65.028 266.688 65.028C267.192 65.028 267.607 64.9067 267.934 64.664C268.261 64.412 268.424 64.076 268.424 63.656C268.424 63.4133 268.331 63.18 268.144 62.956C267.967 62.7227 267.747 62.5313 267.486 62.382C267.197 62.2233 266.898 62.074 266.59 61.934C266.291 61.7847 266.002 61.6307 265.722 61.472C265.386 61.2853 265.139 61.0567 264.98 60.786C264.821 60.506 264.742 60.2167 264.742 59.918C264.742 59.5727 264.807 59.2693 264.938 59.008C265.069 58.7467 265.246 58.5273 265.47 58.35C265.694 58.1727 265.955 58.042 266.254 57.958C266.553 57.874 266.87 57.832 267.206 57.832C267.561 57.832 267.869 57.8507 268.13 57.888C268.391 57.9253 268.653 57.9813 268.914 58.056C268.97 58.0747 269.017 58.1027 269.054 58.14C269.101 58.1773 269.119 58.2287 269.11 58.294L269.068 58.714C269.059 58.7887 269.031 58.8353 268.984 58.854C268.937 58.8727 268.891 58.8727 268.844 58.854C268.611 58.77 268.377 58.714 268.144 58.686C267.911 58.6487 267.631 58.63 267.304 58.63C266.221 58.63 265.68 59.0593 265.68 59.918C265.68 60.1047 265.75 60.282 265.89 60.45C266.039 60.618 266.287 60.786 266.632 60.954C266.931 61.1033 267.225 61.248 267.514 61.388C267.803 61.5187 268.116 61.6773 268.452 61.864C268.741 62.0227 268.979 62.2653 269.166 62.592C269.362 62.9187 269.46 63.2733 269.46 63.656C269.46 64.0293 269.385 64.3513 269.236 64.622C269.087 64.8927 268.886 65.1167 268.634 65.294C268.382 65.4713 268.093 65.602 267.766 65.686C267.439 65.7793 267.103 65.826 266.758 65.826C266.553 65.826 266.366 65.8213 266.198 65.812C266.039 65.8027 265.885 65.7887 265.736 65.77C265.596 65.7513 265.451 65.728 265.302 65.7C265.153 65.672 264.994 65.6347 264.826 65.588C264.695 65.5413 264.635 65.4573 264.644 65.336L264.7 64.818C264.719 64.6687 264.793 64.622 264.924 64.678ZM272.23 65.406C272.23 65.5367 272.164 65.602 272.034 65.602H271.418C271.287 65.602 271.222 65.5367 271.222 65.406V58.224C271.222 58.0933 271.287 58.028 271.418 58.028H272.034C272.164 58.028 272.23 58.0933 272.23 58.224V65.406ZM271.04 55.382C271.04 55.1953 271.105 55.0367 271.236 54.906C271.366 54.766 271.525 54.696 271.712 54.696C271.898 54.696 272.057 54.766 272.188 54.906C272.328 55.0367 272.398 55.1953 272.398 55.382C272.398 55.5687 272.328 55.7273 272.188 55.858C272.057 55.9887 271.898 56.054 271.712 56.054C271.525 56.054 271.366 55.9887 271.236 55.858C271.105 55.7273 271.04 55.5687 271.04 55.382ZM275.634 65.406C275.634 65.5367 275.569 65.602 275.438 65.602H274.822C274.692 65.602 274.626 65.5367 274.626 65.406V54.668C274.626 54.5373 274.692 54.472 274.822 54.472H275.438C275.569 54.472 275.634 54.5373 275.634 54.668V65.406ZM280.747 65.42C280.7 65.5413 280.607 65.602 280.467 65.602H279.781C279.641 65.602 279.552 65.5413 279.515 65.42L277.051 58.224C277.032 58.1773 277.037 58.1353 277.065 58.098C277.093 58.0513 277.135 58.028 277.191 58.028H277.821C277.933 58.028 278.017 58.0933 278.073 58.224L280.145 64.636L282.301 58.224C282.32 58.168 282.352 58.1213 282.399 58.084C282.446 58.0467 282.497 58.028 282.553 58.028H283.169C283.225 58.028 283.267 58.0513 283.295 58.098C283.323 58.1353 283.328 58.1773 283.309 58.224L280.747 65.42ZM289.474 61.29C289.474 60.9073 289.437 60.5667 289.362 60.268C289.287 59.9693 289.171 59.6987 289.012 59.456C288.667 58.9053 288.167 58.63 287.514 58.63C286.842 58.63 286.296 58.91 285.876 59.47C285.708 59.722 285.568 60.0113 285.456 60.338C285.344 60.6647 285.283 60.982 285.274 61.29H289.474ZM285.274 62.088C285.265 62.5547 285.316 62.97 285.428 63.334C285.549 63.6887 285.722 63.9873 285.946 64.23C286.17 64.4727 286.436 64.6593 286.744 64.79C287.061 64.9207 287.411 64.986 287.794 64.986C288.167 64.986 288.517 64.9533 288.844 64.888C289.171 64.8133 289.474 64.6967 289.754 64.538C289.875 64.482 289.936 64.5147 289.936 64.636V65.266C289.936 65.35 289.885 65.4153 289.782 65.462C289.474 65.5833 289.152 65.672 288.816 65.728C288.48 65.7933 288.116 65.826 287.724 65.826C286.576 65.826 285.708 65.4947 285.12 64.832C284.532 64.16 284.238 63.152 284.238 61.808C284.238 60.6227 284.532 59.666 285.12 58.938C285.736 58.2007 286.515 57.832 287.458 57.832C287.981 57.832 288.433 57.9253 288.816 58.112C289.199 58.2987 289.525 58.5787 289.796 58.952C290.272 59.6147 290.51 60.5013 290.51 61.612C290.51 61.7333 290.505 61.8267 290.496 61.892C290.496 61.9573 290.482 62.004 290.454 62.032C290.426 62.06 290.375 62.0787 290.3 62.088C290.235 62.088 290.137 62.088 290.006 62.088H285.274ZM295.983 58.882C295.815 58.826 295.591 58.798 295.311 58.798C294.62 58.798 294.107 59.1387 293.771 59.82C293.51 60.352 293.379 61.0333 293.379 61.864V65.406C293.379 65.5367 293.314 65.602 293.183 65.602H292.637C292.506 65.602 292.441 65.5367 292.441 65.406V59.722C292.441 59.386 292.436 59.1153 292.427 58.91C292.427 58.6953 292.422 58.4667 292.413 58.224C292.413 58.0933 292.478 58.028 292.609 58.028H293.127C293.258 58.028 293.323 58.0933 293.323 58.224V59.596C293.78 58.42 294.452 57.832 295.339 57.832C295.554 57.832 295.768 57.86 295.983 57.916C296.039 57.9347 296.086 57.9673 296.123 58.014C296.17 58.0513 296.193 58.1073 296.193 58.182V58.77C296.193 58.826 296.17 58.8633 296.123 58.882C296.076 58.9007 296.03 58.9007 295.983 58.882Z" fill="black"/>
<path d="M378.316 13.806C378.316 13.414 378.311 13.106 378.302 12.882C378.293 12.6487 378.279 12.4293 378.26 12.224C378.26 12.0933 378.325 12.028 378.456 12.028H378.974C379.105 12.028 379.17 12.0933 379.17 12.224V12.98C379.385 12.6347 379.674 12.364 380.038 12.168C380.402 11.9627 380.85 11.86 381.382 11.86C381.942 11.86 382.432 12 382.852 12.28C383.272 12.5507 383.529 12.952 383.622 13.484C383.818 12.952 384.131 12.5507 384.56 12.28C384.999 12 385.503 11.86 386.072 11.86C386.436 11.86 386.763 11.9253 387.052 12.056C387.351 12.1867 387.603 12.3687 387.808 12.602C388.023 12.826 388.186 13.092 388.298 13.4C388.41 13.708 388.466 14.0347 388.466 14.38V19.406C388.466 19.5367 388.401 19.602 388.27 19.602H387.738C387.607 19.602 387.542 19.5413 387.542 19.42V14.576C387.542 13.2973 387.005 12.658 385.932 12.658C385.605 12.658 385.311 12.7327 385.05 12.882C384.798 13.022 384.579 13.218 384.392 13.47C384.215 13.722 384.079 14.016 383.986 14.352C383.902 14.688 383.865 15.0427 383.874 15.416V19.406C383.874 19.5367 383.809 19.602 383.678 19.602H383.118C382.987 19.602 382.922 19.5367 382.922 19.406V14.576C382.922 13.2973 382.381 12.658 381.298 12.658C380.663 12.658 380.164 12.8633 379.8 13.274C379.436 13.6847 379.254 14.226 379.254 14.898V19.406C379.254 19.5367 379.189 19.602 379.058 19.602H378.512C378.381 19.602 378.316 19.5367 378.316 19.406V13.806ZM395.693 15.29C395.693 14.9073 395.656 14.5667 395.581 14.268C395.506 13.9693 395.39 13.6987 395.231 13.456C394.886 12.9053 394.386 12.63 393.733 12.63C393.061 12.63 392.515 12.91 392.095 13.47C391.927 13.722 391.787 14.0113 391.675 14.338C391.563 14.6647 391.502 14.982 391.493 15.29H395.693ZM391.493 16.088C391.484 16.5547 391.535 16.97 391.647 17.334C391.768 17.6887 391.941 17.9873 392.165 18.23C392.389 18.4727 392.655 18.6593 392.963 18.79C393.28 18.9207 393.63 18.986 394.013 18.986C394.386 18.986 394.736 18.9533 395.063 18.888C395.39 18.8133 395.693 18.6967 395.973 18.538C396.094 18.482 396.155 18.5147 396.155 18.636V19.266C396.155 19.35 396.104 19.4153 396.001 19.462C395.693 19.5833 395.371 19.672 395.035 19.728C394.699 19.7933 394.335 19.826 393.943 19.826C392.795 19.826 391.927 19.4947 391.339 18.832C390.751 18.16 390.457 17.152 390.457 15.808C390.457 14.6227 390.751 13.666 391.339 12.938C391.955 12.2007 392.734 11.832 393.677 11.832C394.2 11.832 394.652 11.9253 395.035 12.112C395.418 12.2987 395.744 12.5787 396.015 12.952C396.491 13.6147 396.729 14.5013 396.729 15.612C396.729 15.7333 396.724 15.8267 396.715 15.892C396.715 15.9573 396.701 16.004 396.673 16.032C396.645 16.06 396.594 16.0787 396.519 16.088C396.454 16.088 396.356 16.088 396.225 16.088H391.493ZM402.174 19.616C401.782 19.756 401.394 19.826 401.012 19.826C400.256 19.826 399.756 19.5787 399.514 19.084C399.355 18.748 399.276 18.1553 399.276 17.306V12.84H397.96C397.829 12.84 397.764 12.7747 397.764 12.644V12.224C397.764 12.0933 397.829 12.028 397.96 12.028H399.276V10.138C399.276 9.998 399.336 9.928 399.458 9.928H400.046C400.167 9.928 400.228 9.998 400.228 10.138V12.028H401.782C401.912 12.028 401.978 12.0933 401.978 12.224V12.644C401.978 12.7747 401.912 12.84 401.782 12.84H400.228V17.782C400.228 18.6127 400.564 19.028 401.236 19.028C401.497 19.028 401.791 18.972 402.118 18.86C402.164 18.8413 402.206 18.8413 402.244 18.86C402.29 18.8787 402.314 18.916 402.314 18.972L402.342 19.336C402.36 19.4667 402.304 19.56 402.174 19.616ZM408.044 15.654H407.778C407.255 15.6353 406.788 15.6587 406.378 15.724C405.976 15.78 405.64 15.8593 405.37 15.962C404.978 16.102 404.684 16.312 404.488 16.592C404.292 16.8627 404.194 17.1893 404.194 17.572C404.194 17.8053 404.231 18.0247 404.306 18.23C404.38 18.426 404.497 18.58 404.656 18.692C404.936 18.916 405.309 19.028 405.776 19.028C406.102 19.028 406.401 18.9627 406.672 18.832C406.952 18.7013 407.194 18.5147 407.4 18.272C407.605 18.0293 407.764 17.7307 407.876 17.376C407.988 17.012 408.044 16.5967 408.044 16.13V15.654ZM404.054 13.204C404.007 13.232 403.96 13.2413 403.914 13.232C403.876 13.2133 403.858 13.1807 403.858 13.134V12.602C403.858 12.4713 403.923 12.3733 404.054 12.308C404.38 12.1307 404.726 12.0093 405.09 11.944C405.463 11.8693 405.869 11.832 406.308 11.832C407.241 11.832 407.922 12.056 408.352 12.504C408.781 12.9427 408.996 13.61 408.996 14.506V18.02C408.996 18.3 409 18.552 409.01 18.776C409.019 18.9907 409.033 19.2007 409.052 19.406C409.052 19.5367 408.986 19.602 408.856 19.602H408.352C408.221 19.602 408.156 19.5367 408.156 19.406V18.328C407.96 18.804 407.628 19.1727 407.162 19.434C406.704 19.6953 406.205 19.826 405.664 19.826C404.721 19.826 404.03 19.5507 403.592 19C403.442 18.8133 403.33 18.5987 403.256 18.356C403.181 18.104 403.144 17.8567 403.144 17.614C403.144 17.0447 403.274 16.5547 403.536 16.144C403.806 15.7333 404.217 15.4253 404.768 15.22C405.44 14.9773 406.471 14.856 407.862 14.856H408.044V14.436C408.044 13.848 407.908 13.4 407.638 13.092C407.376 12.784 406.933 12.63 406.308 12.63C405.888 12.63 405.491 12.6767 405.118 12.77C404.744 12.854 404.39 12.9987 404.054 13.204ZM412.369 19.406C412.369 19.5367 412.303 19.602 412.173 19.602H411.557C411.426 19.602 411.361 19.5367 411.361 19.406V8.668C411.361 8.53733 411.426 8.472 411.557 8.472H412.173C412.303 8.472 412.369 8.53733 412.369 8.668V19.406ZM422.675 19.448C422.647 19.5507 422.573 19.602 422.451 19.602H421.625C421.513 19.602 421.439 19.5507 421.401 19.448L419.413 13.008C419.068 14.0907 418.723 15.164 418.377 16.228C418.032 17.292 417.687 18.3607 417.341 19.434C417.313 19.546 417.229 19.602 417.089 19.602H416.319C416.254 19.602 416.198 19.5927 416.151 19.574C416.114 19.5553 416.086 19.5087 416.067 19.434L413.729 12.224C413.711 12.1773 413.715 12.1353 413.743 12.098C413.771 12.0513 413.813 12.028 413.869 12.028H414.513C414.625 12.028 414.709 12.0933 414.765 12.224L416.753 18.608C417.099 17.5347 417.435 16.4847 417.761 15.458C418.097 14.422 418.438 13.3673 418.783 12.294C418.83 12.1167 418.937 12.028 419.105 12.028H419.763C419.941 12.028 420.053 12.1167 420.099 12.294L422.045 18.608C422.4 17.5067 422.741 16.4427 423.067 15.416C423.403 14.3893 423.749 13.3253 424.103 12.224C424.122 12.168 424.155 12.1213 424.201 12.084C424.248 12.0467 424.299 12.028 424.355 12.028H424.915C424.971 12.028 425.013 12.0513 425.041 12.098C425.069 12.1353 425.074 12.1773 425.055 12.224L422.675 19.448ZM432.162 15.822C432.162 15.3833 432.102 14.9727 431.98 14.59C431.868 14.2073 431.71 13.8667 431.504 13.568C431.019 12.9707 430.389 12.672 429.614 12.672C429.222 12.672 428.868 12.7513 428.55 12.91C428.242 13.0593 427.967 13.2787 427.724 13.568C427.51 13.8667 427.342 14.2073 427.22 14.59C427.108 14.9727 427.052 15.3833 427.052 15.822C427.052 16.27 427.108 16.6853 427.22 17.068C427.342 17.4507 427.51 17.7867 427.724 18.076C428.219 18.6827 428.849 18.986 429.614 18.986C430.006 18.986 430.356 18.9067 430.664 18.748C430.982 18.5893 431.262 18.3653 431.504 18.076C431.71 17.7867 431.868 17.4507 431.98 17.068C432.102 16.6853 432.162 16.27 432.162 15.822ZM433.198 15.822C433.198 16.3727 433.119 16.886 432.96 17.362C432.802 17.8287 432.592 18.2393 432.33 18.594C432.004 18.986 431.612 19.2893 431.154 19.504C430.706 19.7187 430.193 19.826 429.614 19.826C429.036 19.826 428.518 19.7187 428.06 19.504C427.603 19.2893 427.211 18.986 426.884 18.594C426.623 18.2393 426.413 17.8287 426.254 17.362C426.105 16.886 426.03 16.3727 426.03 15.822C426.03 14.6927 426.315 13.7687 426.884 13.05C427.538 12.238 428.448 11.832 429.614 11.832C430.202 11.832 430.72 11.9347 431.168 12.14C431.616 12.336 432.004 12.6393 432.33 13.05C432.909 13.7873 433.198 14.7113 433.198 15.822ZM438.665 12.882C438.497 12.826 438.273 12.798 437.993 12.798C437.302 12.798 436.789 13.1387 436.453 13.82C436.191 14.352 436.061 15.0333 436.061 15.864V19.406C436.061 19.5367 435.995 19.602 435.865 19.602H435.319C435.188 19.602 435.123 19.5367 435.123 19.406V13.722C435.123 13.386 435.118 13.1153 435.109 12.91C435.109 12.6953 435.104 12.4667 435.095 12.224C435.095 12.0933 435.16 12.028 435.291 12.028H435.809C435.939 12.028 436.005 12.0933 436.005 12.224V13.596C436.462 12.42 437.134 11.832 438.021 11.832C438.235 11.832 438.45 11.86 438.665 11.916C438.721 11.9347 438.767 11.9673 438.805 12.014C438.851 12.0513 438.875 12.1073 438.875 12.182V12.77C438.875 12.826 438.851 12.8633 438.805 12.882C438.758 12.9007 438.711 12.9007 438.665 12.882ZM442.687 15.402L445.711 19.406C445.739 19.4527 445.748 19.4947 445.739 19.532C445.729 19.5787 445.697 19.602 445.641 19.602H445.039C444.945 19.602 444.861 19.588 444.787 19.56C444.712 19.532 444.651 19.4807 444.605 19.406L442.085 16.074L441.147 17.124V19.406C441.147 19.5367 441.081 19.602 440.951 19.602H440.391C440.26 19.602 440.195 19.5367 440.195 19.406V8.654C440.195 8.52333 440.26 8.458 440.391 8.458H440.951C441.081 8.458 441.147 8.52333 441.147 8.654V15.948L444.339 12.224C444.469 12.0933 444.623 12.028 444.801 12.028H445.459C445.515 12.028 445.552 12.0513 445.571 12.098C445.589 12.1353 445.575 12.1773 445.529 12.224L442.687 15.402Z" fill="black"/>
<path d="M383.846 61.822C383.846 61.3833 383.785 60.9727 383.664 60.59C383.552 60.2073 383.393 59.8667 383.188 59.568C382.703 58.9707 382.073 58.672 381.298 58.672C380.906 58.672 380.551 58.7513 380.234 58.91C379.926 59.0593 379.651 59.2787 379.408 59.568C379.193 59.8667 379.025 60.2073 378.904 60.59C378.792 60.9727 378.736 61.3833 378.736 61.822C378.736 62.27 378.792 62.6853 378.904 63.068C379.025 63.4507 379.193 63.7867 379.408 64.076C379.903 64.6827 380.533 64.986 381.298 64.986C381.69 64.986 382.04 64.9067 382.348 64.748C382.665 64.5893 382.945 64.3653 383.188 64.076C383.393 63.7867 383.552 63.4507 383.664 63.068C383.785 62.6853 383.846 62.27 383.846 61.822ZM384.882 61.822C384.882 62.3727 384.803 62.886 384.644 63.362C384.485 63.8287 384.275 64.2393 384.014 64.594C383.687 64.986 383.295 65.2893 382.838 65.504C382.39 65.7187 381.877 65.826 381.298 65.826C380.719 65.826 380.201 65.7187 379.744 65.504C379.287 65.2893 378.895 64.986 378.568 64.594C378.307 64.2393 378.097 63.8287 377.938 63.362C377.789 62.886 377.714 62.3727 377.714 61.822C377.714 60.6927 377.999 59.7687 378.568 59.05C379.221 58.238 380.131 57.832 381.298 57.832C381.886 57.832 382.404 57.9347 382.852 58.14C383.3 58.336 383.687 58.6393 384.014 59.05C384.593 59.7873 384.882 60.7113 384.882 61.822ZM390.32 65.616C389.928 65.756 389.541 65.826 389.158 65.826C388.402 65.826 387.903 65.5787 387.66 65.084C387.502 64.748 387.422 64.1553 387.422 63.306V58.84H386.106C385.976 58.84 385.91 58.7747 385.91 58.644V58.224C385.91 58.0933 385.976 58.028 386.106 58.028H387.422V56.138C387.422 55.998 387.483 55.928 387.604 55.928H388.192C388.314 55.928 388.374 55.998 388.374 56.138V58.028H389.928C390.059 58.028 390.124 58.0933 390.124 58.224V58.644C390.124 58.7747 390.059 58.84 389.928 58.84H388.374V63.782C388.374 64.6127 388.71 65.028 389.382 65.028C389.644 65.028 389.938 64.972 390.264 64.86C390.311 64.8413 390.353 64.8413 390.39 64.86C390.437 64.8787 390.46 64.916 390.46 64.972L390.488 65.336C390.507 65.4667 390.451 65.56 390.32 65.616ZM397.87 65.406C397.87 65.5367 397.805 65.602 397.674 65.602H397.114C396.984 65.602 396.918 65.5367 396.918 65.406V61.094C396.918 60.646 396.876 60.268 396.792 59.96C396.718 59.6427 396.606 59.3907 396.456 59.204C396.307 59.008 396.125 58.868 395.91 58.784C395.696 58.7 395.458 58.658 395.196 58.658C394.431 58.658 393.843 58.84 393.432 59.204C393.031 59.568 392.83 60.072 392.83 60.716V65.406C392.83 65.5367 392.765 65.602 392.634 65.602H392.074C391.944 65.602 391.878 65.5367 391.878 65.406V54.654C391.878 54.5233 391.944 54.458 392.074 54.458H392.634C392.765 54.458 392.83 54.5233 392.83 54.654V58.714C393.092 58.4153 393.414 58.2007 393.796 58.07C394.188 57.93 394.674 57.86 395.252 57.86C396.158 57.86 396.82 58.126 397.24 58.658C397.66 59.19 397.87 59.9973 397.87 61.08V65.406ZM405.044 61.29C405.044 60.9073 405.007 60.5667 404.932 60.268C404.858 59.9693 404.741 59.6987 404.582 59.456C404.237 58.9053 403.738 58.63 403.084 58.63C402.412 58.63 401.866 58.91 401.446 59.47C401.278 59.722 401.138 60.0113 401.026 60.338C400.914 60.6647 400.854 60.982 400.844 61.29H405.044ZM400.844 62.088C400.835 62.5547 400.886 62.97 400.998 63.334C401.12 63.6887 401.292 63.9873 401.516 64.23C401.74 64.4727 402.006 64.6593 402.314 64.79C402.632 64.9207 402.982 64.986 403.364 64.986C403.738 64.986 404.088 64.9533 404.414 64.888C404.741 64.8133 405.044 64.6967 405.324 64.538C405.446 64.482 405.506 64.5147 405.506 64.636V65.266C405.506 65.35 405.455 65.4153 405.352 65.462C405.044 65.5833 404.722 65.672 404.386 65.728C404.05 65.7933 403.686 65.826 403.294 65.826C402.146 65.826 401.278 65.4947 400.69 64.832C400.102 64.16 399.808 63.152 399.808 61.808C399.808 60.6227 400.102 59.666 400.69 58.938C401.306 58.2007 402.086 57.832 403.028 57.832C403.551 57.832 404.004 57.9253 404.386 58.112C404.769 58.2987 405.096 58.5787 405.366 58.952C405.842 59.6147 406.08 60.5013 406.08 61.612C406.08 61.7333 406.076 61.8267 406.066 61.892C406.066 61.9573 406.052 62.004 406.024 62.032C405.996 62.06 405.945 62.0787 405.87 62.088C405.805 62.088 405.707 62.088 405.576 62.088H400.844ZM411.553 58.882C411.385 58.826 411.161 58.798 410.881 58.798C410.191 58.798 409.677 59.1387 409.341 59.82C409.08 60.352 408.949 61.0333 408.949 61.864V65.406C408.949 65.5367 408.884 65.602 408.753 65.602H408.207C408.077 65.602 408.011 65.5367 408.011 65.406V59.722C408.011 59.386 408.007 59.1153 407.997 58.91C407.997 58.6953 407.993 58.4667 407.983 58.224C407.983 58.0933 408.049 58.028 408.179 58.028H408.697C408.828 58.028 408.893 58.0933 408.893 58.224V59.596C409.351 58.42 410.023 57.832 410.909 57.832C411.124 57.832 411.339 57.86 411.553 57.916C411.609 57.9347 411.656 57.9673 411.693 58.014C411.74 58.0513 411.763 58.1073 411.763 58.182V58.77C411.763 58.826 411.74 58.8633 411.693 58.882C411.647 58.9007 411.6 58.9007 411.553 58.882ZM417.021 59.806C417.021 59.414 417.016 59.106 417.007 58.882C416.998 58.6487 416.984 58.4293 416.965 58.224C416.965 58.0933 417.03 58.028 417.161 58.028H417.679C417.81 58.028 417.875 58.0933 417.875 58.224V58.98C418.09 58.6347 418.379 58.364 418.743 58.168C419.107 57.9627 419.555 57.86 420.087 57.86C420.647 57.86 421.137 58 421.557 58.28C421.977 58.5507 422.234 58.952 422.327 59.484C422.523 58.952 422.836 58.5507 423.265 58.28C423.704 58 424.208 57.86 424.777 57.86C425.141 57.86 425.468 57.9253 425.757 58.056C426.056 58.1867 426.308 58.3687 426.513 58.602C426.728 58.826 426.891 59.092 427.003 59.4C427.115 59.708 427.171 60.0347 427.171 60.38V65.406C427.171 65.5367 427.106 65.602 426.975 65.602H426.443C426.312 65.602 426.247 65.5413 426.247 65.42V60.576C426.247 59.2973 425.71 58.658 424.637 58.658C424.31 58.658 424.016 58.7327 423.755 58.882C423.503 59.022 423.284 59.218 423.097 59.47C422.92 59.722 422.784 60.016 422.691 60.352C422.607 60.688 422.57 61.0427 422.579 61.416V65.406C422.579 65.5367 422.514 65.602 422.383 65.602H421.823C421.692 65.602 421.627 65.5367 421.627 65.406V60.576C421.627 59.2973 421.086 58.658 420.003 58.658C419.368 58.658 418.869 58.8633 418.505 59.274C418.141 59.6847 417.959 60.226 417.959 60.898V65.406C417.959 65.5367 417.894 65.602 417.763 65.602H417.217C417.086 65.602 417.021 65.5367 417.021 65.406V59.806ZM434.034 61.654H433.768C433.245 61.6353 432.779 61.6587 432.368 61.724C431.967 61.78 431.631 61.8593 431.36 61.962C430.968 62.102 430.674 62.312 430.478 62.592C430.282 62.8627 430.184 63.1893 430.184 63.572C430.184 63.8053 430.221 64.0247 430.296 64.23C430.371 64.426 430.487 64.58 430.646 64.692C430.926 64.916 431.299 65.028 431.766 65.028C432.093 65.028 432.391 64.9627 432.662 64.832C432.942 64.7013 433.185 64.5147 433.39 64.272C433.595 64.0293 433.754 63.7307 433.866 63.376C433.978 63.012 434.034 62.5967 434.034 62.13V61.654ZM430.044 59.204C429.997 59.232 429.951 59.2413 429.904 59.232C429.867 59.2133 429.848 59.1807 429.848 59.134V58.602C429.848 58.4713 429.913 58.3733 430.044 58.308C430.371 58.1307 430.716 58.0093 431.08 57.944C431.453 57.8693 431.859 57.832 432.298 57.832C433.231 57.832 433.913 58.056 434.342 58.504C434.771 58.9427 434.986 59.61 434.986 60.506V64.02C434.986 64.3 434.991 64.552 435 64.776C435.009 64.9907 435.023 65.2007 435.042 65.406C435.042 65.5367 434.977 65.602 434.846 65.602H434.342C434.211 65.602 434.146 65.5367 434.146 65.406V64.328C433.95 64.804 433.619 65.1727 433.152 65.434C432.695 65.6953 432.195 65.826 431.654 65.826C430.711 65.826 430.021 65.5507 429.582 65C429.433 64.8133 429.321 64.5987 429.246 64.356C429.171 64.104 429.134 63.8567 429.134 63.614C429.134 63.0447 429.265 62.5547 429.526 62.144C429.797 61.7333 430.207 61.4253 430.758 61.22C431.43 60.9773 432.461 60.856 433.852 60.856H434.034V60.436C434.034 59.848 433.899 59.4 433.628 59.092C433.367 58.784 432.923 58.63 432.298 58.63C431.878 58.63 431.481 58.6767 431.108 58.77C430.735 58.854 430.38 58.9987 430.044 59.204ZM440.879 65.616C440.487 65.756 440.099 65.826 439.717 65.826C438.961 65.826 438.461 65.5787 438.219 65.084C438.06 64.748 437.981 64.1553 437.981 63.306V58.84H436.665C436.534 58.84 436.469 58.7747 436.469 58.644V58.224C436.469 58.0933 436.534 58.028 436.665 58.028H437.981V56.138C437.981 55.998 438.041 55.928 438.163 55.928H438.751C438.872 55.928 438.933 55.998 438.933 56.138V58.028H440.487C440.617 58.028 440.683 58.0933 440.683 58.224V58.644C440.683 58.7747 440.617 58.84 440.487 58.84H438.933V63.782C438.933 64.6127 439.269 65.028 439.941 65.028C440.202 65.028 440.496 64.972 440.823 64.86C440.869 64.8413 440.911 64.8413 440.949 64.86C440.995 64.8787 441.019 64.916 441.019 64.972L441.047 65.336C441.065 65.4667 441.009 65.56 440.879 65.616ZM447.113 61.29C447.113 60.9073 447.075 60.5667 447.001 60.268C446.926 59.9693 446.809 59.6987 446.651 59.456C446.305 58.9053 445.806 58.63 445.153 58.63C444.481 58.63 443.935 58.91 443.515 59.47C443.347 59.722 443.207 60.0113 443.095 60.338C442.983 60.6647 442.922 60.982 442.913 61.29H447.113ZM442.913 62.088C442.903 62.5547 442.955 62.97 443.067 63.334C443.188 63.6887 443.361 63.9873 443.585 64.23C443.809 64.4727 444.075 64.6593 444.383 64.79C444.7 64.9207 445.05 64.986 445.433 64.986C445.806 64.986 446.156 64.9533 446.483 64.888C446.809 64.8133 447.113 64.6967 447.393 64.538C447.514 64.482 447.575 64.5147 447.575 64.636V65.266C447.575 65.35 447.523 65.4153 447.421 65.462C447.113 65.5833 446.791 65.672 446.455 65.728C446.119 65.7933 445.755 65.826 445.363 65.826C444.215 65.826 443.347 65.4947 442.759 64.832C442.171 64.16 441.877 63.152 441.877 61.808C441.877 60.6227 442.171 59.666 442.759 58.938C443.375 58.2007 444.154 57.832 445.097 57.832C445.619 57.832 446.072 57.9253 446.455 58.112C446.837 58.2987 447.164 58.5787 447.435 58.952C447.911 59.6147 448.149 60.5013 448.149 61.612C448.149 61.7333 448.144 61.8267 448.135 61.892C448.135 61.9573 448.121 62.004 448.093 62.032C448.065 62.06 448.013 62.0787 447.939 62.088C447.873 62.088 447.775 62.088 447.645 62.088H442.913ZM453.622 58.882C453.454 58.826 453.23 58.798 452.95 58.798C452.259 58.798 451.746 59.1387 451.41 59.82C451.148 60.352 451.018 61.0333 451.018 61.864V65.406C451.018 65.5367 450.952 65.602 450.822 65.602H450.276C450.145 65.602 450.08 65.5367 450.08 65.406V59.722C450.08 59.386 450.075 59.1153 450.066 58.91C450.066 58.6953 450.061 58.4667 450.052 58.224C450.052 58.0933 450.117 58.028 450.248 58.028H450.766C450.896 58.028 450.962 58.0933 450.962 58.224V59.596C451.419 58.42 452.091 57.832 452.978 57.832C453.192 57.832 453.407 57.86 453.622 57.916C453.678 57.9347 453.724 57.9673 453.762 58.014C453.808 58.0513 453.832 58.1073 453.832 58.182V58.77C453.832 58.826 453.808 58.8633 453.762 58.882C453.715 58.9007 453.668 58.9007 453.622 58.882ZM456.146 65.406C456.146 65.5367 456.08 65.602 455.95 65.602H455.334C455.203 65.602 455.138 65.5367 455.138 65.406V58.224C455.138 58.0933 455.203 58.028 455.334 58.028H455.95C456.08 58.028 456.146 58.0933 456.146 58.224V65.406ZM454.956 55.382C454.956 55.1953 455.021 55.0367 455.152 54.906C455.282 54.766 455.441 54.696 455.628 54.696C455.814 54.696 455.973 54.766 456.104 54.906C456.244 55.0367 456.314 55.1953 456.314 55.382C456.314 55.5687 456.244 55.7273 456.104 55.858C455.973 55.9887 455.814 56.054 455.628 56.054C455.441 56.054 455.282 55.9887 455.152 55.858C455.021 55.7273 454.956 55.5687 454.956 55.382ZM462.854 61.654H462.588C462.066 61.6353 461.599 61.6587 461.188 61.724C460.787 61.78 460.451 61.8593 460.18 61.962C459.788 62.102 459.494 62.312 459.298 62.592C459.102 62.8627 459.004 63.1893 459.004 63.572C459.004 63.8053 459.042 64.0247 459.116 64.23C459.191 64.426 459.308 64.58 459.466 64.692C459.746 64.916 460.12 65.028 460.586 65.028C460.913 65.028 461.212 64.9627 461.482 64.832C461.762 64.7013 462.005 64.5147 462.21 64.272C462.416 64.0293 462.574 63.7307 462.686 63.376C462.798 63.012 462.854 62.5967 462.854 62.13V61.654ZM458.864 59.204C458.818 59.232 458.771 59.2413 458.724 59.232C458.687 59.2133 458.668 59.1807 458.668 59.134V58.602C458.668 58.4713 458.734 58.3733 458.864 58.308C459.191 58.1307 459.536 58.0093 459.9 57.944C460.274 57.8693 460.68 57.832 461.118 57.832C462.052 57.832 462.733 58.056 463.162 58.504C463.592 58.9427 463.806 59.61 463.806 60.506V64.02C463.806 64.3 463.811 64.552 463.82 64.776C463.83 64.9907 463.844 65.2007 463.862 65.406C463.862 65.5367 463.797 65.602 463.666 65.602H463.162C463.032 65.602 462.966 65.5367 462.966 65.406V64.328C462.77 64.804 462.439 65.1727 461.972 65.434C461.515 65.6953 461.016 65.826 460.474 65.826C459.532 65.826 458.841 65.5507 458.402 65C458.253 64.8133 458.141 64.5987 458.066 64.356C457.992 64.104 457.954 63.8567 457.954 63.614C457.954 63.0447 458.085 62.5547 458.346 62.144C458.617 61.7333 459.028 61.4253 459.578 61.22C460.25 60.9773 461.282 60.856 462.672 60.856H462.854V60.436C462.854 59.848 462.719 59.4 462.448 59.092C462.187 58.784 461.744 58.63 461.118 58.63C460.698 58.63 460.302 58.6767 459.928 58.77C459.555 58.854 459.2 58.9987 458.864 59.204ZM467.179 65.406C467.179 65.5367 467.114 65.602 466.983 65.602H466.367C466.236 65.602 466.171 65.5367 466.171 65.406V54.668C466.171 54.5373 466.236 54.472 466.367 54.472H466.983C467.114 54.472 467.179 54.5373 467.179 54.668V65.406Z" fill="black"/>
<path d="M40.924 106.678C41.4933 106.911 42.0813 107.028 42.688 107.028C43.192 107.028 43.6073 106.907 43.934 106.664C44.2607 106.412 44.424 106.076 44.424 105.656C44.424 105.413 44.3307 105.18 44.144 104.956C43.9667 104.723 43.7473 104.531 43.486 104.382C43.1967 104.223 42.898 104.074 42.59 103.934C42.2913 103.785 42.002 103.631 41.722 103.472C41.386 103.285 41.1387 103.057 40.98 102.786C40.8213 102.506 40.742 102.217 40.742 101.918C40.742 101.573 40.8073 101.269 40.938 101.008C41.0687 100.747 41.246 100.527 41.47 100.35C41.694 100.173 41.9553 100.042 42.254 99.958C42.5527 99.874 42.87 99.832 43.206 99.832C43.5607 99.832 43.8687 99.8507 44.13 99.888C44.3913 99.9253 44.6527 99.9813 44.914 100.056C44.97 100.075 45.0167 100.103 45.054 100.14C45.1007 100.177 45.1193 100.229 45.11 100.294L45.068 100.714C45.0587 100.789 45.0307 100.835 44.984 100.854C44.9373 100.873 44.8907 100.873 44.844 100.854C44.6107 100.77 44.3773 100.714 44.144 100.686C43.9107 100.649 43.6307 100.63 43.304 100.63C42.2213 100.63 41.68 101.059 41.68 101.918C41.68 102.105 41.75 102.282 41.89 102.45C42.0393 102.618 42.2867 102.786 42.632 102.954C42.9307 103.103 43.2247 103.248 43.514 103.388C43.8033 103.519 44.116 103.677 44.452 103.864C44.7413 104.023 44.9793 104.265 45.166 104.592C45.362 104.919 45.46 105.273 45.46 105.656C45.46 106.029 45.3853 106.351 45.236 106.622C45.0867 106.893 44.886 107.117 44.634 107.294C44.382 107.471 44.0927 107.602 43.766 107.686C43.4393 107.779 43.1033 107.826 42.758 107.826C42.5527 107.826 42.366 107.821 42.198 107.812C42.0393 107.803 41.8853 107.789 41.736 107.77C41.596 107.751 41.4513 107.728 41.302 107.7C41.1527 107.672 40.994 107.635 40.826 107.588C40.6953 107.541 40.6347 107.457 40.644 107.336L40.7 106.818C40.7187 106.669 40.7933 106.622 40.924 106.678ZM48.2296 107.406C48.2296 107.537 48.1643 107.602 48.0336 107.602H47.4176C47.2869 107.602 47.2216 107.537 47.2216 107.406V100.224C47.2216 100.093 47.2869 100.028 47.4176 100.028H48.0336C48.1643 100.028 48.2296 100.093 48.2296 100.224V107.406ZM47.0396 97.382C47.0396 97.1953 47.1049 97.0367 47.2356 96.906C47.3663 96.766 47.5249 96.696 47.7116 96.696C47.8983 96.696 48.0569 96.766 48.1876 96.906C48.3276 97.0367 48.3976 97.1953 48.3976 97.382C48.3976 97.5687 48.3276 97.7273 48.1876 97.858C48.0569 97.9887 47.8983 98.054 47.7116 98.054C47.5249 98.054 47.3663 97.9887 47.2356 97.858C47.1049 97.7273 47.0396 97.5687 47.0396 97.382ZM51.6342 107.406C51.6342 107.537 51.5689 107.602 51.4382 107.602H50.8222C50.6916 107.602 50.6262 107.537 50.6262 107.406V96.668C50.6262 96.5373 50.6916 96.472 50.8222 96.472H51.4382C51.5689 96.472 51.6342 96.5373 51.6342 96.668V107.406ZM56.5088 103.402L59.5328 107.406C59.5608 107.453 59.5702 107.495 59.5608 107.532C59.5515 107.579 59.5188 107.602 59.4628 107.602H58.8608C58.7675 107.602 58.6835 107.588 58.6088 107.56C58.5342 107.532 58.4735 107.481 58.4268 107.406L55.9068 104.074L54.9688 105.124V107.406C54.9688 107.537 54.9035 107.602 54.7728 107.602H54.2128C54.0822 107.602 54.0168 107.537 54.0168 107.406V96.654C54.0168 96.5233 54.0822 96.458 54.2128 96.458H54.7728C54.9035 96.458 54.9688 96.5233 54.9688 96.654V103.948L58.1608 100.224C58.2915 100.093 58.4455 100.028 58.6228 100.028H59.2808C59.3368 100.028 59.3742 100.051 59.3928 100.098C59.4115 100.135 59.3975 100.177 59.3508 100.224L56.5088 103.402Z" fill="black"/>
<circle cx="15" cy="107" r="15" fill="#BE9191"/>
</svg>
