<svg id="Capa_1" enable-background="new 0 0 512 512" height="512" viewBox="0 0 512 512" width="512" xmlns="http://www.w3.org/2000/svg"><g><path d="m465.087 152.967 21.153-17.626c21.04-17.53 30.309-46.015 23.614-72.569-6.725-26.675-27.618-46.816-54.524-52.562-16.182-3.457-33.039 1.248-45.091 12.588l-26.708 25.128c-36.801-27.102-81.699-41.926-127.531-41.926-45.834 0-90.729 14.821-127.531 41.925l-26.708-25.128c-12.052-11.339-28.91-16.047-45.091-12.588-26.906 5.746-47.8 25.888-54.524 52.563-6.695 26.554 2.575 55.038 23.614 72.568l21.153 17.626-2.924 3.543c-15.488 18.766-24.017 42.5-24.017 66.83v66.131c0 40.178 14.409 79.099 40.574 109.593 24.371 28.404 57.518 47.841 94.043 55.309 16.039 31.624 48.252 51.628 84.261 51.628h34.301c36.009 0 68.222-20.004 84.26-51.628 36.526-7.468 69.672-26.904 94.043-55.309 26.165-30.494 40.574-69.415 40.574-109.593v-66.13c0-24.331-8.53-48.065-24.017-66.83zm-3.063 113.995c-22.221 20.263-52.598 29.18-82.419 23.915-8.156-1.439-15.938 4.009-17.377 12.167-1.439 8.159 4.009 15.938 12.167 17.378 7.382 1.302 14.785 1.939 22.143 1.939 22.818 0 45.139-6.156 64.669-17.7-1.418 13.182-4.664 25.821-9.502 37.646-21.23 10.537-45.293 12.971-68.261 6.818-8.004-2.139-16.228 2.604-18.371 10.607-2.144 8.002 2.604 16.227 10.606 18.371 10.89 2.917 21.966 4.361 32.986 4.361 6.38 0 12.74-.486 19.034-1.45-20.75 23.562-49.612 40.029-82.969 45.16-5.247.807-9.676 4.326-11.648 9.255-9.859 24.646-33.384 40.571-59.932 40.571h-34.3c-26.548 0-50.072-15.925-59.931-40.57-1.971-4.929-6.401-8.448-11.648-9.255-33.36-5.132-62.224-21.601-82.975-45.168 6.296.965 12.657 1.458 19.04 1.458 11.018 0 22.098-1.444 32.986-4.361 8.002-2.145 12.75-10.369 10.606-18.371s-10.368-12.747-18.371-10.607c-22.966 6.155-47.03 3.719-68.261-6.818-4.838-11.826-8.085-24.466-9.503-37.65 19.531 11.543 41.849 17.703 64.669 17.703 7.355 0 14.763-.639 22.143-1.939 8.158-1.439 13.606-9.219 12.167-17.378s-9.222-13.607-17.377-12.167c-29.821 5.261-60.198-3.653-82.419-23.915v-43.622c0-17.379 6.092-34.332 17.155-47.736l12.427-15.056c5.256-6.368 4.377-15.786-1.966-21.071l-32.623-27.183c-12.231-10.191-17.62-26.751-13.728-42.188 3.91-15.509 16.056-27.218 31.699-30.559 1.417-.303 2.845-.45 4.265-.45 5.148 0 10.171 1.949 13.996 5.548l36.088 33.954c5.472 5.148 13.91 5.455 19.743.716l2.325-1.889c28.97-23.549 64.594-37.765 101.643-40.804v25.02c-25.552 2.127-49.33 9.648-68.12 21.745-6.966 4.484-8.977 13.767-4.493 20.732s13.767 8.977 20.732 4.492c14.394-9.267 32.733-14.84 51.88-16.749v25.099c-15.934 2.161-31.226 7.783-43.799 16.889-6.709 4.859-8.209 14.237-3.35 20.947 4.859 6.709 14.238 8.21 20.947 3.35 7.411-5.368 16.523-8.944 26.201-10.749v23.602c0 8.284 6.716 15 15 15s15-6.716 15-15v-23.6c9.678 1.805 18.79 5.381 26.201 10.749 2.659 1.926 5.736 2.853 8.787 2.853 4.646 0 9.227-2.152 12.161-6.202 4.859-6.71 3.359-16.088-3.35-20.947-12.573-9.106-27.865-14.728-43.799-16.889v-25.1c19.147 1.908 37.486 7.482 51.88 16.749 2.512 1.617 5.324 2.39 8.105 2.39 4.93-.001 9.759-2.429 12.626-6.882 4.484-6.966 2.473-16.248-4.493-20.732-18.786-12.098-42.564-19.619-68.116-21.747v-25.02c37.049 3.039 72.673 17.255 101.646 40.805l2.324 1.888c5.833 4.741 14.27 4.435 19.743-.716l36.087-33.954c4.88-4.592 11.707-6.5 18.262-5.098 15.642 3.341 27.789 15.051 31.699 30.56 3.892 15.437-1.497 31.996-13.728 42.188l-32.623 27.183c-6.343 5.285-7.222 14.703-1.966 21.07l12.426 15.057c11.063 13.404 17.155 30.357 17.155 47.736v43.621z"/><path d="m311 196c-8.284 0-15 6.716-15 15v60h-80v-60c0-8.284-6.716-15-15-15s-15 6.716-15 15v75c0 33.448 23.588 61.477 55 68.365v28.025l-30.122 27.54c-6.114 5.59-6.539 15.078-.949 21.191 5.589 6.114 15.077 6.539 21.192.949l24.879-22.746 24.878 22.746c2.878 2.632 6.503 3.93 10.117 3.93 4.065 0 8.116-1.643 11.075-4.879 5.59-6.113 5.165-15.602-.949-21.191l-30.121-27.54v-28.025c31.412-6.887 55-34.916 55-68.365v-75c0-8.284-6.716-15-15-15zm-55 130c-16.753 0-31.124-10.357-37.071-25h74.141c-5.946 14.643-20.317 25-37.07 25z"/><path d="m371 197c-8.284 0-15 6.716-15 15v20c0 8.284 6.716 15 15 15s15-6.716 15-15v-20c0-8.284-6.716-15-15-15z"/><path d="m141 197c-8.284 0-15 6.716-15 15v20c0 8.284 6.716 15 15 15s15-6.716 15-15v-20c0-8.284-6.716-15-15-15z"/></g></svg>