<?xml version="1.0" standalone="no"?>
<svg xmlns="http://www.w3.org/2000/svg" xmlns:xlink="http://www.w3.org/1999/xlink" width="292" height="313"><defs><filter id="pencilTextureFilter" x="0%" y="0%" width="100%" height="100%" filterUnits="objectBoundingBox"><feTurbulence type="fractalNoise" baseFrequency="2" numOctaves="5" stitchTiles="stitch" result="f1"/><feColorMatrix type="matrix" values="0 0 0 0 0, 0 0 0 0 0, 0 0 0 0 0, 0 0 0 -1.5 1.5" result="f2"/><feComposite operator="in" in="SourceGraphic" in2="f2" result="f3"/></filter><clipPath id="clip0_1"><rect width="292" x="0" y="0" height="313" transform="matrix(1 0 0 1 0 0)"/></clipPath><clipPath id="clip1_2"><rect width="107" x="0" y="0" height="107" transform="matrix(0.96172 -0.274035 0.274035 0.96172 160 48.3218)"/></clipPath></defs><rect fill="white" width="292" height="313"/><g filter="url(#pencilTextureFilter)"><path d="M235.94744013667787 130.54034301328636 C235.94744013667787 130.54034301328636, 235.94744013667787 130.54034301328636, 235.94744013667787 130.54034301328636 M235.94744013667787 130.54034301328636 C235.94744013667787 130.54034301328636, 235.94744013667787 130.54034301328636, 235.94744013667787 130.54034301328636 M237.48743735562778 135.7826473330282 C238.85082241571578 134.11484336071743, 240.00556838487768 132.16700413364552, 242.5410480370009 129.8743709628376 M237.5335822339442 136.22728132213086 C238.27742847719728 134.37118529241917, 239.90983650227471 133.8937587044686, 243.0365612246468 130.55423389191978" stroke="rgb(0, 0, 0)" stroke-width="1.3721332304904372" fill="none"/><path d="M242.51028482408563 135.63210171665332 M240.77 136.566 C241.7930021495422 134.98915748468588, 245.4034942752038 132.72869977680068, 242.07859407895714 132.29119293899606 M243.645 131.401 C244.7572376047107 128.93024015606892, 240.70739002270807 127.36869458341614, 238.89269353885683 130.48932985379753 M238.48 128.526 C236.0059793676992 129.87534189420546, 236.0643810874334 132.0745980982338, 235.17793878998532 132.011173422927 M235.605 133.692 C237.60198095537257 137.7066057948914, 237.43276582571082 137.7381627574433, 241.52612965818153 134.63395600555748 M240.77 136.566 C240.77 136.566, 240.77 136.566, 240.77 136.566" stroke="rgb(0, 0, 0)" stroke-width="1" fill="none"/></g><g filter="url(#pencilTextureFilter)"><path d="M199.87219357516108 39.654420467454614 C199.87219357516108 39.654420467454614, 199.87219357516108 39.654420467454614, 199.87219357516108 39.654420467454614 M199.87219357516108 39.654420467454614 C199.87219357516108 39.654420467454614, 199.87219357516108 39.654420467454614, 199.87219357516108 39.654420467454614 M197.29514710171497 48.53319401983695 C202.41874426901546 40.551735856302585, 206.9452211564374 36.792123816275804, 212.34025145615266 33.1107200384824 M198.73465861564378 47.38883387914225 C202.15778081051678 42.269366783488366, 207.33309591904327 38.87742943578317, 213.201163967764 33.99063694123166 M190.47358918167293 56.563526793276516 C200.26467519795472 52.771403907067025, 204.1475682209203 45.70856805702477, 219.68783398804308 32.861606423226846 M191.365890202414 58.811140186062076 C199.19327133564644 50.10945701006379, 206.92759647130296 43.19486618809694, 219.29305674177763 33.010078329489545 M187.9697830117208 69.39399772681787 C192.6131466615711 62.85286112918413, 199.22954676956306 60.003392353035146, 201.8136645381984 56.360280261502915 M188.46376979074122 68.48854207638345 C192.37183534311706 63.97141927642648, 196.0637898592043 59.57001416240166, 200.20756615468093 55.98439050347234 M211.62457582972843 46.13147655875877 C216.9007848602469 42.62729538778007, 221.14567739765513 38.213755446788966, 225.38578733871572 34.82640692053191 M210.68752118538242 45.948461452271495 C215.01863660094415 42.09693727147899, 220.62079779140655 38.62924911359455, 225.69541979222132 34.71112216100734 M188.27989495378532 71.93779239393822 C191.86517478346732 69.55571526861893, 196.1758191284896 67.51045589868811, 198.6469346675127 64.42486511546895 M188.73165426033717 71.94865126716584 C191.82633827888873 70.33539019971813, 194.27594165184647 67.45780317049272, 198.11427243251353 64.75806879794935 M223.29505090866718 41.13214354354233 C226.91604331894249 38.91752174263661, 229.65043421820494 36.43718001228805, 230.65317139171515 34.194880307828264 M223.5360381408906 40.906340862768175 C225.71567948603305 39.93914530739567, 227.51391476343196 38.209199451391335, 231.61667466803127 34.69096012458251 M191.13670177369866 76.32849183604424 C194.52474120269252 73.12051666818398, 197.11510801616106 70.76661335435676, 199.06336603510897 69.70520643623347 M191.60268419603838 76.57314760049763 C193.8080979061085 74.13143326871801, 196.45750291993113 71.20160857088358, 198.19576831394926 69.93229813226844 M229.1714304768596 43.661930408705075 C229.94312191548522 41.540672720668276, 232.12848665407734 39.56649047451851, 234.63793087819946 36.51502292077174 M228.42056373256946 43.09298961516851 C229.83935732774623 41.60261692063934, 231.72042275807462 39.56423805184285, 235.46602863817895 36.41520872608995 M232.65274883091195 45.37241785551802 C234.6841912295359 42.35269638108021, 236.55344777879787 41.407536000538364, 238.8638298826648 39.27270310594796 M232.2874680976644 44.437653368635694 C234.23841026960199 43.12478579604549, 236.53533035972396 42.12427164129083, 239.62751889411308 38.40403771097076 M236.1098292479351 46.705925561393634 C237.52273198841257 45.4166142280842, 240.13717986235 43.19664610471421, 243.4747975430833 40.56241305469926 M236.05914418829923 47.264722524117104 C239.36918704063962 44.69229374844048, 241.27326943832355 42.94325629728826, 242.72148906236123 41.12834961380967 M240.61867635904005 50.44821891508463 C240.7424578500185 49.102406766141115, 241.6126440098781 47.05225801245015, 244.49745965585797 44.74174607105543 M239.82897375854725 50.01880411141335 C241.15924951564185 48.670359684429904, 243.09638389122136 47.19217059748858, 245.3753246810703 45.4102853434295 M241.01069089380994 53.48267215256964 C242.64236033803607 52.11924081393886, 244.97231770161872 51.60726218833772, 247.6930008741705 48.34744863536762 M241.36456328141765 54.70698638353295 C242.6997880569097 52.996828378494634, 244.58828264287132 51.871606201448266, 248.30112234538618 48.316630060760176 M243.7212411109155 57.80190343536483 C246.00917366529976 56.42297073348225, 247.9247170066848 53.953668929879115, 250.71335331303615 51.4531023930757 M243.13705580466618 57.90410150498474 C246.4395719240684 55.991214953003116, 249.55850291991501 53.03499839901724, 251.14948954131432 51.35315300325834 M246.48567785142882 61.83188481446326 C249.09071841000906 59.23541914142715, 250.37503439811306 57.06700080836465, 252.98498871245206 55.62166121804399 M246.55228920764262 61.07733725532479 C248.2007450423432 59.6345308031021, 249.6676641058718 58.33876880844053, 251.9876009797424 56.38339812799652 M246.22055830465715 66.21321401433265 C249.4416943300814 65.18133567808805, 251.83853830298779 62.21985173110546, 253.0464750770229 60.517679023426425 M247.06456368973005 66.75160822451014 C249.05137157609562 64.61894153006283, 251.42783789035207 62.59151649712978, 252.5856273237169 61.13780018911693 M246.1021536099465 72.93740736535813 C248.89017520072406 71.04018896757573, 249.50230734834054 70.27519480591351, 252.87576974234105 67.05861444969918 M247.25579759483077 72.65229600125433 C248.91108493577295 70.10795792900188, 251.92062974271755 68.2250342556825, 253.4052412410093 66.53697050180295 M233.11009523515278 90.97949254916786 C239.5034689349794 81.87586792757821, 249.42695354596668 76.32603350943448, 252.05800825184127 72.34622724301052 M232.65647492092205 91.15162539912669 C237.90797160504135 87.6129447400387, 241.97799959149162 82.4943116842544, 252.66469048556198 72.37369577334414 M231.29704597382064 99.8231045669325 C239.20178712399587 91.01315101331825, 244.28544392281466 85.07491762016711, 255.623749294966 76.96953351666289 M229.8952910319792 99.72700247145652 C238.79684682354687 91.9477354985406, 245.34161434869756 85.86775891950636, 254.97100276654265 77.19717619954953 M229.39853450557717 103.9561293561833 C233.30816346308393 101.71361718882291, 235.25546731307367 99.6895883135209, 236.55180535216155 99.05923069594006 M229.98033883591057 104.82052438752059 C232.2392735488442 103.23806929239582, 234.30992053730512 100.94416732159132, 237.1485558948792 98.29091074214676 M232.163122039938 108.81321754356607 C232.79091170393497 108.21197169175883, 234.71304747803987 107.0730404278682, 236.68193086445177 104.07806661579755 M231.8274635642114 109.56217983706202 C232.49072167475134 107.8797896104159, 233.85112562914142 106.92650382763088, 236.81173970933386 104.70263978883385 M231.78071980130386 114.84450208636119 C233.85719296478737 112.00289542636172, 234.71296741495192 111.98319221251907, 239.11915495849908 108.66310095178889 M232.66907145669074 114.14119399822036 C233.87892388694675 113.16713280417429, 235.85259120686416 111.32349128855827, 238.5054766649039 108.70128681000199 M233.7916184567595 119.16498782701076 C236.510656894751 117.3267459489644, 238.80600076990865 114.19159410841135, 240.07993567212156 112.63634298087929 M232.70045564220453 120.02853857507564 C235.34826584364666 116.54991961905073, 238.30198330180943 114.79742290812445, 239.9233911579102 112.97483273041287" stroke="rgb(0, 0, 0)" stroke-width="2.9309666123691547" fill="none"/><path d="M253.58839984353895 55.72223532779886 M251.924 55.9792 C246.9278465020263 38.27426131844752, 228.6024117529934 29.701554787244667, 212.09130736359378 34.304179491667554 M211.449 33.6618 C194.94807027855995 38.806789798916796, 182.40868487555028 58.621675001549505, 187.33185792597905 73.27868635895288 M188.886 74.2076 C189.96259578934627 76.15791504147658, 191.62455025296103 78.62131202426946, 193.8493634953211 75.54343907964825 M194.051 77.0819 C195.69745315909196 76.45633465766039, 198.27621377949595 72.66895111536412, 195.5355928119734 71.48200876340479 M196.925 71.9169 C193.8832308780669 60.74631621029607, 200.72286358007742 46.64953892023564, 213.05541006981562 41.898486118774265 M213.74 41.7012 C224.87158969631878 39.66042704027842, 240.5767584508034 45.984975642381606, 244.04827896214152 57.70577374360654 M243.955 58.5159 C244.91529396362196 58.15876364497373, 243.19079269271765 57.06786247727469, 245.52961172097466 58.392064710874074 M244.022 58.7278 C244.68722632069876 66.13968461034214, 244.6890191310504 79.21362530113495, 234.15684239070353 85.6187049390663 M235.836 84.2379 C229.00209298922212 89.9910503394786, 225.49751828550978 101.13688121160264, 229.83634865983603 109.34614957452159 M229.13877203833079 109.08175902039245 C229.60902845317278 109.86558566277515, 230.1293295031254 112.44086019816926, 230.08352669428598 116.74807217541057 M231.024 117.613 C230.28310610240672 120.47645138522618, 232.257903033837 122.81369380029123, 235.67489149306456 121.94401292118506 M236.189 120.487 C239.8541268381297 121.12122393866345, 238.5844483802644 119.50895522259263, 239.0984159531794 117.28719783805248 M238.70694457664277 114.47971892600438 C238.6802688127428 112.00620802552845, 237.2002284660723 108.89832157744682, 235.9352059723811 105.664576742313 M236.404 105.989 C234.2587920258762 99.36836174501494, 237.40460038254741 92.65194038510457, 242.95350650829081 89.45020244867096 M241.1 90.7323 C252.11377873292028 83.44309823871744, 256.3991775959077 67.84714127817956, 252.82518684429297 55.81595070261275 M252.001 56.2223 C250.3837336216812 56.35315709437828, 251.65574296858696 54.370687786981456, 250.24587443210956 54.462498404642965 M251.924 55.9792 C251.924 55.9792, 251.924 55.9792, 251.924 55.9792" stroke="rgb(0, 0, 0)" stroke-width="1" fill="none"/></g><g filter="url(#pencilTextureFilter)"><path d="M91.08499172658681 61.54664583444319 C91.08499172658681 61.54664583444319, 91.08499172658681 61.54664583444319, 91.08499172658681 61.54664583444319 M91.08499172658681 61.54664583444319 C91.08499172658681 61.54664583444319, 91.08499172658681 61.54664583444319, 91.08499172658681 61.54664583444319 M68.75715217096929 91.46540815046794 C77.28078309038078 82.39026071472213, 87.83309286656947 70.24338067673999, 102.80564008447739 54.28195661907728 M68.3062063620976 92.4484372931014 C77.33139095869731 80.49661484354205, 89.35512433370884 67.58755779776816, 105.05512206562032 53.6369348800543 M58.5821626855942 105.81450290743264 C78.37037278752997 87.94556793562396, 94.20000733962019 68.06983028485584, 112.09898047424167 52.369280169642686 M59.69111069847243 105.82153751919974 C70.89157449559006 93.2231573881694, 82.12411185180952 81.46032337425243, 109.81180887690465 53.22711835378938 M62.119858932460716 109.90692788613221 C72.59280872620144 96.0577505014652, 86.64530254969694 86.70603652487489, 118.97158251750014 49.987925814980564 M60.526422255660975 109.31897133725745 C80.43970955542483 89.96473673198516, 98.54766039891972 71.21031047681971, 117.89110317896758 49.47988456760021 M50.27974450728783 125.15520954527535 C50.906357328496206 124.74366899222724, 51.09181585664912 124.3637963700762, 51.739376472206764 123.74447563448553 M50.36422416174965 125.21769981474272 C50.74659696324503 124.6918842225796, 51.17045494287223 124.47306752202157, 51.868692132999996 123.68362855711415 M63.29783583592632 111.90580465133847 C81.71584360938267 93.21652893493565, 102.33715721112873 72.2015731079649, 122.55768977119493 49.439972354585635 M62.10525443247851 112.61467101307016 C83.70120120170637 91.24762336453469, 104.06706347378334 71.33667872199804, 123.85060556129714 49.31958497977585 M47.03690013030659 134.7350508834043 C51.854973408557726 130.48849317572984, 56.56637010241559 124.06078437531308, 56.051166223360426 123.65018384874618 M47.54111778371256 133.4193144080797 C50.90675931102729 131.09690282288585, 53.44276383696295 127.38797536228842, 57.83167798513214 123.26053607365623 M65.09409771835635 115.28579832566498 C77.9363094891446 100.99774790104165, 91.06006472377062 88.63527638525889, 128.2325780660831 48.02476780137141 M65.8037783146125 114.30579857864004 C78.32937235235835 102.16814527376937, 92.26489173938788 88.24792358553154, 129.67266951776244 50.0704297384311 M43.81619652843534 142.9248041664134 C49.57634668491134 136.7200797073515, 52.871156310743835 133.56144729231005, 60.5486054392513 124.93570516116203 M44.50226698549757 141.5211639908857 C48.99360358793934 137.2464010764181, 52.67798652674179 134.8863105793714, 60.33873733804747 126.99125120101462 M69.70404457417857 115.43392602733884 C90.35130785215567 95.43161711701478, 112.26774445197424 71.87392103957436, 134.72245614945086 46.846469531781786 M68.58582463802668 117.98045660364987 C92.6687425454258 91.87737471337373, 118.71668427734137 64.4048645006494, 134.37795730815935 48.35991128260015 M41.73900279768033 150.6352853209546 C48.47782208219436 145.26247072495636, 53.23091817515509 138.19688615953237, 64.70686740128649 128.36760154732528 M42.31440499251587 150.4250398912706 C46.81201348338799 144.13363092037793, 52.07414189441443 139.3556037689925, 62.41093068279831 128.15625601514472 M72.18295266903505 118.65643333076505 C90.02631154405402 97.19171601279423, 114.06053900756184 78.04529488807732, 136.83533341512063 51.93273686091777 M70.12036956267983 120.10437225007138 C93.6991485535169 97.40682840295048, 116.8409723631095 74.03738066665537, 138.99480881650416 50.59724467311943 M39.01610979812581 158.56570595987435 C46.75852072075936 148.5418555471072, 58.13841638490537 139.70178745356702, 64.8281440963921 129.66802136159143 M39.18507486476542 158.36626747262733 C48.448937114052484 147.60564597247543, 58.91611582496324 137.21800394366724, 66.41931236480092 130.1479062292674 M72.83086084256689 120.56310362477853 C97.97257852426465 95.97771070308477, 123.97214134320345 67.41309766938774, 142.16765971567122 51.6077393480036 M73.9081893820921 121.98768807337534 C93.31907707022454 101.96170605651947, 114.70199712502449 79.95112182347016, 143.2551511113886 50.59704277584716 M38.021775004105045 165.092157735314 C42.01104381641037 161.16267279992508, 49.416201446477814 152.27166905076965, 67.49356723004892 134.63184160286613 M36.86805630146741 167.3891118552147 C46.51694943412426 156.403742238365, 57.591859636254256 145.7774516328284, 69.63480868509036 133.51616704993936 M77.65467701237907 126.92334595790524 C97.85732635143111 102.67330000031555, 119.57779432998714 77.16396217633587, 145.2436909975746 54.081474264984834 M77.06495055172925 125.0670520989903 C102.82141537807884 96.67557365169134, 131.1285263267266 68.80356950878948, 145.9383100587617 53.844932424795964 M36.83883633257974 174.06716636709206 C46.69648808709615 164.07665263807542, 56.14147194168079 150.94578162757279, 72.15201574305428 137.3967623178378 M35.124153609501334 172.52431026622648 C44.374162905752264 164.71382510368855, 53.39441706653887 155.03821134707042, 71.33888824065545 134.82737473085373 M77.26796589509672 129.03529998750076 C103.41463251220313 103.84110627869859, 128.19142546966577 77.44606578392813, 148.8777109450901 56.26259239204359 M79.38114582509846 128.31346199997682 C104.72387237055234 99.28318385217626, 133.2833269746265 71.98084799096334, 149.27331787335365 54.2472295402238 M34.040928569214245 178.85390078570842 C47.16437997115027 163.75911842296202, 66.32563610711833 146.42153087396636, 75.15330709355852 136.74044965145728 M33.84962159088178 179.09921110058698 C45.74967385553476 168.81111629153895, 56.874844023645956 157.25239000775082, 74.78817478616742 138.34208480569075 M80.94210559831873 132.18166561870026 C101.76782774311127 112.94281784795622, 118.20721664665874 94.24489040037143, 151.564903505776 55.20923971406499 M80.68587408740922 130.31297804579697 C106.1030473066312 105.17163704284329, 130.5792707574689 79.96912941615312, 151.6952253003554 56.63218834770783 M31.5881675650309 186.7155840276516 C45.38769397392516 170.87379007191635, 58.469586316284065 159.88458952094064, 77.2954186503412 141.60313295005355 M33.28459954816513 186.86319620303695 C48.240339343447694 172.71697546786328, 61.59848804654908 157.8900573814305, 76.90266489048155 141.39076734073225 M90.09470906997815 126.5149356290633 C110.7881548037001 102.97088264374672, 135.5865713499453 80.19410593739127, 155.1051781739559 58.13755104049836 M88.40807550729122 127.37100011628925 C114.26833476400927 103.45868824558946, 140.06110762399334 76.78250975909123, 156.0012601556669 59.766161529259364 M30.757838213749064 192.30807448205167 C43.482624072884825 182.8611048007516, 52.30549120453349 172.08047771986102, 77.4253001190032 145.17550850846564 M32.31779536753393 193.04393334675356 C42.42998878819013 181.28707303987713, 53.01433496096185 170.35613776478473, 79.23979108054579 142.51161935523496 M95.47549421095812 127.54595044095684 C112.61802522625487 107.71757177964642, 129.98457272853875 92.57678830550334, 157.61876114761668 62.50728153865104 M96.97234749826181 125.36937363767103 C116.22762121733628 107.61956919877156, 134.0762792775291 88.42258286799256, 159.42612470852288 61.57497130261792 M33.291665520375645 196.01781710352657 C52.419276661585116 178.68987596749068, 72.11164339099443 157.4659529391498, 88.2896558326049 140.8487828227593 M32.430318603283254 197.2322665525486 C50.02900132060181 180.71156507098365, 67.90788795537952 161.65686094272027, 86.16539972918918 140.20934366831364 M105.53820255591626 121.72547900941831 C117.91121177368586 111.01785157445124, 133.27718320959593 96.99041522051436, 159.93085793424305 62.853201063312724 M103.25005332735586 123.32857856394607 C123.0108973837938 102.21864898426558, 144.54178600230927 81.9019907765705, 161.78983007080316 64.24548322761987 M31.84748736053426 202.55333912266073 C54.42927881949412 181.14749234700497, 73.92813257313877 159.3740555015098, 95.7187805993264 140.2222818136123 M31.597117679286963 204.55607838862147 C43.534812026964985 189.65567517412387, 55.65450584471115 175.9388100845835, 94.21103279130531 138.44085465006543 M110.06169278479086 123.73923962762069 C126.41456062079689 104.04761614009496, 144.5960877638523 86.15383299785897, 164.52849445227315 66.2695160521373 M109.65355642062258 121.73228948786222 C123.48124837440086 108.36330244942961, 135.37653577925477 96.10137922562399, 164.4454075372659 65.7701905100924 M32.45877931820818 207.51778896408692 C49.03001003512013 188.7989114686318, 66.85224824504928 172.61858900488045, 103.74777279580243 135.85502120102691 M34.594234424059636 206.6356814015488 C50.138297850053895 189.15789522059575, 66.87962907947276 172.5962895759922, 103.33719376629348 134.84839840518623 M115.28968010501696 123.90505991633984 C134.28269889209892 101.78225300845908, 155.51075749977505 80.43718300782776, 166.5667014470502 70.168699845114 M113.84951801728161 123.87936730413176 C135.3195986688892 101.49930912398034, 157.64828569824047 78.7350961285591, 167.59632064281996 68.41054546520897 M33.396374488545966 210.01605501208803 C50.07038665834774 195.46171328329558, 67.74594373528052 175.22427939265856, 106.76615080575475 136.1235579509915 M33.66352584514392 210.9264433474863 C57.515026186385896 185.7931349678575, 82.3189458747011 161.79481929830382, 108.51613800692324 134.39746953164158 M118.04216238800679 123.92507031886025 C129.92391806609916 111.13299394663412, 148.39196555339143 97.46407897677162, 170.3018641294609 72.5106213390877 M117.19932415742444 126.36781427308523 C137.05637528348157 105.0273457601525, 154.66317738862912 86.02368494898289, 170.87587748913322 70.79681387678255 M35.38146552645487 214.699128272215 C59.16686574192305 190.28162079800967, 86.28387148334191 162.52965296518306, 108.62107483448918 137.00410489733957 M35.42951229181687 215.54195368220812 C54.11205092490545 196.86697004863345, 72.05806162178968 178.57174691844347, 110.79086205572742 137.60992258381626 M119.9463918874709 130.81655651145337 C135.61762882502265 110.67433589169848, 150.84568610594553 95.06659261074505, 171.18539948739613 75.53810304086434 M120.08047405172213 128.95891678014735 C135.3921857831483 112.66991520893251, 150.32271261810413 96.1876413318587, 171.79021739144534 74.04218540766853 M35.505235936421705 219.24912889065627 C54.303249317336814 201.13427849757315, 71.59000736032196 179.20549145120043, 112.77618749631786 140.33557408985587 M35.75236516184839 220.29768861734277 C64.39873078719924 192.42961913802478, 91.15264216746087 164.19247889931003, 111.53377418600908 140.74380104997738 M119.52689579300484 133.65572744933095 C137.3507667579032 116.43179014152297, 154.3319974685736 100.1312649558026, 173.7814048465969 75.93232433427642 M120.3260871779951 133.421675949736 C133.48450589545004 119.12624576837273, 149.90362288413078 104.12980455639895, 174.5987189501655 77.23635757024037 M39.043767634085924 226.24524422447155 C65.45771376191773 199.67780344494454, 92.50630255811834 171.27127132251954, 112.40343355744227 145.9971234131009 M36.292453810220024 225.70264046425984 C64.47049500672193 195.25421195352757, 91.91314938855565 167.98682012980726, 114.5975720206651 144.7295574696739 M121.64395534837857 135.36609939523302 C142.04699287571407 113.79857620246945, 163.82450724728974 93.17193670606221, 175.83729559382917 79.23716471699389 M122.46362208463204 136.16426744448117 C135.62488349865552 122.90162010826579, 146.67719451668418 112.13645746946966, 176.59977521720447 80.52587190479848 M38.380500045804375 230.2735663760829 C66.113840291536 202.31209646382297, 90.87171080367402 176.62097904810457, 115.55680878676803 146.65728117388957 M38.29704624404634 230.00701421288335 C51.93594175773507 214.877596750397, 68.78315589675515 198.40729539957394, 116.88318552878431 148.43472777593092 M124.43371111591308 137.68969742474158 C137.7612024919967 127.69707862737864, 146.5554305296703 113.60075700117652, 178.8794479485027 84.51108405013001 M124.46782095924212 139.22126432339522 C137.248831792092 126.08996243602678, 148.98968173771183 112.75507943209293, 179.9281023285898 82.66251819545106 M39.91001912578471 232.42164809674986 C54.39961727073667 215.9005340007534, 72.12448037073179 197.74222724821382, 117.5401936294316 151.63265955062388 M38.29426515156529 235.251456786137 C66.88094155645645 204.3688618276693, 97.06392230758351 175.40527671779407, 119.06268975692115 151.26080579384592 M125.83664886729694 142.99608489676226 C144.442175040599 125.01802559007342, 165.32157187540858 103.35129104940994, 182.8212599069006 85.366744265401 M125.53928640731542 144.6093719091904 C139.28865270635382 131.02749111671366, 153.0167207392727 117.46975495565933, 181.6348668972274 85.95133397646262 M40.49452621582839 239.03561866167607 C89.09309280276483 186.2937553001771, 140.2042481028426 131.32650507229354, 182.7960342311907 87.92815408890863 M39.77069568617955 238.79038555467082 C85.7521099563735 188.95602071876326, 133.40853028165256 139.29611860455813, 183.5386252061848 88.63393908276568 M41.16801053562555 240.5935338261976 C72.76328471928483 208.35856482584722, 105.68220662652394 173.12107598041885, 184.7748405246548 92.36600016362141 M42.35410406801265 242.06562159997125 C87.61987379237259 192.8531453143835, 136.27761759733022 141.84827149574573, 186.07605011655514 93.33470377687654 M43.1869207949264 247.17897536797477 C97.21876297996289 188.88588533003823, 150.17770050105628 132.38276290660272, 187.49887318817468 94.56158387395334 M43.0805531436265 246.37029654333378 C96.5408457675838 188.52918849999315, 149.0986284713111 134.33158270861028, 187.81631438635168 96.27387309408735 M44.2428379894472 250.24152470843345 C95.18547969622551 196.97543927403296, 148.1028078748465 141.62869810489522, 190.38152091325253 100.69565822396864 M43.64589352000754 248.98994090649097 C80.66324777520563 212.76400073471538, 117.6889636954136 175.76210086975127, 188.57428203823014 98.99514213237988 M45.2946235269848 253.0960623115468 C88.67294918897461 211.6291302690967, 130.74357251003465 171.0511586717853, 192.3682213961796 101.6663450599423 M46.2485959729745 253.37230828687083 C99.63908539885477 195.77627023535405, 152.19843738345674 143.1138629616453, 192.1255438240478 103.24520574750785 M49.71766020140514 255.6187596907728 C89.81791475068486 218.47713381338096, 125.40072489426878 181.15752438194423, 194.1127560187051 104.96454022013656 M48.0189718045308 256.361255769337 C81.28101312512163 223.95265275002498, 113.92085060075428 189.70471209986297, 193.74425867496296 106.52341107785162 M49.5723793077496 260.3622157405704 C99.27999943726611 211.84427647527446, 147.36480667625014 159.1119324258203, 195.6269644138618 110.0025195701869 M49.63204694935438 259.49803482798467 C100.09145657917907 204.96344891449206, 152.4069806353811 150.98629567609407, 195.02379696452795 108.71939737708277 M53.09019924225249 263.8073707265327 C95.22285916336142 217.67007735326715, 135.11008621740584 174.06403909824652, 195.77621423460562 113.33926712990146 M51.915913108068175 261.54976473556036 C101.05941078318409 212.3511819495569, 150.95183903098078 159.70374962136108, 195.80750852475376 113.67580891885687 M55.865482016397586 264.4328741396644 C87.20190601592817 234.08968982218306, 116.73905011368663 202.0990148693414, 197.61276181064878 116.62773088294334 M54.0876414607225 265.9973071577813 C98.85727419705375 220.1429128541193, 141.84011419089845 174.8518938801808, 197.82133882246563 117.27535166152863 M57.185021810279125 267.2258344530678 C100.20987474902422 216.50062636962204, 146.78604093866332 170.67836477140025, 198.65901033303632 118.97085637321267 M58.23203750053484 268.47341186282836 C110.83557946630516 212.10698139668898, 162.85583940956337 159.0217516158431, 199.72651716123903 121.12272589320473 M59.05690597419703 271.16885589483263 C107.86095923913562 222.76325946926687, 152.16524439237764 177.02622443654167, 203.00819109950942 124.22130614524613 M60.95538259845641 271.4337208329376 C88.23532356672335 238.39905809754043, 119.09230581972888 208.1106445770339, 201.88641455432125 123.75775108244444 M64.39005815239037 272.61702547995077 C89.24730339507559 245.26105720355147, 117.72469315560511 213.66978051262134, 137.92278371900156 197.13435307731189 M62.17919050934681 273.2391952233227 C85.920269408006 250.246873507701, 106.83186453514713 229.57042470398744, 137.83230812991118 195.55730250368583 M136.18839751453012 196.24298993121732 C160.06170760130738 174.09448136157104, 183.01198374350838 150.85488175922117, 204.72095782298067 129.42364815592103 M137.93180444644042 195.5254761935432 C152.84807415266368 182.37870653977868, 166.75305098007536 168.51970097268264, 202.38866717684303 127.18773405877552 M67.2165282207188 276.67407991947806 C87.20446405511835 252.8312456133859, 111.83496580440195 228.49990653719425, 138.68755990853583 200.52982985021666 M66.26544277950379 275.19290562948595 C89.58335705604233 251.56398633040058, 111.1799920794466 228.24911265108744, 137.10514376218592 201.013433697769 M143.30885099807236 194.25224766075766 C161.52801078003424 176.45779929276523, 177.54450190317647 160.13443190809318, 202.6160445945629 133.46187504295355 M142.65092800205863 195.31695774757705 C157.0863368509361 179.36385406778697, 172.50909105253317 163.95919912066753, 205.16452651660848 132.16400045122484 M68.07336573224475 278.00216227447237 C89.44330727530101 254.6744428930356, 112.1113654985263 229.58089268976317, 138.46873954723793 203.84235510720453 M67.9747147070117 277.53471218169693 C88.45942796619035 258.4472184454478, 108.13280631983268 237.86995606061876, 140.64205675177283 203.54242446609092 M147.7421930553798 197.83646835259694 C163.3141624760448 176.95884574504072, 182.11726387763824 157.30553944157765, 207.8060942199798 137.3428332225397 M147.5891124351465 197.01469388189005 C166.51868990502757 173.99278137959345, 188.35629571051385 153.80083855903655, 207.3673149763771 135.98790168833315 M70.20344358691955 280.4014854801142 C102.19386120323874 250.00953405652064, 129.71019929010973 221.7832809803347, 142.1213658694964 208.23704859734457 M70.69128668808865 280.976725178976 C96.84113169591454 253.61574016796058, 124.50620147725955 225.3814068014229, 142.86982971259098 205.6869577295173 M152.68074129578167 198.18292236944953 C167.334180894629 179.45975358398468, 187.9331797467667 161.48267118451636, 207.93380340994764 139.4316447738378 M150.46897585859338 199.32694141789733 C170.3495243419454 177.49855713030803, 190.73877614493097 157.11943253307905, 207.85802014997407 138.3972453994977 M73.3516498702902 281.5390205506595 C90.6317339966789 266.7482282996798, 104.73644795328232 253.6872909694414, 147.48420603503868 209.0829546695659 M73.33523049522724 283.1302629048861 C97.70949805343592 258.3903863626354, 121.03648902279808 234.73389095463833, 146.77129680909707 208.64488755994677 M152.12605323446647 199.94530971636092 C171.97016836723822 184.27621618687522, 188.9234904050342 164.09054797253506, 208.748320289863 143.90501014390708 M153.39383450431222 199.62566457731128 C166.5313999996607 189.335888346075, 177.046275409221 176.8634850689766, 208.32068970333094 143.915350067067 M75.87479394536435 283.94086942063433 C102.19478259382194 255.66185198291308, 129.77727568446502 229.19318026756986, 149.95921883587235 211.1390234388237 M77.0636102908113 285.02134052820446 C106.18462391634837 255.1037712047977, 133.66492401133527 225.96284887171382, 149.01955481933996 210.1479018976934 M157.75161150760465 200.67558080863898 C164.11374661020136 197.67201785712606, 167.75174470409524 191.77660017889178, 181.76607819732558 177.14499487184574 M158.3294688147437 201.7153646850214 C165.49215804976313 194.37301503436643, 172.290795781004 185.33500832257292, 180.86316266577361 176.9174818985587 M182.76550280019015 173.2323567196053 C193.1011635700414 167.02197435999236, 198.62581491791684 161.7807970311905, 208.72059782073964 148.6546168776515 M184.1418043027488 175.4563617614706 C188.57872840287874 169.54933735412166, 193.84399531389374 163.4263855876724, 209.305805821421 147.2395982332143 M82.94501994594981 287.7451978977286 C103.60241629919321 268.630407692459, 120.7725600378641 246.01162212940037, 155.26848275880988 212.9939279425863 M81.65464644301466 285.8906173672773 C107.87394212634089 259.9147125170819, 132.765384432544 232.78686900358977, 153.31015200143432 212.16986384072874 M189.86481858523695 175.1040071368805 C196.80845801688147 169.440266216463, 200.13101048556067 162.41668816091598, 210.6748753940593 152.42903574803958 M188.0012947878618 174.77104004344187 C194.63403767508373 171.08807675549397, 198.41542188595682 164.23979928962936, 211.47082261390352 150.96068263068292 M85.90746369250937 289.12220371630195 C105.47730408864476 267.42247826736946, 126.0645021545942 244.53243109335318, 156.20859806117704 213.44482982378602 M84.41734621433955 287.52897845488974 C109.28472354533267 263.00309768548385, 133.9403612300186 238.02511433991577, 156.51901220558508 213.1053666022596 M192.6056617342267 178.7426399248649 C196.2685583670218 170.78021765244668, 202.73401140078388 164.0398376098184, 210.77460376208188 157.97811678018388 M190.3807377272733 178.56707071866248 C199.38099478050825 170.30430783937456, 207.02486246276015 162.3264625641391, 212.73716975208183 155.6971050923765 M86.96478561011332 290.274142256961 C109.07066830300765 270.8571814472536, 129.71740626555075 250.5071616757183, 160.48989095483574 214.85748765649103 M88.61587059589554 290.671022079033 C113.77971698341226 262.85995539084087, 138.62889303556827 236.77522065572052, 160.0466345550911 215.35288747313106 M183.1134512991485 190.92692975398182 C183.99179035163849 190.53657269256925, 185.9925985010156 188.69877167063888, 187.5767481107465 186.39313985403078 M183.42822668926698 191.0359309380089 C184.68262665561494 190.23206331711043, 185.12051608049322 189.52258796376623, 187.68463621975707 186.57244292427953 M194.26199330453866 179.76305561830932 C201.34723048023375 175.8235457381385, 205.50723095677972 166.60004829386693, 211.92233096791728 160.92469611268606 M194.66490203994928 179.20124161489312 C200.75435726194198 173.45318158055528, 206.10445651665177 168.22054632387946, 213.22904595486375 160.00725866040554 M91.22793914599053 290.44850705078875 C115.70905611172083 269.3671287584188, 138.53822906130205 246.5740397173435, 190.9446835344299 190.73619541429147 M92.20796843168863 290.90809521130626 C119.57502324675409 261.42077390864523, 148.6645319810599 231.8159372025558, 189.78160063383496 188.8291522136535 M198.07648416506913 181.21102168839116 C199.60202336814368 177.15440974241102, 202.63588902520695 174.60390360518468, 215.90638589595775 164.5032655880118 M197.4247705505968 182.15309113966032 C203.43493290603735 176.81217256398367, 207.7222222352559 171.7668781812912, 215.68035542380613 165.19034156713894 M97.85090990364603 293.29899997157816 C123.35145660163342 258.74363334874994, 153.27249015244522 230.24508363180885, 193.63324639075358 192.88593026254082 M96.20644388066027 291.77302727542474 C120.32970479291916 266.8872438945143, 143.644406212219 242.24205333438888, 193.00023336048892 190.37034433671414 M201.7901298928927 183.87736729153457 C209.1872901777321 177.89144024890874, 213.96462688049002 171.6421311691123, 217.72342314240777 170.2710848122413 M201.12264146271812 183.26588392132066 C206.98880995250647 178.2364010836144, 210.9181469286142 172.95735956905693, 216.51837021351014 168.66024275581924 M99.74102175984294 292.1242119886436 C132.55342324741127 256.85844152201895, 164.4004113344036 223.4579575384734, 197.47530489954005 194.26257892126665 M99.71808156653137 294.13323838573945 C127.50943666127083 268.72609193109196, 153.08651671881518 241.55135889270312, 196.71499216245795 193.32176278305272 M204.33620150806755 185.12049750162055 C209.0792145770255 180.00884669578784, 212.2526606425353 176.8723461613133, 218.088447696355 171.4532199497885 M205.2408125824557 185.8587051057323 C207.6460841750673 182.0257996108408, 211.0280679518784 178.45642763802368, 216.29867195814614 172.62207502652814 M103.79375954821955 295.5752517530728 C133.36376246454932 261.87035142502106, 162.6615361153662 232.15255713449955, 199.77099052874772 195.8720038198038 M103.20110644140247 296.0046376549349 C139.37384262929368 257.2143727493525, 174.97628549304463 221.616745684375, 200.8544970377248 194.7644975394987 M206.82810663728614 188.60507597247417 C209.5030553133051 184.55192146615556, 211.98005901355444 184.6656421900498, 216.0310991407746 177.42956166940786 M207.72430217560577 188.32466097447522 C209.3650022856664 185.98114019975296, 211.9833567152335 183.25381577962798, 216.55706476690625 177.2052965327585 M109.06748637219172 298.2562734723123 C136.438705067023 267.16158352687273, 164.6081940458514 238.38909130150267, 205.52794675070692 195.96548340093904 M108.1968491242005 296.10084489224886 C126.04611616619648 273.6301933148369, 148.1361751629612 252.11627921249053, 204.57956973653884 196.52595567855087 M211.01201047636172 188.8329373114905 C213.7561648168269 187.48351501289852, 215.40096125238543 184.3933069226126, 219.4187005872107 182.2148451657243 M211.8582147942965 189.4085617927847 C214.03800190628618 186.68504733851478, 216.51200224152623 183.74040233224363, 218.28531364222744 181.89463038312968 M113.3498065267166 298.2136000305374 C145.76095468084037 257.99773144655273, 184.02100743252117 219.5135140437228, 205.56019102649327 200.29882113263386 M111.30935267792627 297.0735746547987 C145.83903199621577 260.7259132343526, 179.0958353249401 226.95761736621535, 207.4403071327852 199.7442705076656 M117.55084887148081 297.17989169920486 C143.91552950311163 268.21955702072546, 173.5920872218948 238.43463264344982, 211.32345888346302 201.10906785078757 M118.4542770089021 297.0781126247554 C138.0984697244786 275.70460319722616, 158.6729405639874 254.3133339250667, 211.31920445512134 200.63007881415993 M122.83848141096453 297.8688432213459 C146.3361481542094 273.99742651671426, 167.5498533892297 252.8539408539371, 212.11703832110032 203.03563962380812 M123.36632043606504 297.5727121515649 C156.97917389221502 261.58910444851176, 190.5290253889052 226.1717850988061, 212.87901487064693 202.46633765928826 M128.9436569132475 299.0884845383884 C160.28073427315866 266.1463766897774, 189.01784105354494 233.82586244040925, 215.89462082642035 205.1833431536617 M126.17801497574078 297.85602678857293 C159.09560309750023 261.67814664587723, 193.28169396265542 228.333682412914, 217.00463980854002 205.29324389958853 M130.29518493533413 299.0093147052449 C166.3508428877628 267.1162482868821, 198.31368379864256 232.7815867111669, 218.67021134256646 206.97648586842502 M131.30731664520948 297.97908049146156 C161.02801236832155 263.86218351243605, 194.32122202827762 231.13421354759006, 219.49060554089047 207.43298305573063 M138.29655743388463 299.08300414608135 C160.03493670913582 271.517352751819, 187.65206577890237 247.06773161788874, 221.48952440920505 211.6289684064376 M137.23544726394616 298.4957596793215 C167.60997218449927 269.28190038235545, 196.02981375510234 238.71843533963803, 221.53658928411707 211.45696669545484 M142.72505092695377 298.13240590002096 C162.03559799665877 275.28383772826066, 180.92387516030632 259.05853097544366, 221.30132122017613 216.0641413226038 M143.19927757334958 298.03085287498277 C159.65360234321724 278.1250136775147, 176.3410814314105 261.70771042927026, 219.52536400565373 216.98576797845382 M147.92091497335474 294.703734288859 C164.44850561107128 281.74843104004185, 179.81640473991135 269.35999791988274, 220.97189863243213 224.61290227926736 M149.9815002930276 295.4158367770624 C175.53924275604365 266.6305457723074, 202.53138997563406 240.1423925261931, 218.8155549420098 224.35897950617664 M157.67979614364762 292.7835055223256 C180.00283103830475 272.60402238943243, 200.72714852061742 247.1041916350423, 220.53840992752734 229.31598334869935 M155.75573881120002 294.3338997707256 C172.44717246905208 276.83176074226725, 190.09446675453893 259.21107334814053, 219.8264987909643 230.36324024489616 M163.70781753201788 293.60285052232905 C179.72688608926046 274.8916827214749, 194.26982213951501 259.3930791994183, 214.50396130277954 240.46055620521562 M162.86071479961163 293.36828292721646 C181.65484544609583 273.5178208436606, 202.42523281259363 252.74752679950012, 215.1401276398892 240.35791950304335 M174.46004984235486 286.0798972376171 C181.43451246700948 276.13124649463816, 192.8426490864822 266.7744871617161, 205.48917796212305 253.19306709174242 M174.64238890507013 287.4414257759101 C185.63002009417778 273.17609705439065, 198.50423725051894 262.5693157763521, 207.02059864805668 253.19699397461295" stroke="rgb(0, 0, 0)" stroke-width="2.7843616483467093" fill="none"/><path d="M215.28337675245186 207.0490342082522 M215.44747106065265 204.26770164351854 C209.55195163407367 199.30146268923448, 204.85653441219517 196.67443474824938, 188.60709128045207 188.69783364020586 M217.79238165514266 204.47705164552343 C209.35081619549092 199.97313847960092, 201.12562671911368 195.41955922550721, 189.8940447350762 188.4968844754219 M189.092 187.549 C184.8447695847152 187.53750865210822, 183.13525244913998 186.7162324324826, 183.60811964974044 187.48718040019173 M190.09413425176004 185.62020835015352 C185.90109111953936 183.7789010361107, 184.9529598293375 185.22283712558124, 182.15781754425117 190.58011259112254 M181.96527472154233 189.05249210005354 C179.6812429744511 195.92150738652373, 174.43634816336294 202.17444791132306, 166.7410364319558 210.6837854621138 M182.80315090465112 189.24706296667978 C178.6591222465837 193.7449036428203, 175.01825602992733 198.62095041848906, 166.40961274802834 212.74822112951907 M166.661 212 C167.16146064093476 212.52855270477338, 163.98951428946654 216.77793209441163, 160.69158041713862 212.3383525836176 M165.44458658078287 213.78822575273978 C166.00096016176025 213.40189913037244, 160.4724318681292 215.62463948914672, 160.31429383721132 214.81885732949408 M158.7981228367435 213.45720996018343 C152.98412654251524 212.22485414321903, 148.44403905982549 209.22973045975945, 139.72311007541555 204.0399288588623 M159.7316388598747 212.91836526235036 C154.09680573414815 211.02741599543705, 146.41535024310028 206.57894964380583, 138.7947044255456 202.85222916799563 M139.012 203.323 C137.54342810219705 204.4994714195756, 138.69413306863677 200.75272559901572, 137.65053376154532 200.6270187495447 M139.59913393307738 204.63325039781265 C135.6394011050091 200.7410542443314, 137.92858955624612 202.09488543758025, 135.51801658852273 198.2709085038709 M136.383 200.3 C137.8584655618793 199.21626241324444, 135.38641069812877 197.54518292526873, 137.18822162966163 195.13428949625361 M138.00449276806447 199.52310630732396 C135.55874086934352 199.9061178605782, 135.97032815014728 196.60449674310465, 138.07942240566246 197.1539101767027 M136.67 196.312 C139.7378754118142 192.18939679705056, 142.15332554230878 192.5688026555162, 142.1113715718698 195.51145410079195 M137.75083126474172 194.8805909213815 C137.47456822138554 192.06318848827274, 141.16243904734034 193.19934688368735, 144.93043676106475 191.91125092603087 M144.24628133098392 192.5586836020728 C146.98341489821783 197.001791545892, 150.68060651337137 198.80565336721347, 156.17816475211382 200.75387498695062 M144.2257261344607 193.90744732396988 C148.37182944153741 196.52886154688954, 153.8607064321025 198.78633195483093, 155.79883140126188 200.58207338692603 M156.37 200.301 C158.21139041693561 201.93399162114616, 162.63624762814968 201.34988414950928, 162.0921027944506 198.62586407928086 M157.98679914147664 199.42130746167138 C158.00155349529123 200.8528624854847, 162.8957767380988 199.15507976717265, 162.56463480793505 199.50899741942584 M161.96672572889176 199.89718524990406 C168.09164158555663 189.91622489358627, 173.12288253969345 181.77172135818734, 176.95826105209554 176.47037817736972 M163.98429450341996 199.32593887228646 C168.074347848711 189.51406561949528, 173.15929302336585 182.92312842050734, 179.84863921520719 175.09561980867315 M178.894 174.829 C181.58617489965167 171.3870930062034, 185.52537562830395 173.70488295954394, 186.51305243695916 173.4961586369206 M179.82259636982022 174.98270357815016 C182.09662024455665 171.9199336133308, 185.7632410172175 173.1143263004772, 184.4936381722848 173.43876937887956 M184.11336587325525 171.82567669068908 C193.92152860746208 177.72000797719187, 204.01351697251062 185.48274078102514, 211.68459647840302 186.93641274239948 M185.48150803332783 173.03651117667306 C194.25943266113487 177.89933342408892, 201.91546395574161 183.78366764408864, 209.8941343536847 188.03154957400858 M210.276 188.423 C212.43542907548866 189.94684522618704, 213.4253131366569 188.65070524128382, 216.78187767618778 188.20064168147294 M209.26873883293942 188.8646493940228 C210.90213445367905 190.85285540048176, 215.50341143401673 190.32282453994017, 214.63586593682174 186.2093586333974 M215.912 188.372 C218.6306284462274 188.69013078353157, 218.19587546807847 186.5777075076693, 217.81183985793606 184.55430571280218 M217.6147279498175 188.12825568107345 C217.91705273270526 188.12288823074707, 219.83413896141326 187.20383223772762, 217.39003124035256 184.23394892962068 M218.234 183.245 C208.56355903972405 128.71960462506823, 171.9723086159221 48.041754399471316, 127.59489135084775 46.246935068618036 M219.92238665797873 184.3971029008911 C210.41879158039302 125.33437750845745, 173.03708232018522 45.65370515296808, 125.60697549946423 48.85853747063883 M125.643 47 C102.83871907164269 48.39110687306758, 78.35125139611058 66.83820440394265, 59.08992112502182 106.00993690894066 M126.5885846380331 46.027482316627726 C100.31499783795023 45.44078796409468, 78.60669483799234 65.80175776822293, 59.217164925546285 104.45538050312312 M59.2179 104.036 C58.026920308170006 105.78194175941779, 57.98495057477443 108.59454741120084, 61.35668889379281 108.92752814911375 M59.33784283070916 104.54986911718692 C57.98496632414189 104.49911835228765, 59.82311632917192 109.6696878078731, 59.92242398055102 109.09270301776888 M60.360000159655485 109.99934322867153 C65.00714236858893 116.03953145296224, 68.51067834036193 121.10537118208748, 76.28250560932297 129.4507449701883 M59.9265987475464 110.26296772095229 C66.49929221903352 117.58932213214437, 74.06167010578496 123.92366730516154, 77.45016379046517 128.21648764757626 M77.6399 127.628 C77.51241031062376 129.73015759190773, 79.62644273662009 129.22783656046295, 83.44260803681294 130.5330414881184 M77.5230578277558 126.40164117930686 C76.93260389878132 128.67436036403234, 80.03810362544122 128.71680895237486, 82.65370164341944 130.1897543429082 M83.90577157033162 130.79723365130454 C90.6422560210765 124.05835046166686, 100.72029001605374 123.00297751411489, 106.9907078902583 121.29761782762131 M82.94024180343085 129.2614752887131 C88.76550096164152 126.1143434996153, 94.98449432997941 125.64117683946213, 108.14562710971794 119.99926436802922 M108.264 120.479 C110.37148017998584 118.73865866126891, 114.04624636123998 119.81305022149917, 114.68113629558337 122.9290126561497 M107.3560518076252 119.62589936607796 C110.90157389421574 118.56961121305393, 111.59449667997158 121.8172548959504, 114.6397328944518 123.19197342125028 M112.94893417196162 122.59623217583662 C117.24588776568534 129.12114997557399, 118.34082143053116 132.9482635606399, 123.76739773611727 145.0245455566172 M114.60768103696053 123.1844867266019 C117.63212597108728 129.6370850070913, 120.00960510215394 135.6095163347428, 124.9090458693371 144.17335163945097 M125.091 144.016 C125.1869006707427 144.4127924930613, 124.80557124175989 145.32197143301173, 123.91773422782491 146.31866026602506 M125.83028915127915 145.51217354645138 C126.65767555616671 144.0800124708305, 127.4777161693394 144.38952511742883, 127.12086069971399 148.84247766397118 M125.377 148.009 C126.24968195814273 151.14607173433214, 122.74667475449866 152.0431506606013, 121.84764018018208 149.19577565878035 M124.78528586125061 148.22574740218235 C126.46274482470626 147.83288036381163, 125.06959402390433 148.23370710611587, 124.10748449482891 149.62492101397683 M122.748 151.033 C123.41626785910378 150.8898893458341, 119.92911207001899 151.82253539747506, 118.69598932209244 153.29330527342785 M122.14157661089585 150.68903291901356 C122.40046107773658 149.50164133938713, 121.83562911705648 151.7832663719711, 122.36399650636768 153.1234934474439 M120.406 151.584 C118.20385149008365 152.1359440491513, 117.67782399971516 152.06058209500662, 114.29659826733715 147.70812674626993 M119.80401763060762 151.28520911702074 C119.11338204995069 152.25628314046764, 115.71176535097707 150.163072158863, 113.81536954672329 148.95772461935516 M116.34921927595127 149.94091142225923 C114.40610883685761 143.23376202090495, 112.85054535090482 140.5055517403723, 109.94646746153117 136.72177538086484 M115.7029283984677 149.39872864939318 C113.51216412533611 145.96750316693974, 111.98166952688398 143.18708422809152, 109.4360590514076 135.84124445925787 M109.308 135.891 C108.85570805446865 134.0083253286288, 107.31043361832528 133.95337106223906, 102.76533670691404 133.65576210213746 M109.34190625912711 134.69455993262298 C109.87991929832525 134.4726361582318, 106.07919422883003 133.30553200258228, 102.89884903573405 132.56255159312343 M102.1351047518316 133.95922514551563 C98.518066949064 134.2841201275066, 88.51094704941181 139.11287332261634, 80.26702275169036 142.66079532011122 M103.2623438035208 133.8808544664279 C94.74067441080047 135.19245753571647, 86.1485532938117 138.14566759095328, 80.64588859116266 140.11169442996967 M80.1563 140.86 C77.80874080651942 141.3191856476915, 78.05602278735402 139.3329793658428, 73.56809234100177 139.66845792165086 M81.48874811444722 142.11149682586546 C77.80789664656045 143.70454750986423, 77.56154577569158 142.7746694571743, 76.69324398093026 141.83829499174027 M72.98683772971675 138.70770979459556 C69.96510875110515 134.36165049139072, 64.265756382082 130.91481059502593, 58.23678439721973 121.3338938861928 M75.60980024112379 140.41982574222794 C70.4386162800748 134.26191918219013, 65.53738765029576 131.50293302877822, 58.63814045180753 121.9690830628119 M58.1545 122.966 C56.45525283998734 121.79401851940995, 55.57307008209185 121.35057177604192, 52.407426154439 121.38816011164904 M58.27508237461797 124.35612710208406 C56.41608231279277 122.79060533029404, 53.023808192873744 121.80425425385592, 51.506836841650454 120.05736450172986 M53.4287 121.536 C52.820590083259574 122.67431248262409, 50.56318904023595 123.25124584666038, 50.49212440060977 123.25326270641996 M54.31988797984528 119.84164029182053 C53.684285317795144 121.38280014606677, 48.31475835485178 125.24953318353724, 51.22432504836646 126.55222127393343 M49.6132 124.672 C37.63014004216519 152.40571839724151, 29.7967614000046 181.09589530169845, 29.60957000899791 204.70388186926596 M51.265899341784305 125.63697588953033 C36.22779961290677 150.65765588966164, 33.42865175145209 183.40926896803103, 29.627486031373476 204.67391740782327 M31.375 203.921 C31.598717665102374 255.70417414006624, 72.88186123552279 296.2794566853358, 123.83069416190776 297.76114972888865 M30.047212818177066 202.72295476432123 C30.93481850397936 255.32564369060356, 74.32816034694156 298.4482806903411, 125.78393559576398 298.25889752611573 M125.643 298 C176.77954632857063 299.4723550755501, 217.72469826928128 258.0598910862393, 219.31050338635498 209.25825545046328 M124.52446628209931 299.9037966486104 C176.7174223622389 300.01866492827185, 214.7983526959777 257.3555583044806, 217.88998731537623 208.9014195508599 M219.615 209.824 C217.8570068245878 209.5972526767331, 218.64339619046504 205.90758096927544, 215.58864898169446 205.34016585481817 M218.70611179232267 211.03692828875404 C218.36801398394422 205.77081438775312, 217.67339372447373 204.32322893205335, 218.2745128224309 204.44048842874216 M217.16 205.065 C217.16 205.065, 217.16 205.065, 217.16 205.065 M217.16 205.065 C217.16 205.065, 217.16 205.065, 217.16 205.065" stroke="rgb(0, 0, 0)" stroke-width="1" fill="none"/></g></svg>