<?xml version='1.0' encoding='iso-8859-1'?>
<!DOCTYPE svg PUBLIC '-//W3C//DTD SVG 1.1//EN' 'http://www.w3.org/Graphics/SVG/1.1/DTD/svg11.dtd'>
<svg version="1.1" xmlns="http://www.w3.org/2000/svg" viewBox="0 0 460 460" xmlns:xlink="http://www.w3.org/1999/xlink" enable-background="new 0 0 460 460">
  <g>
    <path d="m29.406,226.401c0-7.884 2.382-14.766 7.036-18.377 6.077-4.715 15.636-5.734 24.086-5.395-1.263,2.253-2.434,4.605-3.506,7.062-32.245,73.922 33.958,217.947 36.792,224.042 1.23,2.643 3.88,4.335 6.795,4.335h41.485c3.764,0 6.944-2.792 7.431-6.524l11.713-90.402c5.167-6.809 9.202-14.834 10.404-24.05 0,0 51.652,2.253 68.28,6.437 10.66,2.683 14.57,16.828 19.14,29.609 7.521,21.031 19.685,78.391 19.801,78.953 0.72,3.48 3.785,5.976 7.339,5.976h48.92c3.478,0 6.499-2.393 7.295-5.778l37.158-157.922c1.232,1.573 3.05,2.6 5.058,2.826 2.279,0.258 4.559-0.546 6.174-2.181 26.078-26.412 14.661-68.21 7.973-86.156 6.765-16.842 10.879-35.036 10.879-49.346 0-5.29-0.762-10.14-2.276-14.534h15.691c12.267,0 23.696-6.065 30.574-16.223s8.263-23.022 3.707-34.411c-0.064-0.16-0.133-0.317-0.208-0.471l-22.994-47.7c-1.517-3.149-5.014-4.83-8.419-4.052-3.408,0.779-5.826,3.81-5.826,7.306v31.056c0,5.786-4.703,10.503-10.484,10.512-9.412,0.019-19.799-0.032-30.867-0.142-18.446-0.169-29.724,5.702-36.431,11.738-6.606-5.944-18.067-11.74-36.015-11.74-11.069,0.11-21.877,0.161-31.283,0.144-5.782-0.01-10.485-4.726-10.485-10.512v-31.054c0-3.496-2.417-6.527-5.826-7.306-3.404-0.779-6.901,0.903-8.419,4.052l-22.994,47.7c-0.074,0.154-0.143,0.311-0.208,0.471-3.016,7.54-3.412,15.722-1.351,23.342-2.118,1.014-4.262,2.131-6.435,3.38-11.45,6.585-20.267,13.748-29.603,21.332-18.734,15.222-39.97,32.476-90.097,48.693-11.337,3.668-20.856,9.523-28.504,17.476-11.132-1.581-30.637-2.457-43.617,7.586-8.113,6.278-12.38,15.499-12.72,27.41-3.498,1.034-6.676,3.231-9.073,6.399-11.867,15.687-1.854,33.121 5.099,40.147 1.445,1.46 3.375,2.223 5.33,2.223 1.251,0 2.513-0.313 3.661-0.956 8.737-4.898 23.296-18.923 15.863-36.953v-0.001c-1.363-3.306-3.462-6.041-6.043-8.021zm-10.111,11.483c0.854,0.055 1.763,0.956 2.298,2.254v-0.001c2.425,5.882-0.84,10.9-4.159,14.163-2.278-4.109-4.007-9.976 0.016-15.293 0.399-0.527 1.106-1.171 1.845-1.123zm354.171-32.306c-1.522-4.713-4.068-8.099-7.721-10.351-3.226-1.989-6.959-2.842-10.986-3.205l7.77-31.524 31.966-15.983c-1.279,19.142-9.535,43.669-21.029,61.063zm-59.078-91.529l8.308,33.707-28.556-14.278c1.152-6.302 5.308-14.666 20.248-19.429zm-20.468,30.49l31.915,15.959 7.749,31.441c-5.183,0.409-9.888,1.645-13.568,5.305-1.988,1.977-3.485,4.493-4.53,7.627-1.795-2.731-3.553-5.68-5.257-8.836-8.869-16.429-15.112-36.378-16.309-51.496zm49.749,55.21c6.709,0.005 14.17-0.004 17.881,2.283 2.074,1.279 4.725,3.943 5.455,12.125-7.022,8.089-14.848,13.241-22.823,13.241-6.952,0-14.769-4.992-22.309-13.912 0.486-5.054 1.734-8.538 3.781-10.573 3.256-3.239 10.973-3.17 18.015-3.164zm50.603-66.295l-28.603,14.302 8.333-33.812c15.133,4.701 19.187,13.049 20.27,19.51zm-50.549,57.868l-19.608-79.559c5.597-0.924 12.221-1.455 20.067-1.455 7.851,0 14.48,0.514 20.079,1.41l-19.619,79.604h-0.919zm-102.997-111.189l8.682-18.009c0.847,13.277 11.914,23.837 25.394,23.86 9.472,0.014 19.915-0.032 31.041-0.142 16.053-0.193 24.177,5.279 28.135,9.79-16.839,1.036-29.66,4.755-38.97,11.304-1.361,0.957-2.637,1.977-3.833,3.054h-29.997c-7.396,0-14.016-3.513-18.163-9.637-4.102-6.059-4.931-13.415-2.289-20.22zm-105.212,342.946h-6.132v-56.287c3.609-1.863 8.961-4.905 14.661-9.083l-8.529,65.37zm137.66-74.987c-5.206-14.559-11.828-35.032-29.835-39.167-19.139-4.395-78.189-7.5-78.189-7.5-2.188-0.209-4.345,0.554-5.918,2.078-1.574,1.525-2.401,3.662-2.265,5.85 1.769,28.312-37.642,45.675-38.031,45.843-2.756,1.181-4.542,3.891-4.542,6.888v60.994h-8.928c-10.734-24.481-61.363-146.283-34.706-207.394 6.688-15.332 17.569-25.254 33.265-30.332 52.791-17.079 75.18-35.271 94.935-51.32 8.854-7.194 17.217-13.989 27.622-19.972 1.942-1.117 3.854-2.107 5.737-2.995 6.975,8.754 17.557,13.912 28.859,13.912h19.928c-1.586,4.436-2.398,9.301-2.398,14.534 0,11.632 3.256,27.199 9.005,42.698-14.927,25.818-14.985,47.945-11.993,62.619 3.723,18.253 12.824,29.273 13.21,29.734 1.545,1.843 3.881,2.831 6.28,2.661 2.399-0.172 4.571-1.486 5.836-3.531l2.427-3.923c10.03,18.175 31.919,29.836 33.123,30.466 1.083,0.568 2.278,0.856 3.478,0.856 0.798,0 1.599-0.128 2.372-0.385 7.154-2.387 13.009-5.767 17.803-9.644l-31.063,132.018h-10.422l7.356-94.341c0.321-4.127-2.763-7.732-6.889-8.054-4.141-0.326-7.733,2.763-8.054,6.889l-7.447,95.506h-11.45c-3.264-15.291-12.659-56.958-19.106-74.988zm112.958-91.52l-5.637-9.112c-1.688-2.727-4.925-4.079-8.053-3.36-3.127,0.719-5.449,3.35-5.775,6.542-0.027,0.261-2.826,25.077-25.946,34.715-9.677-5.804-27.431-19.452-27.205-33.837 0.053-3.37-2.152-6.362-5.387-7.309-3.233-0.948-6.704,0.382-8.479,3.248l-4.861,7.858c-4.96-10.94-9.88-30.544 0.714-55.298 11.824,23.164 29.01,42.366 48.679,42.366 16.356,0 32.177-11.938 44.988-33.767 3.516,14.42 5.329,33.284-3.038,47.954zm55.104-156.22c-4.146,6.124-10.767,9.637-18.163,9.637h-25.617c-1.176-1.065-2.435-2.077-3.779-3.033-9.951-7.074-24.145-10.853-43.23-11.519 4.015-4.462 12.119-9.75 27.96-9.596 11.126,0.11 21.571,0.161 31.042,0.142 13.48-0.023 24.546-10.584 25.393-23.86l8.682,18.01c2.642,6.806 1.813,14.161-2.288,20.219z"/>
    <path d="m316.685,174.824c0.929-0.929 1.469-2.218 1.469-3.528 0-1.318-0.54-2.607-1.469-3.537-0.929-0.929-2.218-1.459-3.527-1.459-1.318,0-2.607,0.53-3.537,1.459-0.929,0.93-1.459,2.219-1.459,3.537 0,1.319 0.53,2.599 1.459,3.528 0.93,0.929 2.219,1.469 3.537,1.469 1.309,0 2.598-0.54 3.527-1.469z"/>
    <path d="m334.361,213.294c1.049,0 2.077-0.429 2.827-1.179 0.74-0.74 1.159-1.769 1.159-2.818 0-1.059-0.42-2.088-1.159-2.828-0.749-0.749-1.778-1.169-2.827-1.169-1.06,0-2.089,0.42-2.828,1.169-0.749,0.74-1.169,1.769-1.169,2.828 0,1.049 0.42,2.078 1.169,2.818 0.739,0.75 1.769,1.179 2.828,1.179z"/>
    <path d="m354.835,213.294c1.05,0 2.078-0.429 2.828-1.179 0.74-0.74 1.169-1.769 1.169-2.818 0-1.059-0.429-2.088-1.169-2.828-0.749-0.749-1.778-1.169-2.828-1.169-1.049,0-2.088,0.42-2.828,1.169-0.739,0.74-1.169,1.769-1.169,2.828 0,1.049 0.43,2.078 1.169,2.818 0.739,0.75 1.769,1.179 2.828,1.179z"/>
    <path d="m378.117,167.759c-0.93-0.929-2.219-1.459-3.528-1.459-1.319,0-2.608,0.53-3.537,1.459-0.929,0.93-1.459,2.219-1.459,3.537 0,1.319 0.53,2.599 1.459,3.528 0.929,0.929 2.218,1.469 3.537,1.469 1.309,0 2.598-0.54 3.528-1.469 0.939-0.929 1.469-2.218 1.469-3.528 0-1.318-0.53-2.607-1.469-3.537z"/>
  </g>
</svg>
