<svg id="Capa_1" enable-background="new 0 0 514.96 514.96" height="512" viewBox="0 0 514.96 514.96" width="512" xmlns="http://www.w3.org/2000/svg"><path d="m509.877 110.221c-5.851-11.003-16.126-19.007-28.191-21.959-35.905-8.785-69.817-7.113-100.796 4.971-24.738 9.65-47.558 25.899-67.826 48.296-2.779 3.071-2.542 7.814.528 10.593 3.072 2.779 7.814 2.542 10.594-.529 5.88-6.498 11.981-12.427 18.282-17.779l7.14-.812c11.513-1.313 22.135 5.833 25.268 16.984 2.946 10.486-1.633 21.526-11.136 26.847l-85.031 47.619c3.403-8.379 11.938-27.575 26.238-48.407 2.344-3.415 1.477-8.084-1.938-10.428-3.416-2.345-8.084-1.477-10.428 1.938-13.185 19.207-21.649 36.843-26.056 47.112-.505-.214-1.022-.404-1.544-.583v-4.714c0-31.422 14.844-61.654 39.708-80.868 3.278-2.533 3.881-7.243 1.349-10.521-2.533-3.278-7.243-3.882-10.521-1.349-17.355 13.412-30.442 31.508-38.036 51.74-7.594-20.232-20.681-38.328-38.036-51.74-3.277-2.533-7.988-1.929-10.521 1.349-2.533 3.277-1.929 7.987 1.349 10.521 24.863 19.214 39.708 49.446 39.708 80.868v4.714c-.52.178-1.034.367-1.537.58-6.331-14.78-21.033-44.764-46.052-72.591-45.897-51.046-104.377-69.653-169.117-53.811-12.064 2.952-22.34 10.956-28.191 21.959-5.786 10.88-6.677 23.698-2.447 35.168 3.967 10.759 11.416 21.359 22.137 31.507 5.342 5.056 9.321 11.616 11.505 18.97l8.518 28.682c1.179 3.971 5.353 6.236 9.325 5.054 3.971-1.179 6.233-5.354 5.054-9.325l-8.518-28.682c-2.933-9.878-8.318-18.728-15.573-25.594-9.031-8.547-15.213-17.228-18.375-25.803-2.793-7.575-2.219-15.72 1.618-22.936 3.317-6.239 8.795-11.003 15.318-13.441-1.658 7.798-1.114 15.951 1.735 23.675 3.968 10.759 11.417 21.359 22.138 31.507 5.342 5.056 9.321 11.616 11.505 18.97l18.757 63.161c6.71 22.592 26.49 38.961 49.746 41.512-1.94 1.273-3.818 2.588-5.647 3.934l-23.423-.77c-18.174-1.125-33.856-13.594-39.041-31.055l-1.119-3.768c-1.18-3.971-5.353-6.235-9.325-5.055-3.971 1.179-6.234 5.354-5.055 9.325l1.119 3.768c6.984 23.52 28.132 40.303 52.624 41.764.067.004.134.007.2.009l7.789.256c-13.479 14.646-22.038 32.264-25.261 52.433-1.261 7.891 1.77 15.937 7.911 20.999 13.17 10.858 48.387 36.319 88.6 36.317 16.189-.001 33.189-4.129 49.884-14.997l1.066 17.929c.616 10.374 9.24 18.5 19.632 18.5s19.016-8.126 19.632-18.499l1.069-17.979c15.396 9.961 32.323 15.003 50.274 15.003 11.873 0 24.196-2.2 36.807-6.624 3.909-1.371 5.965-5.651 4.594-9.56-1.371-3.908-5.65-5.965-9.56-4.594-30.44 10.68-57.691 6.665-81.064-11.908l.969-16.294c13.842 7.771 28.662 11.665 44.347 11.665 10.511 0 21.414-1.75 32.665-5.252 20.652-6.429 38.129-17.599 49.292-25.969 1.407 4.368 2.501 8.908 3.256 13.632.425 2.66-.587 5.365-2.641 7.058-4.156 3.427-10.889 8.603-19.361 13.803-3.53 2.167-4.635 6.786-2.469 10.315 1.416 2.307 3.878 3.578 6.399 3.578 1.338 0 2.692-.358 3.916-1.109 9.207-5.652 16.532-11.284 21.056-15.013 6.141-5.063 9.172-13.109 7.911-21-3.223-20.169-11.782-37.786-25.261-52.433l7.789-.256c.066-.002.133-.005.2-.009 24.491-1.461 45.639-18.245 52.624-41.764l18.757-63.161c2.184-7.354 6.163-13.914 11.505-18.97 10.722-10.148 18.17-20.748 22.137-31.507 4.23-11.469 3.338-24.287-2.447-35.167zm-168.138 186.92c-.782-1.344-1.692-2.621-2.737-3.803l-15.605-17.659c6.363 1.656 13.104 3.741 19.908 6.378 12.432 4.818 23.169 10.66 32.209 17.491.404.391.854.731 1.336 1.024 2.609 2.038 5.071 4.162 7.384 6.371zm9.308-28.474c-.224.007-.437.046-.655.073-.686-.274-1.364-.554-2.059-.821-27.285-10.502-52.964-12.855-60.868-13.35-1.794-3.05-4.05-5.837-6.717-8.24v-5.828l18.806-10.531 52.646 38.659zm-58.839 1.366c1.99.205 4.318.478 6.923.838l28.63 32.399c1.697 1.921 2.467 4.381 2.166 6.927s-1.622 4.759-3.721 6.231c-3.344 2.346-7.835 2.116-10.923-.56l-28.577-24.769c3.626-5.583 5.576-12.095 5.576-18.901.001-.725-.029-1.446-.074-2.165zm15.394 58.806c2.91 2 6.158 3.299 9.515 3.868l4.651 25.613c-4.828-.182-9.552-.802-14.166-1.864zm68.655-61.155-62.325-45.766 16.53-9.257 71.983 41.941c-6.858 7.124-16.065 11.864-26.188 13.082zm36.544-30.819c-.539 1.815-1.198 3.572-1.954 5.272l-65.192-37.984 9.336-5.228 63.876 17.514zm10.337-34.809-49.653-13.614c4.03-2.657 7.435-5.976 10.13-9.748 15.665-.855 30.96.096 45.622 2.823zm10.799-34.912c-14.141-2.781-28.817-4.018-43.823-3.698.914-4.894.876-10.014-.209-15.098 11.997-4.284 39.319-12.337 64.188-7.511-2.093 2.432-4.409 4.858-6.962 7.274-5.606 5.305-10.089 11.799-13.194 19.033zm-71.475-47.94c7.726-4.791 15.693-8.803 23.879-11.997 24.05-9.382 50.186-11.78 77.856-7.212 3.52 6.986 4.022 14.958 1.31 22.312-.645 1.748-1.422 3.501-2.316 5.255-30.997-8.49-65.25 1.824-79.204 6.945-5.143-7.512-12.781-12.922-21.525-15.303zm-224.35 181.365c.481-.292.93-.631 1.332-1.021 9.04-6.831 19.777-12.674 32.21-17.492 6.804-2.637 13.545-4.722 19.908-6.378l-15.605 17.659c-1.045 1.182-1.956 2.46-2.737 3.803l-42.495 9.801c2.315-2.209 4.778-4.333 7.387-6.372zm90.142-9.47-28.578 24.769c-3.087 2.676-7.579 2.906-10.922.56-2.099-1.472-3.42-3.685-3.721-6.231s.468-5.006 2.166-6.927l28.63-32.399c2.605-.36 4.934-.633 6.924-.838-.045.719-.075 1.44-.075 2.165-.001 6.806 1.95 13.318 5.576 18.901zm-112.483 34.686 54.547-12.581c.055.32.122.636.19.952l-29.638 30.835c-11.005-5.7-20.107-12.122-26.333-17.008.4-.739.811-1.472 1.234-2.198zm62.755 1.674c.519.435 1.053.855 1.612 1.248.926.65 1.89 1.215 2.874 1.718l-4.916 27.072c-5.193-.741-10.491-1.944-15.89-3.625-2.313-.72-4.572-1.523-6.795-2.365zm19.317 5.247c3.358-.569 6.605-1.868 9.515-3.868v27.616c-4.614 1.062-9.338 1.683-14.166 1.864zm24.516-16.647 9.208-7.98 2.182 36.693c-3.703 2.515-7.501 4.677-11.389 6.496v-35.209zm11.853-69.73c-2.668 2.403-4.923 5.19-6.717 8.24-7.904.495-33.583 2.848-60.868 13.35-.685.264-1.353.54-2.029.81-.226-.028-.453-.053-.685-.061l-1.153-.038 52.646-38.659 18.806 10.531zm-43.277-94.561c26.076 28.879 40.603 61.107 45.312 72.682l-85.027-47.616c-9.502-5.321-14.082-16.361-11.136-26.847 3.133-11.151 13.763-18.295 25.269-16.985l7.139.813c6.359 5.4 12.514 11.386 18.443 17.953zm-88.776 85.097-6.066-20.427 63.876-17.514 9.336 5.228-65.192 37.984c-.756-1.698-1.415-3.456-1.954-5.271zm-16.436-55.348c14.66-2.729 29.956-3.679 45.622-2.823 2.695 3.771 6.1 7.091 10.13 9.747l-49.653 13.614zm43.022-74.262c8.142 3.185 16.066 7.182 23.753 11.948-8.744 2.38-16.381 7.792-21.524 15.305-13.955-5.122-48.208-15.436-79.204-6.946-.894-1.755-1.671-3.507-2.316-5.255-2.712-7.354-2.211-15.326 1.31-22.312 27.717-4.575 53.895-2.162 77.981 7.26zm-60.916 40.855c-2.554-2.417-4.871-4.845-6.966-7.278 24.871-4.826 52.194 3.232 64.191 7.516-1.086 5.085-1.123 10.207-.208 15.103-15.007-.321-29.684.91-43.824 3.691-3.104-7.233-7.587-13.726-13.193-19.032zm44.687 106.493 71.983-41.941 16.53 9.257-62.325 45.766c-10.123-1.219-19.331-5.959-26.188-13.082zm49.071 137.572c-24.103-6.775-44.02-21.24-53.747-29.26-2.054-1.693-3.066-4.398-2.641-7.058.755-4.724 1.849-9.263 3.256-13.631 11.163 8.37 28.64 19.539 49.291 25.969 11.253 3.503 22.152 5.252 32.665 5.252 15.684 0 30.506-3.895 44.348-11.666l.969 16.294c-21.558 17.124-46.482 21.874-74.141 14.1zm95.893 25.062c-2.466 0-4.512-1.928-4.658-4.39l-7.247-121.878c-.108-1.82-.876-3.539-2.16-4.834-3.7-3.734-5.738-8.684-5.738-13.937 0-6.404 3.13-12.447 8.373-16.164 1.983-1.406 3.162-3.687 3.162-6.118v-13.811c0-4.559 3.709-8.268 8.268-8.268s8.268 3.709 8.268 8.268v13.811c0 2.432 1.179 4.712 3.162 6.118 5.243 3.717 8.373 9.759 8.373 16.164 0 5.253-2.038 10.203-5.738 13.937-1.284 1.295-2.051 3.014-2.16 4.834l-7.247 121.879c-.146 2.461-2.192 4.389-4.658 4.389zm25.914-109.159 9.208 7.981v35.208c-3.888-1.819-7.686-3.981-11.389-6.496zm69.361 45.795c-5.399 1.681-10.697 2.884-15.89 3.625l-4.916-27.072c.984-.503 1.948-1.068 2.874-1.718.559-.392 1.093-.812 1.612-1.248l23.115 24.049c-2.224.841-4.482 1.643-6.795 2.364zm21.336-8.882-29.638-30.835c.068-.316.135-.632.19-.952l54.547 12.581c.423.726.834 1.459 1.235 2.198-6.227 4.887-15.329 11.308-26.334 17.008zm124.159-204.792c-3.162 8.575-9.344 17.256-18.375 25.803-7.255 6.866-12.64 15.716-15.573 25.594l-18.757 63.161c-5.186 17.461-20.868 29.931-39.042 31.055l-23.423.77c-1.829-1.347-3.707-2.661-5.647-3.934 23.256-2.551 43.036-18.919 49.746-41.512l18.757-63.161c2.184-7.354 6.163-13.914 11.505-18.97 10.721-10.147 18.169-20.748 22.138-31.507 2.849-7.726 3.385-15.879 1.727-23.679 6.526 2.436 12.007 7.203 15.326 13.444 3.837 7.216 4.412 15.362 1.618 22.936z"/></svg>