<?xml version="1.0" encoding="iso-8859-1"?>
<!-- Generator: Adobe Illustrator 19.0.0, SVG Export Plug-In . SVG Version: 6.00 Build 0)  -->
<svg version="1.1" id="Layer_1" xmlns="http://www.w3.org/2000/svg" xmlns:xlink="http://www.w3.org/1999/xlink" x="0px" y="0px"
	 viewBox="0 0 512.002 512.002" style="enable-background:new 0 0 512.002 512.002;" xml:space="preserve">
<g>
	<g>
		<path d="M495.725,88.668c-5.907-3.088-9.736-4.825-12.283-5.803c-0.748-1.177-1.731-2.685-2.889-4.381
			c-8.557-12.538-23.281-19.591-38.446-18.421l-11.234,0.871l-3.175-15.215c-0.062-0.294-0.139-0.583-0.234-0.867
			c-2.487-7.493-9.493-11.715-17.848-10.758c-6.226,0.714-12.663,4.205-17.662,9.581c-3.835,4.123-8.608,11.248-9.619,21.808
			l-2.272,18.39l-34.152,90.136c-6.02,15.876-20.214,27.066-37.043,29.203c-4.294,0.544-7.333,4.468-6.788,8.761
			c0.503,3.959,3.877,6.851,7.765,6.851c0.329,0,0.662-0.021,0.997-0.064c22.593-2.868,41.645-17.888,49.726-39.197l27.017-71.301
			c1.886,0.806,3.92,1.23,5.998,1.23c1.651,0,3.328-0.261,4.969-0.796l5.794-1.886c15.259-4.967,25.859-17.011,27.855-30.258
			l11.122-0.863c9.577-0.744,18.883,3.711,24.289,11.631c2.374,3.478,3.947,6.108,3.96,6.131c1.192,2.001,3.197,3.348,5.451,3.723
			c3.311,1.084,14.517,6.759,19.308,9.808v17.507c0,12.63-10.265,22.904-22.883,22.904h-16.896c-3.988,0-7.34,2.995-7.788,6.958
			l-7.544,66.894c-0.485,4.301,2.609,8.18,6.909,8.666c0.299,0.033,0.595,0.05,0.888,0.05c3.935-0.001,7.327-2.957,7.778-6.959
			l6.759-59.936h9.893c21.261,0,38.557-17.306,38.557-38.578v-20.984C512,98.417,508.806,95.503,495.725,88.668z M399.491,91.906
			l-4.82,1.562l0.799-6.466c0.001-0.008,0.001-0.017,0.003-0.024l2.432-19.685c0.01-0.079,0.019-0.158,0.025-0.238
			c0.758-8.166,5.435-13.605,9.559-15.972c2.018-1.157,3.625-1.452,4.509-1.452c0.216,0,0.389,0.018,0.514,0.045l4.066,19.478
			C418.462,78.18,410.957,88.173,399.491,91.906z"/>
	</g>
</g>
<g>
	<g>
		<path d="M489.682,437.484l-18.843-11.109L451.937,294.57c-1.131-8.9-1.197-17.938-0.196-26.863
			c0.482-4.301-2.614-8.178-6.915-8.66c-4.288-0.487-8.178,2.613-8.66,6.915c-1.141,10.183-1.063,20.494,0.233,30.648
			c0.005,0.04,0.01,0.08,0.017,0.12l18.311,127.684l-23.373,6.762c-4.249-16.8-14.473-57.782-22.506-94.448
			c-0.906-4.139-4.941-6.813-9.1-6.025c-0.813,0.153-1.616,0.296-2.421,0.441c-0.032,0.006-0.066,0.011-0.098,0.018
			c-35.164,6.297-62.46,4.897-79.306,2.562c-18.676-2.587-28.896-6.842-28.975-6.875c-1.274-0.545-2.67-0.744-4.048-0.578
			c-0.198,0.024-20.111,2.474-39.965,5.037c-42.129,5.439-42.636,5.813-44.772,7.382c-0.603,0.444-1.138,0.971-1.591,1.565
			l-24.816,32.586c-8.773,11.518-22.65,18.394-37.122,18.394h-23.976c-6.663,0-12.084,5.422-12.084,12.087v28.385l-10.844,1.378
			v-55.572l26.994-12.662c4.226-1.981,6.957-6.276,6.957-10.94v-57.817c0-30.557,22.84-56.496,53.129-60.336l89.48-11.349
			c4.294-0.544,7.334-4.466,6.789-8.76c-0.544-4.293-4.463-7.332-8.76-6.789l-89.48,11.349
			c-20.535,2.603-38.338,13.29-50.399,28.599h-3.98c-44.802,0-81.251-36.472-81.251-81.304c0-44.83,36.449-81.303,81.251-81.303
			c4.328,0,7.837-3.508,7.837-7.837c0-4.329-3.509-7.837-7.837-7.837c-53.444,0-96.925,43.503-96.925,96.977
			c0,51.625,40.529,93.954,91.423,96.818c-1.145,2.495-2.173,5.053-3.048,7.679c-25.137-2.028-48.506-12.984-66.341-31.235
			c-19.277-19.726-29.894-45.744-29.894-73.26c0-57.817,47.005-104.855,104.782-104.855h90.593c2.166,0,3.929,1.767,3.929,3.94
			c0,2.171-1.763,3.939-3.929,3.939h-41.253c-4.328,0-7.837,3.508-7.837,7.837c0,4.329,3.509,7.837,7.837,7.837h41.253
			c10.808,0,19.602-8.798,19.602-19.613c0-10.816-8.794-19.613-19.602-19.613h-90.593C54.036,46.977,0,101.048,0,167.507
			c0,31.634,12.2,61.543,34.354,84.217c19.997,20.465,46.057,32.955,74.158,35.719c-0.324,2.847-0.51,5.731-0.51,8.655v55.533
			l-27.004,12.667c-4.22,1.979-6.946,6.273-6.946,10.941v66.745v23.971v0.01c0,6.659,5.417,12.077,12.074,12.077h34.888
			c3.739,0,7.204-1.689,9.507-4.633c2.308-2.951,3.115-6.73,2.208-10.386l-3.608-14.431c-0.654-2.709-2.254-5.125-4.486-6.792
			l-8.393-6.298v-28.592h20.387c14.17,0,27.901-4.95,38.845-13.644l4.838,17.047c0.275,0.951,0.649,1.843,1.102,2.638l22.113,38.874
			l11.427,20.093c0.257,0.453,0.543,0.883,0.852,1.293c0.01,0.016,0.02,0.031,0.03,0.047c0.149,0.196,0.324,0.371,0.485,0.558
			c2.264,2.635,5.583,4.222,9.136,4.222h0.003h35.597c0.468,0,0.932-0.026,1.39-0.078c0.279-0.031,0.552-0.091,0.825-0.142
			c0.176-0.032,0.354-0.051,0.528-0.091c0.294-0.067,0.578-0.162,0.864-0.251c0.146-0.046,0.298-0.078,0.443-0.13
			c0.241-0.085,0.471-0.195,0.706-0.296c0.181-0.077,0.368-0.142,0.544-0.229c0.166-0.08,0.322-0.183,0.484-0.271
			c0.235-0.128,0.474-0.249,0.7-0.394c0.093-0.059,0.177-0.131,0.268-0.192c0.285-0.194,0.569-0.388,0.839-0.606
			c0.029-0.022,0.054-0.051,0.083-0.074c0.672-0.555,1.293-1.184,1.843-1.888c0.868-1.111,1.522-2.34,1.954-3.634
			c0.018-0.053,0.027-0.109,0.044-0.162c0.12-0.376,0.229-0.758,0.31-1.144c0.029-0.138,0.04-0.279,0.064-0.416
			c0.053-0.306,0.111-0.612,0.14-0.922c0.017-0.177,0.011-0.354,0.021-0.531c0.014-0.277,0.037-0.553,0.031-0.831
			c-0.002-0.101-0.018-0.202-0.022-0.303c-0.036-0.809-0.139-1.623-0.34-2.428l-4.071-16.305c-0.104-0.403-0.23-0.798-0.374-1.185
			c-0.002-0.005-0.003-0.011-0.005-0.017c-0.085-0.227-0.19-0.444-0.287-0.664c-0.997-2.257-2.659-4.164-4.774-5.452
			c-0.214-0.131-0.424-0.269-0.648-0.387l-9.317-4.889l-7.399-3.883l-11.626-35.354l9.867-47.685
			c13.613-1.766,28.618-3.654,40.707-5.145c6.367,2.345,26.726,8.801,58.992,9.311l-10.955,113.416
			c-0.325,3.384,0.8,6.77,3.088,9.287c1.376,1.515,3.111,2.633,5.011,3.288c1.255,0.433,2.581,0.671,3.933,0.671h0.001h44.195h0.005
			c1.557,0,3.053-0.312,4.435-0.867c3.685-1.48,6.526-4.739,7.33-8.818l2.965-15.033c0.16-0.802,0.231-1.607,0.226-2.407
			c0-0.05,0.003-0.101,0.002-0.151c-0.003-0.153-0.016-0.305-0.024-0.458c-0.007-0.137-0.01-0.275-0.023-0.411
			c-0.005-0.052-0.014-0.103-0.019-0.154c-0.307-2.968-1.715-5.747-3.979-7.739c-0.285-0.251-0.578-0.495-0.89-0.719l-10.93-7.961
			l12.308-62.458c8.591,36.765,17.126,70.032,17.619,71.952l6.215,25.948c0.056,0.236,0.128,0.464,0.196,0.695
			c0.029,0.097,0.051,0.196,0.083,0.292c0.069,0.212,0.153,0.416,0.233,0.623c0.044,0.113,0.081,0.232,0.13,0.344
			c0.078,0.185,0.169,0.362,0.256,0.541c0.061,0.125,0.116,0.256,0.181,0.379c0.085,0.159,0.18,0.31,0.271,0.465
			c0.079,0.136,0.154,0.275,0.237,0.406c0.088,0.138,0.186,0.266,0.279,0.399c0.098,0.141,0.191,0.285,0.296,0.421
			c0.091,0.118,0.191,0.229,0.286,0.344c0.116,0.141,0.229,0.285,0.351,0.42c0.094,0.104,0.196,0.199,0.295,0.3
			c0.133,0.137,0.262,0.278,0.402,0.408c0.095,0.09,0.198,0.169,0.297,0.255c0.15,0.132,0.298,0.268,0.455,0.391
			c0.098,0.077,0.203,0.146,0.303,0.22c0.165,0.122,0.327,0.248,0.498,0.362c0.11,0.073,0.226,0.136,0.338,0.205
			c0.169,0.106,0.336,0.213,0.511,0.309c0.115,0.064,0.235,0.116,0.351,0.176c0.18,0.092,0.356,0.187,0.54,0.27
			c0.114,0.051,0.233,0.091,0.349,0.139c0.192,0.078,0.383,0.162,0.58,0.231c0.135,0.048,0.275,0.084,0.413,0.126
			c0.184,0.056,0.365,0.119,0.552,0.167c0.151,0.039,0.306,0.066,0.46,0.099c0.179,0.039,0.354,0.084,0.536,0.115
			c0.22,0.037,0.446,0.06,0.671,0.086c0.117,0.014,0.232,0.034,0.35,0.044c0.345,0.029,0.694,0.045,1.045,0.045h44.695
			c0.401,0,0.797-0.02,1.189-0.058c5.868-0.576,10.518-5.368,10.874-11.297l2.652-17.641c0.057-0.386,0.087-0.775,0.087-1.165
			C495.599,443.68,493.363,439.716,489.682,437.484z M116.41,462.369H89.726v-0.001v-13.48l15.6-1.982
			c0.024,0.02,0.049,0.038,0.073,0.056l8.812,6.612L116.41,462.369z M211.702,434.496l-16.432-28.888l-7.266-25.609l21.298-27.967
			c3.396-0.577,10.061-1.523,18.388-2.647l-8.943,43.218c-0.456,2.127-0.326,4.331,0.343,6.279l9.952,30.268L211.702,434.496z
			 M236.805,443.158c0.132,0.078,0.266,0.153,0.402,0.227c0.036,0.02,0.069,0.043,0.106,0.063l13.099,6.871l3.494,1.835
			l2.549,10.215h-28.899l-7.34-12.905l-0.577-1.014L236.805,443.158z M386.089,462.369h-37.216v-0.001l1.44-14.921l25.927-3.517
			c0.276,0.241,0.562,0.473,0.86,0.691l6.177,4.499l4.744,3.457L386.089,462.369z M373.186,428.526l-21.326,2.893l7.752-80.275
			c9.066-0.394,18.859-1.26,29.37-2.774L373.186,428.526z M477.659,462.368h-38.719l-3.824-15.966l26.058-7.537
			c0.064,0.041,0.128,0.079,0.192,0.119l18.196,10.728L477.659,462.368z"/>
	</g>
</g>
<g>
	<g>
		<circle cx="454.008" cy="93.906" r="7.837"/>
	</g>
</g>
<g>
	<g>
		<circle cx="394.449" cy="151.083" r="7.837"/>
	</g>
</g>
<g>
	<g>
		<circle cx="416.862" cy="190.789" r="7.837"/>
	</g>
</g>
<g>
	<g>
		<circle cx="365.234" cy="206.462" r="7.837"/>
	</g>
</g>
<g>
	<g>
		<circle cx="313.992" cy="239.376" r="7.837"/>
	</g>
</g>
<g>
	<g>
		<circle cx="239.804" cy="247.213" r="7.837"/>
	</g>
</g>
<g>
	<g>
		<circle cx="203.233" cy="288.016" r="7.837"/>
	</g>
</g>
<g>
	<g>
		<circle cx="149.42" cy="307.87" r="7.837"/>
	</g>
</g>
<g>
	<g>
		<circle cx="394.449" cy="247.213" r="7.837"/>
	</g>
</g>
<g>
	<g>
		<circle cx="365.234" cy="283.785" r="7.837"/>
	</g>
</g>
<g>
	<g>
		<circle cx="289.437" cy="283.785" r="7.837"/>
	</g>
</g>
<g>
</g>
<g>
</g>
<g>
</g>
<g>
</g>
<g>
</g>
<g>
</g>
<g>
</g>
<g>
</g>
<g>
</g>
<g>
</g>
<g>
</g>
<g>
</g>
<g>
</g>
<g>
</g>
<g>
</g>
</svg>
