<?xml version="1.0"?>
<svg xmlns="http://www.w3.org/2000/svg" viewBox="0 0 64 64" width="512" height="512"><g id="outline"><path d="M17,15.97v2.753L11.135,28.5A33.83,33.83,0,0,0,7,48.09C7.843,57.32,9.906,62,13.135,62a4.158,4.158,0,0,0,3.914-2.6l3.62-8.186C22.684,55.554,26.586,62,32,62s9.315-6.445,11.331-10.782l3.6,8.146A4.175,4.175,0,0,0,50.865,62c3.229,0,5.292-4.68,6.131-13.91a33.841,33.841,0,0,0-4.139-19.605L47,18.723V16.11a1.752,1.752,0,0,0-.019-.192c-.074-.377-.228-1.134-3.167-4.544A2.99,2.99,0,0,0,42,6H40a2.946,2.946,0,0,0-.928.162c-1.228-1.289-2.144-2.227-2.359-2.433a7.305,7.305,0,0,0-9.469,0c-.2.2-1.134,1.149-2.341,2.422A2.969,2.969,0,0,0,24,6H22a2.988,2.988,0,0,0-1.85,5.344c-2.868,3.317-3.048,4.068-3.125,4.4A1.819,1.819,0,0,0,17,15.97ZM13.135,60c-.312,0-3.071-.339-4.139-12.09a31.776,31.776,0,0,1,3.861-18.395L14.729,26.4c-.719,3.326-1.255,6.92-1.72,10.474a67.623,67.623,0,0,0,.94,22.967A2.3,2.3,0,0,1,13.135,60Zm6.951-12.4-.822,1.858A65.572,65.572,0,0,1,19,41.005a40.956,40.956,0,0,1,3.344-16.247l.772.773C25.232,32.7,21.7,43.358,20.086,47.6ZM39.255,39c.308,1.407.659,2.751,1.022,4H23.725c.363-1.247.713-2.592,1.021-4ZM25.14,37c.233-1.313.416-2.652.519-3.99a13.9,13.9,0,0,0,12.682,0c.1,1.337.287,2.676.52,3.99ZM32,60c-1.878,0-3.693-1.189-5.328-3H37.328C35.693,58.811,33.878,60,32,60Zm6.9-5H25.105a30.857,30.857,0,0,1-2.321-4H41.216A30.857,30.857,0,0,1,38.9,55Zm3.229-6H21.876c-.037-.088-.074-.175-.11-.263l.169-.381c.336-.883.749-2.031,1.178-3.356H40.89c.434,1.342.854,2.507,1.2,3.4l.148.334C42.2,48.825,42.161,48.913,42.124,49Zm2.612.455-.8-1.811C42.3,43.358,38.768,32.7,40.884,25.531l.772-.773A40.956,40.956,0,0,1,45,41.005,65.582,65.582,0,0,1,44.736,49.455Zm6.4-19.954A31.787,31.787,0,0,1,55,47.91C53.936,59.661,51.177,60,50.865,60a2.281,2.281,0,0,1-.814-.164,67.593,67.593,0,0,0,.94-22.966c-.465-3.554-1-7.148-1.72-10.475ZM49.009,37.13a65.6,65.6,0,0,1-.59,20.65l-2.277-5.147c.9-3.39.886-6.411.858-11.638a43.827,43.827,0,0,0-3.814-17.767l2.44-2.439C47.291,25.3,48.241,31.269,49.009,37.13ZM40,8h2a1,1,0,0,1,0,2H40a1,1,0,0,1,0-2ZM22,8h2a1,1,0,0,1,0,2H22a1,1,0,0,1,0-2Zm.233,4H24a3,3,0,0,0,3-3,2.969,2.969,0,0,0-.49-1.633C27.619,6.2,28.463,5.341,28.653,5.15a5.373,5.373,0,0,1,6.665.012c.176.168,1.007,1.017,2.16,2.227A2.973,2.973,0,0,0,37,9a3,3,0,0,0,3,3h1.707c1.433,1.629,2.254,2.669,2.715,3.313L31.985,16.99,19.6,15.192C20.061,14.559,20.863,13.552,22.233,12ZM19,17.126,31.837,18.99a.992.992,0,0,0,.143.01,1,1,0,0,0,.134-.009L45,17.254v1.332l-5.707,5.707a1,1,0,0,0-.246.406,19.892,19.892,0,0,0-.8,6.084,12.048,12.048,0,0,1-12.491,0,19.927,19.927,0,0,0-.8-6.084,1,1,0,0,0-.246-.406L19,18.586Zm1.814,6.1A43.827,43.827,0,0,0,17,41c-.028,5.227-.043,8.248.858,11.637l-2.277,5.149a65.6,65.6,0,0,1-.59-20.651c.768-5.861,1.718-11.832,3.383-16.341Z"/><rect x="31" y="21" width="2" height="5"/></g></svg>
