<?xml version="1.0"?>
<svg xmlns="http://www.w3.org/2000/svg" viewBox="0 0 512 512" width="512" height="512"><g id="Outline"><path d="M470.115,44.521A34.14,34.14,0,0,1,454.8,53.912,65.808,65.808,0,0,0,464,20.223V16H448v4.223a49.617,49.617,0,0,1-27.578,44.622,67.044,67.044,0,0,0-7.936,4.674A27.058,27.058,0,0,1,400,46.7V32H384V46.7a43.041,43.041,0,0,0,16.224,33.7,65.4,65.4,0,0,0-15.863,36.4,39.854,39.854,0,0,0-2.679,3.19h-21.8a65.47,65.47,0,0,0-16.109-39.594A43.041,43.041,0,0,0,360,46.7V32H344V46.7a27.058,27.058,0,0,1-12.486,22.817,67.044,67.044,0,0,0-7.936-4.674A49.617,49.617,0,0,1,296,20.223V16H280v4.223a65.808,65.808,0,0,0,9.2,33.689,34.14,34.14,0,0,1-15.316-9.391C267.418,37.5,264,27.638,264,16H248c0,15.724,4.881,29.334,14.115,39.361C272.141,66.246,286.625,72,304,72h1.112a66.751,66.751,0,0,0,11.31,7.155,49.6,49.6,0,0,1,25.4,29.961A39.883,39.883,0,0,0,322.335,104H288a8,8,0,0,0-7.428,10.971l7.954,19.885A39.8,39.8,0,0,0,314.3,158.375L284.407,192H104a55.66,55.66,0,0,0-28.81,8H56a40.045,40.045,0,0,0-40,40v40a8,8,0,0,0,8,8,55.139,55.139,0,0,0,24-5.488v4.5a50.173,50.173,0,0,0,27.231,44.677L33.6,387.2A8,8,0,0,0,32,392v96a8,8,0,0,0,8,8H72a8,8,0,0,0,8-8V411.539l8.382-7.62,40.354,87.434A8,8,0,0,0,136,496h32a8,8,0,0,0,7.589-10.53l-31.1-93.313L165.544,336H224v54.7L192.411,485.47A8,8,0,0,0,200,496h32a8,8,0,0,0,7.283-4.689L264,436.932V488a8,8,0,0,0,8,8h32a8,8,0,0,0,7.96-7.2l15.854-158.535,60.609-121.218,20.737,4.147a28.21,28.21,0,0,0,26.951-46.021L426.9,156.423a39.74,39.74,0,0,0,20.574-21.568l7.954-19.884A8,8,0,0,0,448,104H413.665a39.8,39.8,0,0,0-10.168,1.33,49.642,49.642,0,0,1,24.081-26.175A66.751,66.751,0,0,0,438.888,72H440c17.375,0,31.859-5.754,41.885-16.639C491.119,45.334,496,31.724,496,16H480C480,27.638,476.582,37.5,470.115,44.521ZM32,271.181V240a24.027,24.027,0,0,1,24-24h2.083A55.671,55.671,0,0,0,48,248v15.791A39.111,39.111,0,0,1,32,271.181ZM156.9,480H141.119L100.8,392.634l40.089-36.445-12.376,33a8,8,0,0,0-.1,5.339Zm69.949,0H211.1l28.489-85.47A8,8,0,0,0,240,392V336h24v62.267Zm198-287.7a12.167,12.167,0,0,1-12.554,5.2l-26.728-5.346a8.008,8.008,0,0,0-8.724,4.267l-64,128a7.989,7.989,0,0,0-.805,2.782L296.76,480H280V280H264v40H168V280H152v44.461l-85.381,77.62A8,8,0,0,0,64,408v72H48V394.667L94.4,332.8a8,8,0,0,0-4.46-12.561A34.2,34.2,0,0,1,64,287.015V248a40.045,40.045,0,0,1,40-40H288a8,8,0,0,0,5.979-2.685l42.667-48A8,8,0,0,0,330.667,144h-5a23.885,23.885,0,0,1-22.283-15.086L299.816,120h22.519a24.044,24.044,0,0,1,20.749,12,8,8,0,0,0,6.927,4H388.32l35.642,41.582A12.253,12.253,0,0,1,424.851,192.3ZM436.184,120l-3.565,8.913a23.841,23.841,0,0,1-16.9,14.468L400,125.04v-.749A24.024,24.024,0,0,1,413.665,120Z"/><rect x="368" y="152" width="16" height="16"/></g></svg>
