<?xml version="1.0" encoding="iso-8859-1"?>
<!-- Generator: Adobe Illustrator 19.0.0, SVG Export Plug-In . SVG Version: 6.00 Build 0)  -->
<svg version="1.1" id="Capa_1" xmlns="http://www.w3.org/2000/svg" xmlns:xlink="http://www.w3.org/1999/xlink" x="0px" y="0px"
	 viewBox="0 0 512 512" style="enable-background:new 0 0 512 512;" xml:space="preserve">
<g>
	<g>
		<path d="M442.971,322.427l-57.253-35.729c-4.882-3.073-11.351-1.677-14.543,3.125l-31.214,46.75
			c-2.9,4.344-8.972,5.958-13.667,3.635l-42.732-21.333c-2.545-1.271-4.465-3.469-5.362-6.167c-0.897-2.708-0.689-5.594,0.584-8.135
			c2.566-5.135,9.139-7.375,14.334-4.781l25.852,12.917c4.736,2.365,10.662,0.854,13.667-3.625l32.278-48.333
			c3.088-4.625,9.765-6.073,14.564-3.135l49.45,30.865c3.526,2.208,8.012,2.146,11.497-0.104c3.484-2.271,5.321-6.354,4.736-10.458
			C428.72,164.323,351.999,0,256.292,0c-47.823,0-95.937,41.323-135.497,116.344c-2.191,4.135-1.419,9.208,1.899,12.51
			l35.679,35.615c2.879,2.854,7.094,3.885,10.933,2.573l51.536-17.156c5.028-1.646,10.641,0.677,12.957,5.344l21.366,42.667
			c1.273,2.552,1.481,5.438,0.584,8.146c-0.897,2.698-2.817,4.896-5.362,6.167c-1.502,0.75-3.088,1.125-4.778,1.125
			c-4.069,0-7.741-2.26-9.556-5.896l-13.082-26.115c-2.379-4.76-7.866-7.031-12.936-5.344l-46.529,15.479
			c-3.651,1.24-8.116,0.229-10.912-2.583l-33.968-33.917c-2.525-2.521-6.176-3.625-9.64-2.917c-3.505,0.698-6.426,3.094-7.783,6.396
			C77.896,214.823,64,275.26,64,320.094C64,425.906,150.256,512,256.292,512c101.195,0,185.406-79.01,191.687-179.865
			C448.229,328.229,446.309,324.5,442.971,322.427z"/>
	</g>
</g>
<g>
</g>
<g>
</g>
<g>
</g>
<g>
</g>
<g>
</g>
<g>
</g>
<g>
</g>
<g>
</g>
<g>
</g>
<g>
</g>
<g>
</g>
<g>
</g>
<g>
</g>
<g>
</g>
<g>
</g>
</svg>
