<svg id="Capa_1" enable-background="new 0 0 512.19 512.19" height="512" viewBox="0 0 512.19 512.19" width="512" xmlns="http://www.w3.org/2000/svg"><g><path d="m400.29 193.19c-8.642 0-15.127 6.897-15.127 15 0 8.09 6.473 15 15.127 15 8.284 0 15-6.716 15-15s-6.715-15-15-15z"/><path d="m511.98 301.85c-17.493-113.978-77.934-200.787-191.139-222.708-7.827-15.271-22.351-37.69-46.191-54.764-42.336-30.322-93.18-29.789-142.927-12.435-14.936 5.21-12.969 25.979 1.742 28.945 35.385 7.958 50.243 25.678 58.836 41.115-30.242 6.744-48.672 15.021-69.821 28.998-106.114 70.047-136.443 165.033-116.885 244.763.002.008.005.015.007.023 22.925 93.362 118.772 151.82 122.841 154.263 2.285 1.372 4.908 2.14 7.847 2.14 4.203 0 30.593-.889 48.911-22.465 16.19-19.069 20.798-47.456 13.692-84.37-1.8-9.361-11.905-14.776-20.784-10.889-.248.108-25.139 10.836-55.493 9.697-36.467-1.373-65.137-18.932-85.323-52.222 5.208-9.053 16.124-25.831 32.468-40.095 29.804-26.011 63.767-31.961 100.947-17.684 3.16 1.253 52.94 20.771 118.025 33.738 66.817 13.312 146.351 19.279 209.308-7.68 5.229-2.24 8.95-3.546 11.766-7.959 1.975-3.096 2.745-6.789 2.173-10.411zm-340.194 126.302c1.399 18.547-1.722 32.857-9.243 41.905-7.19 8.649-17.116 11.135-22.43 11.849-10.178-6.737-39.062-27.156-64.587-57.503 30.513 12.555 64.662 12.315 96.26 3.749zm159.909-123.482c-12.868-24.081-33.604-72.69-20.899-117.5 7.249-25.561 24.852-46.787 52.368-63.177 68.401 31.778 103.201 96.308 117.198 171.033-45.268 17.354-100.813 16.169-148.667 9.644zm-48.758-230.214c-22.657-1.292-43.252.078-59.687 2.154-6.291-13.118-16.329-31.488-37.812-46.119 50.335-4.155 80.503 20.637 97.499 43.965zm-101.227 191.797c-52.858-21.143-108.324-8.567-151.287 43.194.427-44.832 18.535-113.967 108.591-173.413 10.705-7.075 19.677-11.892 29.087-15.615 22.468-8.888 50.528-13.814 74.527-15.618 28.776-2.112 58.182-.333 85.672 6.776-59.642 47.073-62.912 117.278-32.795 187.009-63.314-12.559-112.817-31.945-113.795-32.333z"/></g></svg>