<svg height="512" viewBox="0 0 60 61" width="512" xmlns="http://www.w3.org/2000/svg"><g id="016---Macaque-Monkey"><path id="Shape" d="m19 13c0-.5522847-.4477153-1-1-1-.8804076.0551524-1.6929791-.4730191-2-1.3-.1846092-.4947957-.7221481-.7607423-1.2274761-.6072919s-.8042203.6733917-.6825239 1.1872919c.581346 1.6542606 2.1568238 2.7502452 3.91 2.72.5522847 0 1-.4477153 1-1z"/><path id="Shape" d="m9.15 34c-.35510459-.6150891-1.00977788-.9957131-1.72-1h-4.43c-1.65685425 0-3 1.3431458-3 3s1.34314575 3 3 3h2.42l4.51 8c.4611333.8368415 1.4497897 1.2306284 2.36.94 2.0535099-.6598498 3.7684805-2.0949716 4.78-4 .7994631 2.1875912 1.7795086 4.3048911 2.93 6.33v4.73c0 .65-.16.75-1.13 1.11-1.1458539.2735888-2.0993319 1.0644581-2.58 2.14-.2504711.6191199-.175377 1.3224076.2001708 1.8746839.3755478.5522762 1.0019844.8806511 1.6698292.8753161h32.84c2.11 0 9-.94 9-13v-31c0-5.9-3.77-8-7-8-3.3113799-.19889816-6.2614912 2.076658-6.91 5.33-.2740382 1.0592695.0503442 2.1837255.8464773 2.9342726.796133.7505472 1.9377418 1.0081409 2.9790329.6721921 1.0412912-.3359489 1.8171051-1.2121554 2.0244898-2.2864647.14-.63.3-.65 1.06-.65.38 0 1 0 1 2v31c0 4.38-1.12 7-3 7h-5.38c1.6210949-3.4374326 2.4351534-7.1998882 2.38-11 0-6.24-2-21-20-26.53.3848901-.4886514.7198938-1.0146073 1-1.57 2.359122-.492195 4.0314843-2.5971653 3.9775627-5.0064816-.0539216-2.40931624-1.8187828-4.43735984-4.1975627-4.8235184-2.2336372-4.14590933-7.057214-6.17155203-11.5812251-4.86349131-4.5240111 1.30806071-7.52229873 5.59529681-7.1987749 10.29349131.018803.4025977-.20591823.7771331-.57.95-2.36271806.7318061-4.0744113 2.7842712-4.37 5.24-.06.31-.06.31-.06.41-.12635265 2.363268.87165677 4.6472258 2.69169849 6.1599878 1.82004172 1.5127619 4.24797581 2.0763416 6.54830151 1.5200122-.2594204 1.6231168-.3265505 3.2711613-.2 4.91-1.3210098 1.879668-2.4121149 3.9108022-3.25 6.05zm41.85 23c1.5 0 5-.88 5-9v-31c0-2.62-1-4-3-4-1.4341979-.1868259-2.7594154.793835-3 2.22-.0902732.3664244-.3791391.6508207-.7469265.7353696-.3677874.0845488-.751848-.0451518-.9930735-.3353696-.1933848-.2377219-.2670946-.5509888-.2-.85.4584427-2.323797 2.5775976-3.9410468 4.94-3.77 2.42 0 5 1.58 5 6v31c0 10.21-5.35 11-7 11h-8.47c.7055844-.5847113 1.333957-1.2567675 1.87-2zm-26.61-42.56c.6431919.6703077 1.460409 1.148172 2.36 1.38-1.1941742 1.9985316-3.3620666 3.210113-5.69 3.18 1.39-2.26 2.39-2.36 3.33-4.56zm6.61-3.44c0 1.6568542-1.3431458 3-3 3s-3-1.3431458-3-3c0-1.65685425 1.3431458-3 3-3s3 1.34314575 3 3zm-4.51-4.74c-.9489083.29903002-1.7854137.87761287-2.4 1.66-1.5998101-2.97666998-5.0027866-4.50369921-8.29-3.72 3.5531799-2.21758907 8.215336-1.31917546 10.69 2.06zm-16.49 17.1c1.3985653-.6568164 2.6711597-1.5537247 3.76-2.65.3921222-.3921222.3921222-1.0278778 0-1.42s-1.0278778-.3921222-1.42 0c-1.1546578 1.1797157-2.56888485 2.0734525-4.13 2.61-.67183676-.8313764-1.09170175-1.8376644-1.21-2.9h1c.55228475 0 1-.4477153 1-1s-.44771525-1-1-1h-.76c.49493202-1.2936198 1.5627857-2.2838786 2.89-2.68 1.1584157-.4705036 1.9035562-1.6101302 1.87-2.86.010858-2.50178561 1.7087924-4.6810405 4.1319827-5.303293 2.4231902-.6222525 4.9610356.46929392 6.1759356 2.65631639 1.2148999 2.18702251.8007212 4.91843031-1.0079183 6.64697661-.8116399.8011136-1.5143379 1.7055431-2.09 2.69-.79 1.33-1.25 2-1.83 2.88-.6672172 1.2900365-1.8209133 2.2610826-3.2058947 2.6983464s-2.8871046.304708-4.1741053-.3683464zm11-2.36c1.9943157.0185108 3.9337609-.6526998 5.49-1.9 16.95 4.69 19.51 17.58 19.51 24.9s-2.81 15-9 15h-11.85c.53-1.32 3.27-.8 3.81-3.26.1256337-.5545732.009267-1.1364069-.32-1.6-.4791247-.9744477-.6995206-2.0557647-.64-3.14 0-4.52 3.68-8.14 7.25-9 .3572656-.0875301.6406959-.3590101.7435254-.7121762s.0094361-.734364-.245-1c-.2544361-.2656361-.6312598-.3753539-.9885254-.2878238-4.25 1.09-8.76 5.3-8.76 11-.0746893 1.4954033.2717796 2.9817551 1 4.29-.24 1.12-3.35.55-3.92 3.69h-4.93c.22-.53.65-.72 1.41-1 1-.35 2.44-.89 2.44-3v-17.98c0-.5522847-.4477153-1-1-1s-1 .4477153-1 1v8.84c-2.19-4.93-4-11.46-4-16.84.0308863-1.3794419.1747003-2.7540369.43-4.11 2.95-1.81 2.3-3.89 4.57-3.89zm-8.35 16.51c.5082708-1.2544925 1.0926923-2.4767683 1.75-3.66.3702095 2.3085413.9049044 4.5876784 1.6 6.82-.2325551 2.4888693-1.9415457 4.5925459-4.33 5.33l-4.51-8c-.36045327-.6243901-1.02906457-1.0064537-1.75-1h-2.41c-.55228475 0-1-.4477153-1-1s.44771525-1 1-1h4.43l1.67 2.77c.39013812.6408825 1.1061546 1.0094982 1.8544424.9546941.7482878-.0548042 1.4029574-.5238083 1.6955576-1.2146941z"/></g></svg>