<svg height="512" viewBox="0 0 60 60" width="512" xmlns="http://www.w3.org/2000/svg"><g id="Page-1" fill="none" fill-rule="evenodd"><g id="046---Snake" fill="rgb(0,0,0)" fill-rule="nonzero" transform="translate(-1)"><path id="Shape" d="m61 41.13c.0000552-.3688869-.2029784-.707846-.528235-.881874-.3252565-.1740279-.7199063-.1548582-1.026765.049874-3.783 2.524-6.562 1.557-11.169-.039-2.3098174-.8434644-4.6684394-1.5467432-7.063-2.106-1.2138097-.2705736-2.450111-.4279149-3.693-.47-2.667-2.668-3.485-7.194-3.68-10.585 1.1442546-3.1843378 1.8703207-6.5037374 2.16-9.875.019-.2.038-.4.058-.582 1.4859642 1.528068 2.512054 3.4433664 2.961 5.527.0779381.4572471.4600732.8008789.923.83l.058.002c.4417682.0000307.8312125-.2898167.958-.713.5295763-1.6822507.795394-3.4363776.788-5.2.5247725.7167765.9710009 1.4878698 1.331 2.3.1559977.3716861.5199048.6133709.923.613.0512343-.0000188.1023892-.004031.153-.012.4549361-.0700047.8033255-.44151.844-.9.457-5.032-.232-8.594-2.051-10.585-.1671038-.18028684-.3468964-.34838293-.538-.503.7192184-.68215312 1.1542473-1.61078641 1.218-2.6.133-2.133-1.5-4.636-6.5-5.26-5.826-.728-7.864 1.527-10.026 3.917-1.0318665 1.25291301-2.2524793 2.33756472-3.618 3.215-3.617 2.17-5.262 6.167-6.854 10.033-.6995478 1.8274701-1.5307286 3.6017921-2.487 5.309-.7215731 1.197844-1.5234061 2.3454675-2.4 3.435-.614.773-1.216 1.472-1.8 2.144-1.50799932 1.6131563-2.80074913 3.4148045-3.846 5.36-1.05968371 2.0885317-1.94082413 4.2629481-2.634 6.5-.127.409-.253.835-.375 1.276l-.112.363c-.009.033-.017.066-.024.1-1.38355315 5.6289466-2.03890732 11.4121951-1.95 17.208 0 .5522847.44771525 1 1 1h22c.3211991-.0000294.6228339-.1543448.8107989-.4148022.187965-.2604573.2393788-.5953504.1382011-.9001978-.4895645-1.6900183-.6827524-3.4520539-.571-5.208.0595941-.9303186.2273924-1.8505241.5-2.742l.291.035c.937.1 1.82.2 2.671.346 2.1760634.264244 4.2791281.9529213 6.19 2.027 2.1426266 1.1147904 4.3544926 2.0911245 6.622 2.923 1.6681848.686413 3.4452358 1.0704023 5.248 1.134 3.86 0 5.04-2.554 5.76-4.116.082-.178.161-.348.24-.505.239-.478.7-.682 1.437-.974.117-.047.227-.1.342-.148 1.6484354.7580111 3.3818043 1.315657 5.163 1.661.0522114.0086375.105083.0126531.158.012.4043959-.0000863.7689341-.2437275.923678-.6173454.1547439-.373618.0692299-.8036603-.216678-1.0896546-1.4272448-1.4375073-2.7527767-2.9725448-3.967-4.594-.014-.019-.029-.038-.043-.058 5.238-1.516 5.303-5.459 5.303-5.641zm-26.035-3.362c-.072.008-.148.01-.219.019-1.1281781.1290197-2.2400533.3739807-3.318.731-.3322589-1.9484566-.4062294-3.9322099-.22-5.9.37-.6.717-1.222 1.048-1.863.3806869 2.5072715 1.3053037 4.9008993 2.709 7.013zm-5.579-5.994c-1.3263721 2.3490467-3.333617 4.2408847-5.757 5.426-.3454895.1376825-.5860294.4557248-.6244494.8256483-.0384199.3699235.1316277.7306091.4414494.9363517 0 0 1.7 1.128 4.341 2.944 1.128.768 2.425 1.665 3.838 2.652l.963.674c.374.262.777.549 1.165.821-2.1928349-.4280647-4.3327086-1.0929612-6.382-1.983-5.028-2.009-7.371-4.81-7.371-6.07 0-1.494.736-2.309 5.625-6.219 2.805-2.244 5.555-6.173 7.505-9.333-.3234194 1.4121151-.7362514 2.8022498-1.236 4.162-.01.0273333-.019.0543333-.027.081-.253.693-.543 1.394-.887 2.142-.01.024-.021.05-.03.076-.4595967.9874292-.9820006 1.9443903-1.564 2.865zm.577 9.2c-.362-.248-.714-.49-1.047-.716-1.205-.828-2.214-1.513-2.957-2.015 1.1807617-.7693195 2.2455246-1.7034284 3.162-2.774.0329026 1.5607502.2340662 3.1133979.6 4.631.07.294.155.584.242.872zm9.749-22.715c-.7877845-1.5522729-1.925339-2.9003588-3.323-3.938.2035958-1.2210435.5681019-2.4097233 1.084-3.535.9496202 1.1491713 1.6247287 2.4997303 1.974 3.949.2721165 1.1528957.3615386 2.3413662.265 3.522zm3.412-2.667c-.5194951-.6737168-1.1445715-1.2589449-1.851-1.733-.4739475-1.7125379-1.3285396-3.2959262-2.5-4.632.3896213-.13866345.798606-.21526372 1.212-.227.6134258.09629091 1.1659079.42591708 1.542.92.729.839 1.503 2.48 1.597 5.67zm-37.47 24.22c.286-.855.455-1.294.608-1.691s.307-.776.458-1.134c.22-.519.389-.906.7-1.572 1.01076283-2.1827108 2.3781531-4.1817502 4.046-5.915l.484-.563c.033.35.05.706.05 1.064.0003917 4.2947649-2.498793 8.1970074-6.4 9.993.015-.061.034-.123.054-.182zm-1.24 4.5c1.03847264 1.7154622 1.58700223 3.6826983 1.586 5.688-.00320049 2.7962147-1.07001765 5.486496-2.984 7.525.03053219-4.438588.49879914-8.8633422 1.398-13.21zm9.625 13.688h-2.007c.223-3.778 1.65-5.268 1.656-5.275.2341802-.2231543.345952-.5458022.3-.866-.3202353-1.9102086-.0672529-3.8724752.727-5.639.3898591.6007043.8591049 1.1459713 1.395 1.621-.2513186 1.2681186-.3049528 2.5674831-.159 3.852-1.2415095 1.8695929-1.9063743 4.0627425-1.912 6.307zm1.993 0c.0434969-1.5383697.416919-3.0494503 1.095-4.431 1.0622135.9583033 2.4318815 1.5055322 3.862 1.543.4629368-.0013314.9236411-.0642159 1.37-.187.0303381 1.0332545.1491054 2.062013.355 3.075zm6.409-5.231c-1.5848184.6654774-3.4189876.1864462-4.476-1.169-.1024045-.8297517-.1104559-1.6684353-.024-2.5 1.2286763.5943713 2.5379779 1.0050863 3.886 1.219.346.065.695.111 1.044.162-.2073886.7492247-.3512315 1.5146028-.43 2.288zm27.664-1.086c-.086.174-.174.363-.265.56-.9 1.949-2.019 4.378-8.488 1.95-2.1970195-.8026587-4.3392489-1.7480055-6.413-2.83-2.0952369-1.1654235-4.3943389-1.9186654-6.773-2.219-.9-.153-1.856-.259-2.778-.363-1.061-.118-2.158-.241-3.2-.435-4.315-.777-7.188-2.641-7.188-9.216 0-.5522847-.4477153-1-1-1s-1 .4477153-1 1c-.0285625 1.6461554.2036446 3.2864552.688 4.86-1.4822398 2.2758791-2.0979346 5.0083576-1.735 7.7-1.2427787 1.8702231-1.9083691 4.0645153-1.914 6.31h-4.81c1.79045642-2.2827647 2.76587489-5.0988411 2.771-8-.00028788-2.8031756-.90901743-5.5307677-2.59-7.774 5.1533272-1.8583619 8.5886762-6.7478353 8.59-12.226-.0004145-1.049392-.129034-2.094803-.383-3.113.8113157-1.0345398 1.5593468-2.1171813 2.24-3.242 1.0104158-1.7925935 1.8871312-3.6573266 2.623-5.579 1.536-3.728 2.985-7.249 6.035-9.079 1.5353606-.97696589 2.9091637-2.18714061 4.072-3.587 2.031-2.248 3.494-3.872 8.289-3.274 3.622.453 4.83 1.925 4.754 3.152-.0294347.90371471-.7292603 1.64303969-1.63 1.722-1.2920326-.01868435-2.5354152.49225521-3.441 1.414-.007.008-.017.01-.024.018s-.013.026-.023.037c-.024.034-.056.058-.078.093-1.1545559 1.8318593-1.8825044 3.8998483-2.13 6.051-.105.618-.194 1.335-.28 2.228-.654 1.255-5.206 9.823-9.649 13.378-4.948 3.959-6.375 5.215-6.375 7.781 0 2.636 3.548 5.9 8.63 7.929 4.553 1.814 5.955 2.032 10.861 2.73 2.1485484 1.5163848 4.7397681 2.2764806 7.367 2.161h.005c.031 0 .063 0 .094-.005 1.6687618-.177098 3.2486166-.8409639 4.543-1.909.620237.499951 1.2733757.9576492 1.955 1.37-.5801959.3239386-1.0503186.813911-1.35 1.407zm-12.031-5.038c2.0388847-.2419958 4.1019623-.1897958 6.126.155.1702562.6759282.1522733 1.3855628-.052 2.052-2.1997038-.1122471-4.3153289-.8809637-6.074-2.207zm7.86-1.056v-.006c.9072376.3809328 1.7087423.9758854 2.336 1.734-.5984685.4813164-1.2690198.8653564-1.987 1.138.1228158-.9694938.0028919-1.9543126-.349-2.866zm7.9-.445c-.3361682.0560298-.6206564.2794077-.754833.5926888-.1341766.313281-.0995657.6733273.091833.9553112 0 0 .349.515.967 1.337.447.6 1.033 1.347 1.734 2.175-.551-.206-1.143-.453-1.751-.745-1.2264092-.5794901-2.3786814-1.3043606-3.432-2.159-.0609671-.1163303-.1304918-.2279708-.208-.334-1.3904793-2.274357-3.8181863-3.7112779-6.481-3.836-.3600737-.002392-.693053.1909107-.8695279.5047823-.1764749.3138717-.1686139.6988124.0205279 1.0052177-2.4282095-.32979-4.8978981-.1692925-7.263.472-.732-.52-1.459-1.031-2.153-1.517l-.761-.534c-.4429281-.8252688-.802698-1.6925352-1.074-2.589 1.0018524-.3449017 2.0383015-.57962 3.091-.7.6901883-.0853447 1.3858085-.1187719 2.081-.1 1.2496359.0130986 2.4943227.1592563 3.713.436 2.3182021.5429929 4.6016562 1.2248901 6.838 2.042 3.734 1.295 6.839 2.372 10.3 1.156-1.1318615 1.032233-2.5637065 1.6761603-4.087 1.838z"/><path id="Shape" d="m44 25c-5.619 0-7.84 5.531-7.932 5.767-.1727284.4431066-.0094871.9465625.390389 1.204007s.9257465.1976461 1.257611-.143007c.015-.016 1.69-1.614 5.036-.755 1.6102236.493839 3.3605173.0021308 4.478-1.258.7416427-.8224798.9368822-2.0013356.5-3.019-.32-.671-1.224-1.796-3.73-1.796zm1.689 3.541c-.6271706.6581198-1.5802778.8905373-2.44.595-.7863113-.2077332-1.5957252-.3152519-2.409-.32-.3945621.0001318-.7885953.0288738-1.179.086 1.121681-1.2059008 2.6920921-1.8942903 4.339-1.902 1.188 0 1.769.335 1.916.648.0977106.3166844.0100793.6614189-.227.893z"/><path id="Shape" d="m58.881 32.05c-4.662-3.135-9.593.218-9.8.361-.3902856.271343-.5356242.7799275-.3476463 1.2165213.1879779.4365939.6573165.6805256 1.1226463.5834787.024 0 2.3-.4 4.6 2.182.8332271.9979698 2.0591142 1.5844541 3.359 1.607.358559.0011103.7154577-.0487209 1.06-.148 1.0752335-.2697716 1.8952198-1.140519 2.1-2.23.108-.736-.014-2.174-2.094-3.572zm.113 3.266c-.0951202.3175019-.3600324.5549961-.686.615-.8881774.197665-1.8099601-.1416511-2.358-.868-.7874974-.9114291-1.7502517-1.6551747-2.831-2.187 1.5977563-.3737769 3.2789359-.0720546 4.647.834.985.662 1.28 1.264 1.228 1.606z"/><path id="Shape" d="m56.478 16.146c-5.5 1.135-6.561 7-6.6 7.25-.0475013.2893417.034379.5849522.2239772.8086204.1895983.2236682.4678084.3528546.7610228.3533796.3355171-.000413.6490177-.1670889.837-.445.053-.08 1.342-1.926 4.785-1.767 1.6771433.159097 3.292708-.6758524 4.133-2.136.5586702-.9562638.5102605-2.1501088-.124-3.058-.449-.592-1.558-1.513-4.016-1.006zm2.37 3.126c-.4817843.7715329-1.3687974 1.1917997-2.271 1.076-1.2083086-.0768324-2.4196041.0932934-3.56.5.8528425-1.4111074 2.2520633-2.4059479 3.865-2.748.3038717-.0642067.6134275-.0977084.924-.1.3958659-.0495697.7932325.0798311 1.084.353.1602179.2897908.1439828.6450312-.042.919z"/><path id="Shape" d="m27.8 23.728v-.007c1.1218493-1.6975087 1.8832353-3.6072704 2.237-5.611.6067421-2.9557577.9292122-5.9627997.963-8.98.000447-.46294949-.3169268-.86568174-.7671515-.97347866s-.9155793.10752731-1.1248485.52047866c-.9262985 1.4738412-2.1805807 2.7137496-3.665 3.623-.9879771.6547758-1.8191124 1.5197165-2.434 2.533l-.007.01c-.016.026-.034.048-.05.074-.4750479.833399-.8900992 1.699593-1.242 2.592l-.257.6c-.3512917.8564323-.7797219 1.6791521-1.28 2.458-.221.326-.441.669-.713 1.095-1.743 2.807-3.289 5.89-3.355 6.02-.1554141.3101457-.1389869.6786803.0434053.9737685.1823922.2950881.5046887.4745668.8515947.4742315.0471825.0001544.0943116-.0031881.141-.01 2.4333309-.3966111 4.7864253-1.1844655 6.968-2.333 1.4342127-.745068 2.6926461-1.7880233 3.691-3.059zm-1.247-9.766c.8240146-.5457487 1.5977429-1.1638612 2.312-1.847-.082 1.1-.221 2.415-.437 3.757-.7614446-.6287556-1.6517838-1.0824598-2.608-1.329.2303496-.2115123.476019-.4057081.735-.581zm-2.117 2.423c1.3788168.0723307 2.6631295.7230201 3.537 1.792-.2405052 1.0550062-.5855432 2.0834205-1.03 3.07-.8762541-1.2701439-1.9958842-2.3537446-3.294-3.188.251-.591.509-1.149.789-1.674zm-5.56 10.315c.377-.7.845-1.546 1.352-2.419.3524194.5662483.7856593 1.0779834 1.286 1.519-.8593861.3555639-1.7404941.6561694-2.638.9zm2.559-4.4c.131-.205.262-.411.4-.608.3753529-.5687281.7095392-1.1635797 1-1.78 1.1741345.8420192 2.1688148 1.9094478 2.926 3.14-.644928.6837766-1.3860464 1.2699339-2.2 1.74-.9674199-.5695262-1.7159726-1.4469455-2.126-2.492z"/><path id="Shape" d="m33.694 5.85c.316-.292.487-.124.6-.013.3923789.37897221 1.0160848.37355237 1.4018186-.01218142.3857338-.3857338.3911536-1.00943969.0121814-1.40181858-.4431133-.47043893-1.0607321-.73715175-1.707-.73715175s-1.2638867.26671282-1.707.73715175c-.3829363.38403233-.3856115 1.00468083-.006 1.392.3824398.38915143 1.0046713.40464084 1.406.035z"/></g></g></svg>