<?xml version="1.0"?>
<svg xmlns="http://www.w3.org/2000/svg" width="512" height="512" viewBox="0 0 128 128"><g><path d="M122.028,64.319C123.421,62.341,125,60.1,125,57.493s-1.579-4.847-2.972-6.826a12.472,12.472,0,0,1-2.182-3.938,12.818,12.818,0,0,1,.341-4.634c.455-2.457.925-5-.124-7.3s-3.285-3.63-5.441-4.9a12.6,12.6,0,0,1-3.692-2.769,12.505,12.505,0,0,1-1.532-4.339c-.568-2.434-1.156-4.951-3.035-6.661-1.846-1.679-4.379-2.031-6.829-2.372a12.568,12.568,0,0,1-4.541-1.16,12.33,12.33,0,0,1-3.035-3.439C90.525,7.11,89.042,5,86.662,4.1c-2.307-.871-4.773-.282-7.158.289a12.614,12.614,0,0,1-4.7.571,12.16,12.16,0,0,1-4.033-2.114C68.794,1.512,66.558,0,64,0s-4.793,1.51-6.766,2.843A12.159,12.159,0,0,1,53.2,4.96a12.63,12.63,0,0,1-4.7-.571c-2.386-.571-4.852-1.16-7.159-.289-2.38.9-3.862,3.01-5.3,5.053a12.344,12.344,0,0,1-3.034,3.439,12.574,12.574,0,0,1-4.541,1.16c-2.45.34-4.983.692-6.829,2.371-1.88,1.71-2.467,4.227-3.035,6.661a12.518,12.518,0,0,1-1.532,4.34,12.621,12.621,0,0,1-3.693,2.769c-2.156,1.274-4.385,2.591-5.44,4.9s-.58,4.841-.125,7.3a12.817,12.817,0,0,1,.342,4.633,12.52,12.52,0,0,1-2.183,3.939C4.579,52.645,3,54.888,3,57.493s1.579,4.847,2.972,6.826a12.5,12.5,0,0,1,2.182,3.939,12.82,12.82,0,0,1-.341,4.634c-.455,2.457-.925,5,.124,7.3s3.285,3.629,5.441,4.9a12.617,12.617,0,0,1,3.692,2.768A12.518,12.518,0,0,1,18.6,92.2c.568,2.434,1.156,4.951,3.035,6.661a9.452,9.452,0,0,0,4.863,2.069v18.316A8.76,8.76,0,0,0,35.25,128h2a8.76,8.76,0,0,0,8.75-8.75v-8.116c.835-.141,1.671-.336,2.5-.533a12.619,12.619,0,0,1,4.7-.572,12.146,12.146,0,0,1,4.033,2.115c1.973,1.333,4.209,2.844,6.767,2.844s4.793-1.511,6.766-2.844a12.159,12.159,0,0,1,4.034-2.115,12.587,12.587,0,0,1,4.7.572c.826.2,1.662.393,2.5.533v8.116A8.76,8.76,0,0,0,90.75,128h2a8.76,8.76,0,0,0,8.75-8.75V100.931a9.44,9.44,0,0,0,4.862-2.068c1.88-1.71,2.467-4.227,3.035-6.66a12.532,12.532,0,0,1,1.532-4.341,12.627,12.627,0,0,1,3.692-2.768c2.157-1.275,4.386-2.592,5.441-4.9s.58-4.841.125-7.3a12.822,12.822,0,0,1-.342-4.634A12.5,12.5,0,0,1,122.028,64.319ZM37.25,124.5h-2a5.256,5.256,0,0,1-5.25-5.25v-17.78a8.657,8.657,0,0,1,3.007.927,12.33,12.33,0,0,1,3.035,3.439c1.433,2.043,2.916,4.155,5.3,5.053a6.56,6.56,0,0,0,1.162.308v8.053A5.256,5.256,0,0,1,37.25,124.5Zm55.5,0h-2a5.256,5.256,0,0,1-5.25-5.25v-8.054a6.667,6.667,0,0,0,1.162-.307c2.38-.9,3.862-3.01,5.3-5.053a12.329,12.329,0,0,1,3.034-3.439A8.669,8.669,0,0,1,98,101.467v17.78A5.256,5.256,0,0,1,92.75,124.5ZM119.166,62.3a15.047,15.047,0,0,0-2.741,5.21,15.364,15.364,0,0,0,.321,6.014c.372,2.013.723,3.913.132,5.209-.6,1.311-2.269,2.3-4.037,3.344a15.156,15.156,0,0,0-4.73,3.706,15.067,15.067,0,0,0-2.122,5.62c-.467,2-.908,3.89-1.982,4.867-1.045.95-2.945,1.214-4.956,1.494a15.123,15.123,0,0,0-5.88,1.637,14.855,14.855,0,0,0-4.078,4.418c-1.18,1.682-2.3,3.272-3.667,3.789a4.137,4.137,0,0,1-1.618.206c-.02,0-.038-.006-.058-.006s-.019,0-.029,0a20.22,20.22,0,0,1-3.405-.622,15.089,15.089,0,0,0-6.136-.611,14.661,14.661,0,0,0-5.374,2.659c-1.707,1.154-3.32,2.244-4.806,2.244s-3.1-1.09-4.807-2.244a14.657,14.657,0,0,0-5.373-2.659,8.346,8.346,0,0,0-1.486-.127,20.365,20.365,0,0,0-4.651.738,20.275,20.275,0,0,1-3.4.622c-.01,0-.019,0-.029,0s-.039,0-.059.006a4.14,4.14,0,0,1-1.618-.206c-1.37-.518-2.486-2.107-3.667-3.79A14.867,14.867,0,0,0,34.828,99.4a15.157,15.157,0,0,0-5.879-1.637c-2.012-.279-3.911-.543-4.956-1.494-1.075-.977-1.516-2.867-1.983-4.867a15.072,15.072,0,0,0-2.121-5.62,15.179,15.179,0,0,0-4.73-3.706c-1.769-1.045-3.439-2.033-4.037-3.343s-.24-3.2.132-5.209a15.386,15.386,0,0,0,.32-6.015A15.023,15.023,0,0,0,8.834,62.3C7.634,60.6,6.5,58.989,6.5,57.493s1.134-3.106,2.334-4.811a15.042,15.042,0,0,0,2.741-5.209,15.368,15.368,0,0,0-.321-6.015c-.372-2.012-.723-3.914-.132-5.209.6-1.311,2.269-2.3,4.037-3.343a15.145,15.145,0,0,0,4.73-3.707,15.069,15.069,0,0,0,2.122-5.619c.467-2,.908-3.89,1.982-4.868,1.045-.95,2.945-1.214,4.956-1.493a15.157,15.157,0,0,0,5.88-1.637,14.867,14.867,0,0,0,4.078-4.418c1.18-1.683,2.3-3.272,3.667-3.79,1.3-.492,3.152-.049,5.11.419A15.154,15.154,0,0,0,53.82,8.4a14.679,14.679,0,0,0,5.374-2.66C60.9,4.591,62.514,3.5,64,3.5s3.1,1.089,4.807,2.244A14.688,14.688,0,0,0,74.18,8.4a15.126,15.126,0,0,0,6.137-.612c1.957-.468,3.806-.909,5.11-.419,1.37.518,2.486,2.107,3.667,3.79a14.867,14.867,0,0,0,4.078,4.418,15.157,15.157,0,0,0,5.88,1.637c2.011.279,3.911.544,4.955,1.494,1.074.977,1.515,2.867,1.983,4.868a15.074,15.074,0,0,0,2.121,5.619,15.179,15.179,0,0,0,4.73,3.706c1.769,1.045,3.439,2.033,4.037,3.343s.24,3.2-.132,5.209a15.387,15.387,0,0,0-.32,6.015,15.014,15.014,0,0,0,2.74,5.209c1.2,1.7,2.334,3.315,2.334,4.811S120.366,60.6,119.166,62.3Z"/><path d="M73.131,57.885l-3.6-.363A1.75,1.75,0,0,0,69.181,61l3.6.364c.059,0,.119.009.178.009a1.75,1.75,0,0,0,.173-3.492Z"/><path d="M58.467,57.522l-3.6.363a1.75,1.75,0,0,0,.173,3.492c.059,0,.119,0,.178-.009l3.6-.364a1.75,1.75,0,1,0-.352-3.482Z"/><path d="M103.01,54.885,88.889,48.074a20.3,20.3,0,0,0,1.5-1.983,10.435,10.435,0,0,1,1.329-1.7,1.75,1.75,0,0,0-2.347-2.6A12.923,12.923,0,0,0,87.5,44.109a7.454,7.454,0,0,1-2.648,2.773c-.021.01-.042.018-.062.029a7.307,7.307,0,0,1-2.967.121,13.43,13.43,0,0,0-4.192.14,11.627,11.627,0,0,0-3.466,1.708,7.984,7.984,0,0,1-3.06,1.444,7.7,7.7,0,0,1-2.992-.683A12.466,12.466,0,0,0,64,48.708a12.466,12.466,0,0,0-4.115.933,7.685,7.685,0,0,1-2.992.683,7.984,7.984,0,0,1-3.06-1.444,11.639,11.639,0,0,0-3.466-1.708,13.432,13.432,0,0,0-4.192-.14,7.313,7.313,0,0,1-2.969-.123l-.062-.028A7.444,7.444,0,0,1,40.5,44.108a12.923,12.923,0,0,0-1.867-2.316,1.75,1.75,0,0,0-2.347,2.6,10.435,10.435,0,0,1,1.329,1.7,20.322,20.322,0,0,0,1.5,1.984L24.99,54.885A1.751,1.751,0,0,0,24,56.461a9.071,9.071,0,0,0,13.027,8.181l7.723-3.725v4.9a19.25,19.25,0,0,0,38.5,0v-4.9l7.723,3.725A9.083,9.083,0,0,0,104,56.461,1.751,1.751,0,0,0,103.01,54.885Zm-67.5,6.6A5.584,5.584,0,0,1,27.6,57.513l14.857-7.165a7.851,7.851,0,0,0,2.3.264v6.419ZM65.75,81.468V77.221c3.194-.476,5.438-2.239,5.438-4.474a1.772,1.772,0,0,0-1.746-1.78,1.722,1.722,0,0,0-1.746,1.72c-.133.332-1.429,1.165-3.7,1.165s-3.562-.833-3.687-1.105a1.75,1.75,0,0,0-3.5,0c0,2.235,2.243,4,5.437,4.474v4.247a15.77,15.77,0,0,1-14-15.647V50.44a5.8,5.8,0,0,1,1.294.134,9.126,9.126,0,0,1,2.4,1.254A10.765,10.765,0,0,0,56.51,53.8a10.213,10.213,0,0,0,4.543-.863A9.641,9.641,0,0,1,64,52.208a9.641,9.641,0,0,1,2.947.732,11.744,11.744,0,0,0,3.9.9,5.838,5.838,0,0,0,.643-.035,10.765,10.765,0,0,0,4.563-1.975,9.137,9.137,0,0,1,2.4-1.254,5.871,5.871,0,0,1,1.3-.133v15.38A15.77,15.77,0,0,1,65.75,81.468ZM97.887,61.189a5.551,5.551,0,0,1-5.394.3L83.25,57.031V50.613a7.863,7.863,0,0,0,2.3-.266L100.4,57.513A5.553,5.553,0,0,1,97.887,61.189Z"/></g></svg>
