<svg width="292" height="313" viewBox="0 0 292 313" fill="none" xmlns="http://www.w3.org/2000/svg">
<g clip-path="url(#clip0)">
<g clip-path="url(#clip1)">
<path d="M240.77 136.566C242.99 135.933 244.277 133.621 243.645 131.401C243.012 129.181 240.7 127.894 238.48 128.526C236.26 129.159 234.973 131.472 235.605 133.692C236.238 135.912 238.55 137.198 240.77 136.566Z" fill="black"/>
<path d="M251.924 55.9792C246.866 38.7302 228.766 28.7274 211.449 33.6618C194.05 38.6196 183.928 56.8084 188.886 74.2076C189.518 76.4277 191.831 77.7145 194.051 77.0819C196.271 76.4493 197.558 74.1369 196.925 71.9169C193.23 58.9506 200.774 45.3959 213.74 41.7012C226.706 38.0066 240.261 45.5496 243.955 58.5159C243.976 58.5875 243.998 58.6581 244.022 58.7278C246.607 68.1092 243.408 78.1009 235.836 84.2379C228.768 89.9665 225.836 99.4032 228.365 108.279L231.024 117.613C231.657 119.833 233.969 121.12 236.189 120.487C238.409 119.855 239.696 117.542 239.064 115.322L236.404 105.989C234.794 100.338 236.637 94.3493 241.1 90.7323C251.335 82.4367 255.614 68.8909 252.001 56.2223C251.978 56.1399 251.952 56.0591 251.924 55.9792Z" fill="black"/>
</g>
<path d="M217.16 205.065L189.092 187.549C186.699 186.043 183.528 186.727 181.963 189.081L166.661 212C165.239 214.129 162.262 214.92 159.961 213.782L139.012 203.323C137.764 202.7 136.823 201.623 136.383 200.3C135.943 198.973 136.045 197.558 136.67 196.312C137.927 193.795 141.15 192.697 143.697 193.968L156.37 200.301C158.692 201.46 161.597 200.719 163.07 198.524L178.894 174.829C180.408 172.562 183.681 171.852 186.034 173.292L210.276 188.423C212.004 189.506 214.204 189.475 215.912 188.372C217.62 187.259 218.521 185.257 218.234 183.245C210.173 127.557 172.562 47 125.643 47C102.199 47 78.6115 67.258 59.2179 104.036C58.1438 106.063 58.5222 108.55 60.1488 110.169L77.6399 127.628C79.0513 129.027 81.1176 129.533 82.9996 128.89L108.264 120.479C110.729 119.672 113.481 120.811 114.616 123.099L125.091 144.016C125.715 145.267 125.817 146.682 125.377 148.009C124.937 149.332 123.996 150.41 122.748 151.033C122.012 151.4 121.234 151.584 120.406 151.584C118.411 151.584 116.611 150.476 115.721 148.694L109.308 135.891C108.142 133.558 105.452 132.444 102.966 133.271L80.1563 140.86C78.3664 141.468 76.1775 140.972 74.8068 139.594L58.1545 122.966C56.9167 121.73 55.1269 121.189 53.4287 121.536C51.7104 121.878 50.2784 123.053 49.6132 124.672C38.1873 152.314 31.375 181.942 31.375 203.921C31.375 255.794 73.6607 298 125.643 298C175.252 298 216.536 259.267 219.615 209.824C219.737 207.909 218.796 206.081 217.16 205.065Z" fill="black"/>
</g>
<defs>
<clipPath id="clip0">
<rect width="292" height="313" fill="white"/>
</clipPath>
<clipPath id="clip1">
<rect width="107" height="107" fill="white" transform="translate(160 48.3218) rotate(-15.9045)"/>
</clipPath>
</defs>
</svg>
