<svg width="264" height="264" viewBox="0 0 264 264" fill="none" xmlns="http://www.w3.org/2000/svg">
<g clip-path="url(#clip0)">
<path d="M264 0H0V264H264V0Z" fill="white"/>
<path d="M231.384 83.1101C232.523 82.008 233.447 80.5479 236.576 76.8426M226.706 78.5343C228.85 76.6696 230.367 74.4348 230.852 72.8254L226.706 78.5343ZM226.751 78.3006C227.681 76.3382 229.299 74.8128 231.48 72.4568L226.751 78.3006ZM227.706 79.2965C228.869 76.9414 231.273 75.3788 232.335 74.478L227.706 79.2965ZM227.239 79.9214C228.659 78.4542 229.159 77.4099 232.39 73.9196L227.239 79.9214ZM226.863 81.1118C229.392 79.9266 232.469 77.3381 234.583 73.8424L226.863 81.1118ZM227.992 81.7735C229.525 79.6157 231.27 77.2333 234.209 74.0371L227.992 81.7735ZM228.554 82.2871C230.319 81.6592 232.471 79.6807 234.972 76.1684L228.554 82.2871ZM229.885 82.4894C231.742 80.8277 232.903 78.3278 235.98 75.0928L229.885 82.4894ZM231.122 82.2962C233.499 80.8737 234.596 80.1732 236.596 77.8225L231.122 82.2962Z" stroke="#6B6B6B" stroke-width="1.84978"/>
<path d="M231.176 72.734C229.282 72.9267 229.46 73.1832 226.515 73.6764L231.176 72.734ZM231.148 71.9116C229.303 72.1783 229.02 72.4204 227.492 74.8902L231.148 71.9116ZM227.53 74.2453C227.552 75.3585 225.058 76.7373 225.397 77.1813L227.53 74.2453ZM227.871 75.0907C227.044 74.9529 226.591 75.3798 227.103 77.373L227.871 75.0907ZM226.019 77.8902C226.879 78.7097 226.904 80.8711 228.3 81.5026L226.019 77.8902ZM225.743 78.6896C224.871 78.9985 225.69 79.7715 228.119 80.5473L225.743 78.6896ZM227.53 81.5357C228.735 82.7916 229.249 83.8779 232.022 82.6857L227.53 81.5357ZM227.739 81.7611C227.399 82.2079 230.674 83.7963 231.846 83.1317L227.739 81.7611ZM231.176 83.0465C232.181 83.231 234.594 82.9397 235.771 82.1519L231.176 83.0465ZM232.017 82.3628C231.4 83.0149 233.434 83.371 235.729 80.5487L232.017 82.3628ZM234.821 81.5357C236.52 80.5966 236.228 78.4495 236.114 77.0211L234.821 81.5357ZM234.425 81.6096C235.865 79.5815 235.72 79.1052 235.638 78.7636L234.425 81.6096ZM236.332 77.8902C236.885 76.2667 236.099 75.0965 235.577 73.3753L236.332 77.8902ZM236.34 77.3811C236.786 76.5866 236.288 74.4128 234.628 73.48L236.34 77.3811ZM234.821 74.2453C233.6 73.6173 232.27 73.5548 230.783 72.5827L234.821 74.2453ZM234.681 74.1696C234.382 74.4043 232.626 72.9498 232.327 73.2345L234.681 74.1696Z" stroke="#6B6B6B"/>
<path d="M208.743 84.1355C209.975 82.0474 211.188 81.0734 213.31 78.5013M202.582 78.9861C205.054 76.7153 206.173 74.6479 208.069 72.8416L202.582 78.9861ZM203.042 78.9658C204.577 77.0468 206.415 75.7342 208.329 73.7395L203.042 78.9658ZM204.476 80.7108C206.605 78.3444 208.73 77.1862 211.41 75.2737L204.476 80.7108ZM203.888 81.0931C206.291 78.8419 208.277 77.6642 210.896 74.4618L203.888 81.0931ZM206.176 83.7061C207.724 81.1639 210.154 79.8878 213.787 76.1436L206.176 83.7061ZM206.169 83.2702C207.625 81.4152 210.118 78.5368 212.753 76.3626L206.169 83.2702ZM208.589 84.5169C210.25 82.2513 210.918 80.5736 213.345 78.577L208.589 84.5169Z" stroke="#6B6B6B" stroke-width="2.89889"/>
<path d="M212.953 77.8903C212.676 77.1861 212.78 74.3231 212.085 75.1173L212.953 77.8903ZM211.447 74.2453C210.886 73.847 209.454 71.7528 208.13 73.5637L211.447 74.2453ZM207.797 72.734C206.86 72.1606 204.514 72.7299 204.335 73.2265L207.797 72.734ZM204.151 74.2453C202.986 75.0213 202.588 75.8191 202.829 77.4045L204.151 74.2453ZM202.645 77.8903C201.966 78.6543 203.342 80.9068 204.48 81.8837L202.645 77.8903ZM204.151 81.5357C204.415 81.8775 206.369 83.8893 206.973 83.3633L204.151 81.5357ZM207.797 83.0465C208.466 83.5169 210.64 81.5036 211.935 81.9946L207.797 83.0465ZM211.447 81.5357C212.916 80.3627 212.16 79.1024 213.618 77.8911L211.447 81.5357Z" stroke="#6B6B6B"/>
<path d="M217.532 108.052C220.767 104.906 224.667 101.935 229.984 96.1527M209.16 95.6155C211.448 93.8864 214.226 91.9471 216.038 88.3826L209.16 95.6155ZM209.787 96.0721C211.986 93.8316 214.344 92.0111 216.456 89.1887L209.787 96.0721ZM208.835 98.3696C213.709 94.5976 217.62 91.2301 220.796 89.769L208.835 98.3696ZM209.801 98.8752C212.172 96.8595 215.908 93.8347 219.818 89.1431L209.801 98.8752ZM211.745 100.379C215.386 96.444 218.312 92.9042 222.991 89.9213L211.745 100.379ZM211.137 100.955C214.348 98.4471 217.395 95.9064 223.603 89.5705L211.137 100.955ZM211.531 103.614C214.78 99.6145 218.308 98.0765 226.325 90.3841L211.531 103.614ZM212.126 103.545C217.294 98.526 223.269 93.1406 226.452 90.5245L212.126 103.545ZM213.37 104.344C216.656 102.74 220.413 99.0547 227.876 91.7785L213.37 104.344ZM213.855 105.488C216.951 102.476 219.028 100.394 227.967 92.7043L213.855 105.488ZM215.832 106.417C220.006 103.555 223.577 98.2239 228.888 94.4622L215.832 106.417ZM215.82 106.857C219.79 103.024 223.668 98.7922 229.009 94.7853L215.82 106.857ZM218.4 107.918C223.087 104.259 225.921 99.8259 229.583 95.8301L218.4 107.918Z" stroke="#6B6B6B" stroke-width="2.29378"/>
<path d="M221.743 88.9184C221.743 88.9184 221.743 88.9184 221.743 88.9184M221.47 88.9928C219.192 88.5283 217.867 88.6604 215.89 89.0145L221.47 88.9928ZM216.07 88.9184C212.965 88.3033 211.123 90.7844 209.472 93.8448L216.07 88.9184ZM209.447 93.032C207.299 94.7528 208.949 99.2889 209.471 101.216L209.447 93.032ZM210.197 100.793C210.328 99.8511 210.506 100.532 209.884 101.317L210.197 100.793ZM210.498 101.248C210.76 101.635 212.068 103.426 213.193 104.604L210.498 101.248ZM213.034 104.506C214.74 105.335 217.109 107.367 219.175 107.983L213.034 104.506ZM218.906 107.411C221.054 106.883 222.391 106.95 225.734 105.03L218.906 107.411ZM224.551 104.703C224.963 103.584 225.548 102.896 228.023 100.691L224.551 104.703ZM227.615 100.794C228.477 98.2535 228.614 94.5614 228.162 92.673L227.615 100.794ZM228.366 93.032C227 90.1899 225.363 89.3585 220.759 88.3264L228.366 93.032Z" stroke="#6B6B6B"/>
<path d="M237.061 110.299L237.792 109.663M206.199 234.771C208.132 232.882 209.387 231.263 210.957 229.685M12.7733 71.1311C19.0056 64.9033 25.12 59.8008 34.251 48.3103L12.7733 71.1311ZM11.7993 70.9267C17.0786 66.5938 22.0009 61.0517 35.2985 48.7302L11.7993 70.9267ZM9.94094 77.8858C20.8845 65.8963 30.1724 57.1008 41.1883 45.0694L9.94094 77.8858ZM9.01586 77.7084C17.6207 68.6937 25.8046 61.2536 41.5369 45.5284L9.01586 77.7084ZM5.9627 83.1403C14.8611 74.0395 23.326 66.736 46.1023 44.0877L5.9627 83.1403ZM6.18499 83.0668C18.8936 71.0309 30.9285 59.6915 46.2002 44.5899L6.18499 83.0668ZM5.59272 88.0092C22.5856 70.8995 39.911 53.1806 51.819 42.5842L5.59272 88.0092ZM5.27536 88.0373C15.524 77.5455 24.8758 68.3989 50.961 43.3827L5.27536 88.0373ZM4.3271 91.3836C9.49181 85.5941 16.7312 79.3898 24.7962 72.3667L4.3271 91.3836ZM3.40357 91.78C7.73479 87.5867 11.63 83.5262 24.2073 72.6788L3.40357 91.78ZM32.0752 65.7133C36.8952 59.8948 41.9917 55.8231 55.0273 43.0984L32.0752 65.7133ZM31.7367 64.2548C41.1621 56.3538 50.1271 47.4536 54.6713 42.5951L31.7367 64.2548ZM1.57079 96.3433C7.94012 91.4191 12.9427 85.4792 18.5904 81.458L1.57079 96.3433ZM2.79424 95.5966C8.5015 89.7904 14.1959 84.5747 17.4495 81.6573L2.79424 95.5966ZM41.8755 59.239C45.6153 54.9574 49.7649 51.6069 58.2201 42.1154L41.8755 59.239ZM41.592 58.898C47.4054 52.2006 53.5801 45.8946 58.4513 41.7258L41.592 58.898ZM1.26488 99.6415C6.32632 94.2148 13.3429 89.1409 15.2967 86.5581L1.26488 99.6415ZM1.6456 99.6654C6.2852 95.4657 10.9797 90.83 15.4737 86.4285L1.6456 99.6654ZM46.467 57.0315C51.1365 51.8835 56.8838 45.19 60.8294 42.5576L46.467 57.0315ZM46.8405 56.0447C50.5123 53.0297 53.964 49.9152 61.6201 41.3232L46.8405 56.0447ZM1.51568 103.216C4.27254 98.7677 7.36067 95.9541 14.0523 91.7465L1.51568 103.216ZM1.26389 102.863C6.18672 98.7964 9.83529 94.5238 12.8703 91.8565L1.26389 102.863ZM52.0918 55.0743C56.5278 50.4756 61.2962 44.0075 64.5996 40.9077L52.0918 55.0743ZM51.9054 54.1852C56.9298 49.2728 62.0568 44.8182 65.1462 41.7893L51.9054 54.1852ZM0.735468 106.513C6.07403 102.661 10.885 97.6533 11.6816 94.5657L0.735468 106.513ZM0.97814 106.027C3.48955 104.41 5.96651 101.573 12.6063 95.1123L0.97814 106.027ZM55.0472 52.8687C58.3319 50.9803 63.0788 47.5435 68.7984 41.8059L55.0472 52.8687ZM55.9137 53.3234C60.9404 49.5021 65.483 44.2163 67.9595 41.2292L55.9137 53.3234ZM0.541016 109.568C5.41304 105.021 8.87767 101.945 11.3709 98.4912L0.541016 109.568ZM0.997439 108.912C4.01047 106.517 6.48939 104.061 11.3394 99.9114L0.997439 108.912ZM60.9762 51.7192C62.6339 49.1511 65.1835 46.8125 72.2145 40.9528L60.9762 51.7192ZM59.7452 52.8974C63.982 48.8091 68.2456 44.1836 71.7188 41.5533L59.7452 52.8974ZM2.45248 111.912C2.94756 111.099 5.85437 108.206 9.87408 102.394L2.45248 111.912ZM1.35447 111.82C4.59642 109.436 7.59929 106.613 10.586 103.203L1.35447 111.82ZM62.4634 53.1715C67.2199 50.056 68.7896 46.5231 73.6655 42.5007L62.4634 53.1715ZM63.1697 52.4192C67.3335 49.1285 70.994 44.9972 74.3488 41.645L63.1697 52.4192ZM1.06722 114.201C5.27465 112.621 8.33763 108.789 11.7146 105.579L1.06722 114.201ZM1.87207 114.839C4.65257 112.371 7.55692 109.138 10.9272 106.029L1.87207 114.839ZM66.9498 52.169C70.4697 49.7128 71.7093 47.3047 77.9188 42.3818L66.9498 52.169ZM66.3327 51.8259C70.2713 48.9554 74.0055 45.5551 77.8298 41.2302L66.3327 51.8259ZM1.71044 117.435C5.36226 115.868 8.00223 111.684 11.8424 109.208L1.71044 117.435ZM1.27621 118.181C4.87884 115.111 8.33186 111.314 11.249 109.365L1.27621 118.181ZM69.267 52.9725C73.323 49.0429 75.5849 46.8239 81.7976 41.2904L69.267 52.9725ZM70.362 52.5765C71.931 50.5728 74.2244 47.9066 81.2512 41.4884L70.362 52.5765ZM1.65057 121.401C3.90563 117.939 6.61654 116.463 10.8146 112.116L1.65057 121.401ZM2.00139 121.075C5.17118 118.127 7.57235 115.043 11.3019 111.761L2.00139 121.075ZM73.1515 52.7811C77.7335 48.672 80.7533 45.8016 85.3062 41.5808L73.1515 52.7811ZM72.7653 52.0501C78.0708 47.4617 81.6181 43.8291 84.1238 41.2805L72.7653 52.0501ZM1.63114 124.37C5.21526 120.863 8.51995 118.561 11.9007 115.931L1.63114 124.37ZM1.8785 123.869C5.00458 120.748 8.95485 117.76 10.9582 115.306L1.8785 123.869ZM76.2238 52.1851C80.2558 49.3053 83.8003 45.9183 88.0413 41.4663L76.2238 52.1851ZM76.5819 51.9427C80.6451 47.684 84.4594 43.9751 88.1984 41.007L76.5819 51.9427ZM2.67457 126.981C4.65683 125.44 6.38918 122.822 11.4199 118.359L2.67457 126.981ZM2.17881 126.72C5.63946 124.097 8.28841 120.706 12.255 117.448L2.17881 126.72ZM80.6131 52.7707C84.4742 47.9959 88.6597 44.6178 91.0983 41.7398L80.6131 52.7707ZM80.0486 51.7914C84.0229 48.0636 87.9313 44.0365 90.8635 41.188L80.0486 51.7914ZM1.71998 129.85C4.97681 126.42 7.53539 124.502 12.0533 119.791L1.71998 129.85ZM2.31829 129.98C5.1381 126.851 7.29244 124.487 11.5862 121.085L2.31829 129.98ZM82.5448 52.228C85.5016 49.2443 87.0918 47.1907 92.6269 41.8289L82.5448 52.228ZM82.5135 51.4446C85.3793 48.8995 88.2249 46.5481 92.1872 42.7924L82.5135 51.4446ZM2.48142 133.379C4.20996 129.57 8.07416 126.952 12.2853 123.3L2.48142 133.379ZM2.49307 132.387C4.97519 130.05 6.74492 128.548 11.8563 123.596L2.49307 132.387ZM86.4738 52.9201C87.4479 50.6725 89.5026 48.5958 92.8369 45.7405L86.4738 52.9201ZM85.7637 52.4094C88.2114 49.646 90.188 47.5751 93.2035 44.7361L85.7637 52.4094ZM3.91513 134.678C6.84252 132.437 9.91838 128.056 11.6654 127.252L3.91513 134.678ZM3.23154 134.85C5.4572 132.753 7.87047 130.79 12.3297 126.405L3.23154 134.85ZM4.70005 136.85C7.265 134.385 9.41248 132.342 12.5054 129.717L4.70005 136.85ZM4.13496 137.476C5.77774 134.946 7.99156 132.908 12.5128 128.603L4.13496 137.476ZM3.41048 141.025C5.98547 138.265 9.87664 133.987 12.2824 132.149L3.41048 141.025ZM3.9159 139.686C6.78143 136.906 9.48291 134.46 12.3406 132.736L3.9159 139.686ZM4.90323 143.118C6.59479 139.561 9.82932 136.725 12.6194 135.703L4.90323 143.118ZM4.27139 143.163C7.32628 139.816 10.6608 136.986 12.792 135.278L4.27139 143.163ZM4.60867 145.673C6.40891 143.375 10.0461 139.945 12.4065 138.797L4.60867 145.673ZM4.50358 145.585C6.61496 143.794 8.42722 141.89 12.8874 137.989L4.50358 145.585ZM6.30502 148.546C8.70887 144.78 11.037 142.553 14.0699 140.95L6.30502 148.546ZM5.81406 147.931C8.62259 145.202 11.2932 142.378 14.0151 140.239L5.81406 147.931ZM5.73497 149.737C9.43619 148.192 12.8579 144.567 14.5112 142.31L5.73497 149.737ZM6.08064 150.167C9.12616 148.02 11.1993 144.806 14.0528 142.618L6.08064 150.167ZM5.6317 152.192C9.17623 151.324 12.4429 147.413 13.4471 146.339L5.6317 152.192ZM6.80319 153.553C9.84219 150.315 12.5336 147.454 13.9803 145.459L6.80319 153.553ZM6.20838 156.108C11.0111 153.539 12.4468 150.922 14.0215 148.183L6.20838 156.108ZM7.42324 155.423C8.97218 154.456 9.91349 152.074 15.1234 148.595L7.42324 155.423ZM6.37465 158.369C8.23146 155.574 11.4804 155.399 15.0892 150.778L6.37465 158.369ZM7.00258 159.006C9.70029 156.439 11.2597 154.76 15.0453 150.704L7.00258 159.006ZM8.19898 161.781C9.58476 158.19 12.9344 156.052 16.6842 152.279L8.19898 161.781ZM8.19255 161.189C9.34092 158.912 12.0829 157.355 16.7467 152.753L8.19255 161.189ZM9.06333 163.367C11.824 160.449 13.2403 159.257 16.637 156.006L9.06333 163.367ZM8.24542 163.703C10.7786 161.92 12.0901 159.485 16.3178 155.516L8.24542 163.703ZM131.133 45.0072C132.276 44.0763 132.303 43.5323 135.097 41.6211L131.133 45.0072ZM131.206 45.1856C132.626 43.3379 134.213 41.9603 135.297 40.8985L131.206 45.1856ZM8.81364 166.312C11.3085 164.623 14.7888 161.466 17.3322 156.917L8.81364 166.312ZM8.69656 166.027C11.598 163.473 14.747 159.826 17.6197 157.838L8.69656 166.027ZM130.675 49.3933C131.28 46.7006 133.719 44.9967 138.288 40.7517L130.675 49.3933ZM130.267 48.7471C132.925 47.1726 134.698 45.2984 138.217 41.2892L130.267 48.7471ZM10.4944 168.141C12.9213 166.031 13.4719 163.743 18.0828 160.275L10.4944 168.141ZM9.35523 168.242C12.1973 165.646 15.2578 162.596 18.0647 160.019L9.35523 168.242ZM131.9 49.664C134.993 47.6781 138.076 45.0882 140.569 41.9217L131.9 49.664ZM131.75 49.7245C135.401 46.3517 139.309 43.3452 141.447 41.3212L131.75 49.7245ZM9.57626 170.843C13.5678 167.085 16.7247 164.272 18.3251 163.189L9.57626 170.843ZM10.5922 170.788C12.8225 168.643 15.6802 166.367 18.7401 162.355L10.5922 170.788ZM134.85 50.9895C135.833 49.3579 137.926 47.5455 144.755 41.7684L134.85 50.9895ZM134.298 50.4071C136.426 49.1662 138.961 46.5558 144.123 41.1853L134.298 50.4071ZM11.8056 173.674C14.7569 170.622 15.8079 167.985 19.6209 165.805L11.8056 173.674ZM11.4084 172.929C13.0082 171.617 14.4279 169.481 19.8867 165.079L11.4084 172.929ZM137.121 50.5549C139.395 49.5586 142.339 46.0636 147.018 40.8709L137.121 50.5549ZM137.054 50.9563C140.27 48.257 142.796 46.1789 147.345 41.2799L137.054 50.9563ZM11.6402 174.091C15.6514 171.534 17.6614 169.751 21.0751 167.869L11.6402 174.091ZM11.9752 174.969C14.4952 172.747 15.7897 171.43 20.3912 167.02L11.9752 174.969ZM141.46 50.9079C143.241 47.8579 147.516 45.4699 149.978 40.6764L141.46 50.9079ZM140.391 50.7283C143.149 48.8693 145.873 45.7024 150.911 41.077L140.391 50.7283ZM11.9737 177.608C15.6453 176.115 15.7937 173.601 20.4778 168.979L11.9737 177.608ZM12.8207 177.196C15.6794 174.802 18.8204 171.042 20.8511 170.021L12.8207 177.196ZM143.222 51.5444C147.715 47.6708 151.602 42.9971 154.695 41.8642L143.222 51.5444ZM143.467 51.4604C147.256 47.8907 150.452 44.6191 153.824 41.7035L143.467 51.4604ZM14.0702 180.292C16.787 177.902 19.7461 174.374 22.0819 171.217L14.0702 180.292ZM13.5862 179.958C16.6485 177.446 19.4767 174.553 22.704 171.868L13.5862 179.958ZM147.391 50.1384C151.186 46.1084 154.338 42.4884 157.29 40.1402L147.391 50.1384ZM146.714 50.4611C150.483 47.6332 153.939 44.2599 157.025 40.7072L146.714 50.4611ZM14.2853 181.019C16.0139 179.732 19.1123 178.775 22.2602 174.63L14.2853 181.019ZM14.5562 181.573C16.0743 179.925 18.386 178.472 23.4859 173.363L14.5562 181.573ZM151.092 51.4006C153.183 48.4917 157.315 44.5252 160.999 41.991L151.092 51.4006ZM149.816 51.1097C153.611 47.1381 156.913 44.1092 160.572 41.6879L149.816 51.1097ZM16.196 184.27C16.8141 181.31 19.6845 179.873 23.0108 176.356L16.196 184.27ZM15.1807 183.626C18.2594 181.295 20.4306 179.235 24.1098 176.283L15.1807 183.626ZM152.878 50.8331C155.931 48.8966 157.623 47.9306 162.853 41.9095L152.878 50.8331ZM153.03 50.6748C156.382 47.2726 160.731 44.371 163.682 41.6892L153.03 50.6748ZM15.7994 185.841C19.0892 184.511 19.3113 181.859 25.5787 177.936L15.7994 185.841ZM16.3471 185.951C19.0615 184.531 20.4621 181.966 24.6427 178.689L16.3471 185.951ZM156.989 49.9435C159.11 47.2786 163.998 43.813 166.707 40.5572L156.989 49.9435ZM157.08 50.3307C160.284 47.0129 164.149 43.9634 167.127 40.8465L157.08 50.3307ZM17.9629 188.461C19.9579 186.844 21.6803 183.309 25.4592 181.124L17.9629 188.461ZM17.588 188.039C20.1112 186.168 22.6024 183.491 25.0033 180.624L17.588 188.039ZM160.552 50.6194C163.973 47.2962 167.034 44.1602 170.163 41.7043L160.552 50.6194ZM159.296 50.5748C162.8 48.2249 165.362 45.7876 169.548 41.6176L159.296 50.5748ZM18.0111 191.39C21.2146 187.835 23.1966 186.434 26.3527 182.55L18.0111 191.39ZM17.5941 190.444C19.4545 189.053 21.975 187.192 26.1964 182.556L17.5941 190.444ZM55.7061 153.759C58.1801 152.816 60.144 150.395 60.526 149.329L55.7061 153.759ZM55.4743 154.197C56.964 153.159 58.9291 151.499 61.0242 148.925L55.4743 154.197ZM162.721 50.4909C164.43 49.4532 167.364 45.9464 172.427 41.8269L162.721 50.4909ZM163.099 50.6813C166.379 47.7665 169.572 43.8256 173.516 41.4655L163.099 50.6813ZM177.749 36.8403C178.631 35.4722 179.969 34.8384 181.329 32.864L177.749 36.8403ZM177.798 36.4929C179.053 35.244 180.279 34.0591 181.583 32.6743L177.798 36.4929ZM19.3097 193.123C21.8823 190.424 24.4258 187.445 26.3248 185.825L19.3097 193.123ZM19.1981 193.019C21.3192 190.687 22.98 188.751 27.0161 184.755L19.1981 193.019ZM56.7864 158.254C57.7327 156.328 59.69 153.123 62.7539 149.796L56.7864 158.254ZM55.9007 157.512C58.4607 154.709 60.1038 152.918 63.6335 150.101L55.9007 157.512ZM165.729 51.7237C172.627 44.9194 179.008 38.7733 187.36 30.1145L165.729 51.7237ZM165.986 50.6211C170.856 46.3768 176.288 41.0708 187.182 30.6862L165.986 50.6211ZM19.2936 196.217C20.6759 192.827 22.9514 192.96 28.0467 188.393L19.2936 196.217ZM19.97 195.219C22.0764 192.634 24.6847 190.635 27.8326 187.843L19.97 195.219ZM55.594 160.68C58.433 157.599 59.8302 155.888 65.5195 151.321L55.594 160.68ZM56.2364 160.467C59.1479 157.196 62.5379 153.995 64.8068 151.951L56.2364 160.467ZM168.983 51.7626C173.597 47.3448 177.733 41.3153 191.554 29.1259L168.983 51.7626ZM168.615 50.5802C176.714 43.654 184.238 37.1222 191.155 30.036L168.615 50.5802ZM21.1655 198.351C22.4715 195.658 24.2595 193.587 28.8439 190.639L21.1655 198.351ZM20.3074 197.804C21.8237 195.856 23.9526 194.068 28.4653 189.974L20.3074 197.804ZM56.2161 163.244C58.6169 160.658 61.0353 156.866 66.0085 155.281L56.2161 163.244ZM55.8842 162.939C58.9676 160.271 61.6936 157.782 65.5354 154.818L55.8842 162.939ZM172.57 50.9674C177.398 47.0174 181.729 41.0143 193.477 30.2101L172.57 50.9674ZM172.301 50.6586C178.697 44.9688 184.108 39.2472 193.666 30.4703L172.301 50.6586ZM21.0264 200.445C23.2782 196.321 26.7113 194.114 28.5069 193.037L21.0264 200.445ZM21.4477 200.243C24.1959 196.877 26.1164 194.248 29.2149 192.596L21.4477 200.243ZM56.0891 166.842C57.9869 165.165 61.0146 162.38 65.0282 158.294L56.0891 166.842ZM55.8253 166.803C58.6788 163.525 61.8874 160.612 64.8801 157.829L55.8253 166.803ZM174.645 52.4255C181.674 46.0568 187.729 38.7041 197.388 29.2393L174.645 52.4255ZM174.392 51.9655C180.817 46.3557 186.36 40.3976 197.155 29.7388L174.392 51.9655ZM22.1268 202.303C24.4938 200.34 25.1825 198.452 30.3227 195.136L22.1268 202.303ZM22.2261 202.796C23.8692 200.344 26.0338 197.826 29.9419 194.635L22.2261 202.796ZM55.0233 168.759C59.8514 166.414 62.7545 164.203 65.7955 160.956L55.0233 168.759ZM55.5978 168.939C59.919 166.17 62.6166 162.678 64.8631 160.417L55.5978 168.939ZM175.966 54.1351C177.287 51.1768 179.975 49.0278 185.946 44.4466L175.966 54.1351ZM175.128 54.0327C178.475 50.7211 182.065 47.0636 186.301 44.0865L175.128 54.0327ZM189.007 39.6539C192.122 36.979 195.191 36.2953 198.114 32.267L189.007 39.6539ZM190.237 40.3739C192.864 36.4175 196.297 33.7211 198.203 31.7739L190.237 40.3739ZM21.67 204.699C26.3126 201.539 28.2804 198.304 29.8982 197.473L21.67 204.699ZM22.5411 204.537C24.694 202.889 27.0296 201.132 31.2124 196.571L22.5411 204.537ZM55.0858 171.451C57.9456 169.62 62.0957 166.594 65.2935 163.437L55.0858 171.451ZM55.9836 172.852C58.6126 170.104 61.5393 167.47 65.0276 162.988L55.9836 172.852ZM176.115 55.7348C179.91 53.6264 182.595 48.9687 184.611 48.9433L176.115 55.7348ZM176.692 55.8426C178.846 53.523 180.93 52.2282 185.048 48.0206L176.692 55.8426ZM193.613 39.3685C195.27 37.5162 198.945 35.3951 199.913 33.2221L193.613 39.3685ZM192.812 40.2439C195.619 37.8489 197.172 35.8147 200.176 32.6874L192.812 40.2439ZM24.2466 206.016C25.492 204.465 27.3623 202.588 30.7291 199.247L24.2466 206.016ZM23.4933 206.623C24.9187 204.875 27.0324 203.277 31.4652 198.707L23.4933 206.623ZM57.0133 176.25C59.5011 173.631 60.6615 169.652 66.1979 165.548L57.0133 176.25ZM56.5483 175.661C58.8654 171.79 62.9915 168.696 65.2432 166.444L56.5483 175.661ZM177.54 57.9409C180.211 55.7874 181.483 54.1641 183.929 50.6436L177.54 57.9409ZM176.899 58.4704C178.723 56.1901 180.695 54.717 184.309 50.632L176.899 58.4704ZM186.195 49.8844C186.425 49.4907 187.423 48.8304 187.837 47.986L186.195 49.8844ZM185.842 50.0034C186.5 49.2878 187.27 48.6228 188.055 47.8799L185.842 50.0034ZM194.364 41.6708C196.838 39.6937 197.866 36.7278 202.661 33.086L194.364 41.6708ZM194.596 40.9049C198.104 38.4387 199.919 36.1743 202.483 34.0975L194.596 40.9049ZM24.0058 210.191C25.1357 207.412 27.2942 205.518 31.8136 201.655L24.0058 210.191ZM23.9798 208.821C26.1195 207.513 28.3862 205.098 32.135 200.865L23.9798 208.821ZM55.6809 178.905C59.4743 175.467 60.9197 172.677 65.297 169.658L55.6809 178.905ZM56.5337 178.726C58.1878 176.318 60.3308 174.187 66.3817 168.564L56.5337 178.726ZM179.646 59.4418C182.152 58.0747 184.864 53.5489 185.471 52.6276L179.646 59.4418ZM178.849 59.6217C180.43 58.2785 181.988 56.2131 186.337 52.3936L178.849 59.6217ZM197.617 42.5514C198.809 40.3076 203.004 37.7329 205.094 35.315L197.617 42.5514ZM197.243 42.6989C199.775 40.4104 201.815 37.9244 203.669 34.9717L197.243 42.6989ZM25.3924 210.795C26.8652 208.067 29.8807 205.746 32.5145 202.942L25.3924 210.795ZM25.3899 210.994C26.5437 209.297 28.2541 207.966 33.4387 203.65L25.3899 210.994ZM55.9687 182.617C60.715 177.797 63.9914 172.731 68.4888 168.735L55.9687 182.617ZM55.7797 181.865C58.0993 179.486 61.7591 176.946 69.4826 168.779L55.7797 181.865ZM180.949 60.5905C183.447 58.056 188.176 55.9105 188.828 54.1064L180.949 60.5905ZM180.501 61.3296C182.757 58.8854 184.511 57.8561 189.229 53.4058L180.501 61.3296ZM198.186 43.3771C200.54 40.863 202.986 40.0295 205.167 37.9665L198.186 43.3771ZM198.015 44.4147C200.574 41.6529 203.404 38.2914 205.433 37.3439L198.015 44.4147ZM25.7445 214.525C29.0478 211.886 32.1126 209.226 33.1354 205.42L25.7445 214.525ZM25.6679 213.72C28.6343 211.535 30.7141 209.628 34.1945 206.089L25.6679 213.72ZM55.6385 185.523C61.1926 179.035 66.143 174.217 72.7515 168.77L55.6385 185.523ZM55.938 184.918C60.7918 180.371 65.4509 176.191 72.0727 169.001L55.938 184.918ZM182.88 63.9282C185.334 60.5029 186.086 57.6155 189.891 54.3543L182.88 63.9282ZM182.151 63.1699C184.222 60.3381 186.513 58.5487 190.277 54.6118L182.151 63.1699ZM199.29 45.576C199.958 44.9668 201.764 42.8226 207.016 38.3754L199.29 45.576ZM198.553 46.9627C202.161 43.779 204.507 41.2051 206.611 38.773L198.553 46.9627ZM27.4853 217.057C28.707 213.258 31.4062 210.983 33.7665 208.472L27.4853 217.057ZM26.4214 215.565C29.0414 213.128 31.3191 211.54 34.6747 207.923L26.4214 215.565ZM55.5212 187.791C59.0479 183.873 61.8274 182.723 66.155 179.308L55.5212 187.791ZM56.155 187.977C58.7449 185.446 60.9159 182.569 65.3372 178.136L56.155 187.977ZM64.7999 178.725C70.3626 174.234 73.6166 170.667 74.7557 169.332L64.7999 178.725ZM65.9622 178.846C67.4508 175.885 69.9141 173.568 75.1347 168.99L65.9622 178.846ZM179.382 69.135C183.09 65.1997 186.117 60.6345 191.198 56.9841L179.382 69.135ZM180.068 67.6388C182.764 65.1537 186.899 61.9655 191.283 56.4019L180.068 67.6388ZM202.679 45.331C203.787 43.9633 205.312 42.6296 208.132 41.4144L202.679 45.331ZM202.85 46.0041C203.953 44.8887 205.781 43.264 207.74 40.56L202.85 46.0041ZM27.5676 219.317C29.0369 215.324 31.8447 213.24 36.141 210.505L27.5676 219.317ZM27.2707 217.992C29.5382 216.393 31.0748 214.328 35.3651 210.288L27.2707 217.992ZM55.0473 190.512C59.6121 186.929 61.7456 183.45 65.9728 181.285L55.0473 190.512ZM55.7948 190.706C58.0627 188.124 60.0731 186.801 65.3581 180.968L55.7948 190.706ZM68.0447 178.923C72.2815 175.845 76.1202 172.305 78.7052 168.146L68.0447 178.923ZM69.0952 177.893C71.6894 175.117 74.499 172.259 78.9606 168.735L69.0952 177.893ZM176.676 73.6989C181.426 69.5174 185.901 65.4788 193.312 59.206L176.676 73.6989ZM177.047 73.483C182.886 67.7528 188.741 62.6112 193.114 58.4848L177.047 73.483ZM206.107 45.7806C206.396 44.8236 207.063 44.2327 209.342 43.2342L206.107 45.7806ZM206.011 45.567C207.104 44.8836 207.781 44.2193 209.177 42.8184L206.011 45.567ZM27.1685 219.644C30.4242 219.015 33.6858 216.338 35.4615 213.16L27.1685 219.644ZM28.5713 220.952C30.6092 218.374 33.2263 215.318 36.2444 212.762L28.5713 220.952ZM55.5075 194.138C60.1835 191.23 61.8934 188.035 66.2506 183.861L55.5075 194.138ZM55.7874 194.228C59.4998 190.168 62.7537 186.892 65.5967 184.129L55.7874 194.228ZM72.8274 177.965C74.6484 175.611 77.5708 171.339 82.2019 168.745L72.8274 177.965ZM71.5888 178.322C75.731 174.514 79.5334 171.591 81.9002 168.619L71.5888 178.322ZM176.238 77.5593C182.912 71.8795 187.848 66.5452 194.539 58.9782L176.238 77.5593ZM177.304 76.5169C181.677 71.6207 187.79 67.0237 194.799 59.9935L177.304 76.5169ZM210.243 45.5084C210.646 44.2288 211.597 43.2238 213.234 42.2282L210.243 45.5084ZM209.911 45.1618C210.84 44.2536 212.17 43.1698 212.885 42.3702L209.911 45.1618ZM28.8702 223.133C31.3521 220.565 35.1537 217.069 37.2325 216.017L28.8702 223.133ZM29.5414 222.993C31.6122 220.356 32.5389 219.344 37.3728 215.153L29.5414 222.993ZM56.6599 197.334C58.8202 192.861 63.7264 189.632 65.5445 187.323L56.6599 197.334ZM55.8489 197.1C60.1384 193.329 63.3954 189.291 65.3163 186.982L55.8489 197.1ZM74.5262 178.478C78.3538 174.506 81.101 171.66 84.1636 168.761L74.5262 178.478ZM74.5342 178.013C78.5544 174.307 82.8658 171.077 84.9949 168.84L74.5342 178.013ZM176.032 79.3906C181.914 75.6098 186.349 71.8396 191.765 66.6403L176.032 79.3906ZM176.448 80.6558C179.449 76.7012 183.617 74.3236 191.681 66.2676L176.448 80.6558ZM213.971 44.9254C214.132 43.7201 215.296 43.1169 216.458 42.1319L213.971 44.9254ZM213.646 44.5067C214.41 44.0932 214.85 43.5446 216.232 42.1756L213.646 44.5067ZM29.6151 225.409C33.691 221.514 36.6654 219.43 37.8595 218.071L29.6151 225.409ZM30.7555 224.063C31.8989 223.087 34.7164 220.346 38.0792 217.469L30.7555 224.063ZM55.0934 199.809C58.7813 196.66 62.1805 193.115 66.3934 190.335L55.0934 199.809ZM56.183 199.605C59.7475 196.353 63.8382 192.954 66.0315 189.981L56.183 199.605ZM79.0897 177.435C81.3016 175.07 83.8417 171.855 89.3394 169.62L79.0897 177.435ZM78.0658 178.027C82.1399 174.777 85.5727 171.656 87.8893 168.595L78.0658 178.027ZM175.098 83.6618C179.724 80.3997 183.246 77.0755 189.277 72.9438L175.098 83.6618ZM175.315 84.1518C179.432 79.761 184.766 75.5722 188.922 72.1445L175.315 84.1518ZM217.391 44.34C217.358 44.1751 218.361 43.4555 219.603 41.6644L217.391 44.34ZM216.957 44.4784C217.852 43.7723 218.471 42.7198 219.795 41.467L216.957 44.4784ZM30.5188 227.101C33.6272 225.85 33.8928 223.114 39.8381 219.402L30.5188 227.101ZM30.8499 226.744C33.8658 224.058 36.511 221.908 39.4409 219.565L30.8499 226.744ZM56.1094 203.125C59.2858 199.884 60.2382 198.863 66.2257 193.124L56.1094 203.125ZM56.3022 202.403C59.2053 199.585 62.9552 196.572 65.5826 193.375L56.3022 202.403ZM80.5111 178.468C85.2068 175.034 87.2957 171.554 91.8029 168.011L80.5111 178.468ZM81.4823 178.318C85.6721 174.673 88.6194 171.426 91.7229 169.26L81.4823 178.318ZM136.169 125.49C137.099 124.553 137.526 124.175 138.997 123.189L136.169 125.49ZM136.049 125.398C137.026 124.741 137.487 123.953 138.851 123.036L136.049 125.398ZM176.199 87.8773C178.593 83.5562 182.426 81.0569 187.796 76.7146L176.199 87.8773ZM175.715 86.9995C177.348 85.1584 179.843 83.3438 186.786 76.0964L175.715 86.9995ZM220.557 43.8847C221.339 43.3715 222.066 42.7416 223.218 41.7007L220.557 43.8847ZM220.822 43.6984C221.295 43.158 221.842 42.6868 222.928 41.5126L220.822 43.6984ZM32.9641 227.423C33.6162 227.819 36.5796 225.775 40.6785 221.418L32.9641 227.423ZM32.7504 228.695C34.5736 226.394 36.7423 224.361 40.2352 221.321L32.7504 228.695ZM56.532 205.045C60.0639 203.542 62.1529 200.792 64.8713 195.579L56.532 205.045ZM56.3189 205.722C59.8309 202.449 62.3921 198.967 66.2693 196.104L56.3189 205.722ZM84.8368 178.434C88.3991 174.373 91.6641 171.335 95.395 167.971L84.8368 178.434ZM84.3955 178.377C87.7098 175.651 90.8493 171.615 94.3665 168.358L84.3955 178.377ZM131.877 132.522C134.969 130.036 137.323 128.848 142.143 124.411L131.877 132.522ZM132.209 131.966C135.219 128.826 138.899 125.241 141.928 123.59L132.209 131.966ZM175.62 89.8208C179.55 85.5386 182.97 81.9889 186.939 78.5459L175.62 89.8208ZM175.823 90.0973C179.533 86.5242 183.772 82.4054 187.328 79.342L175.823 90.0973ZM224.517 43.1599C224.79 42.9926 225.119 42.5606 225.547 42.0013L224.517 43.1599ZM224.499 43.2705C224.866 42.8976 225.088 42.5612 225.621 42.1319L224.499 43.2705ZM35.5241 229C36.338 227.851 39.8642 226.059 42.6765 222.048L35.5241 229ZM34.741 230.04C36.2721 228.12 38.7613 225.892 42.3461 222.715L34.741 230.04ZM57.559 209.223C60.2013 204.562 62.6963 201.249 65.3145 199.043L57.559 209.223ZM56.4617 208.583C59.6499 205.488 61.3373 203.352 65.4863 200.281L56.4617 208.583ZM88.6512 179.034C92.2757 174.906 96.6113 170.689 98.0139 167.714L88.6512 179.034ZM87.6719 177.991C89.9741 176.552 92.4316 173.805 97.3999 168.668L87.6719 177.991ZM126.355 140.65C131.243 137.729 134.053 133.033 142.384 125.667L126.355 140.65ZM127.228 140.121C130.382 137.574 133.391 133.858 143.337 124.363L127.228 140.121ZM176.109 92.8192C179.559 89.0209 184.074 85.4637 187.607 81.8435L176.109 92.8192ZM176.294 92.3382C179.341 90.0565 182.429 86.6591 187.311 82.2942L176.294 92.3382ZM226.929 43.8258C232.72 39.211 236.618 34.7498 241.648 30.2212L226.929 43.8258ZM228.179 42.6962C233.087 37.6344 238.309 33.1478 241.283 30.5226L228.179 42.6962ZM37.0103 230.703C39.4626 229.07 40.6425 226.053 42.6238 224.218L37.0103 230.703ZM36.4952 231.258C38.2323 229.118 40.4083 227.041 43.963 223.907L36.4952 231.258ZM57.8494 210.39C59.9109 207.338 62.4808 206.157 67.0698 201.847L57.8494 210.39ZM57.6543 209.763C60.3678 207.516 63.8091 205.203 66.4507 202.527L57.6543 209.763ZM91.5988 177.38C94.5008 175.466 97.3924 173.286 100.666 168.3L91.5988 177.38ZM91.4514 178.008C93.2694 175.604 96.3372 172.988 101.299 168.169L91.4514 178.008ZM125.932 144.905C130.904 139.945 137.589 133.945 145.18 126.615L125.932 144.905ZM125.36 144.861C129.563 141.056 134.593 136.612 144.56 126.072L125.36 144.861ZM177.508 95.2583C178.267 93.0578 181.643 90.7742 187.489 85.997L177.508 95.2583ZM176.46 95.8277C180.224 92.5241 183.325 88.981 186.8 85.6L176.46 95.8277ZM232.094 42.7455C236.411 38.7178 239.904 33.4289 244.061 29.0476L232.094 42.7455ZM231.811 42.6663C235.744 38.9308 240.183 34.1112 244.32 29.6343L231.811 42.6663ZM38.3166 233.169C41.4201 228.851 43.6612 227.251 47.2322 223.939L38.3166 233.169ZM37.6494 232.41C41.1539 229.043 44.0758 226.282 46.1306 224.483L37.6494 232.41ZM60.2228 209.964C62.6619 207.6 66.0947 205.143 67.8828 202.195L60.2228 209.964ZM60.2937 210.931C63.5594 208.037 65.8971 206.388 68.482 203.263L60.2937 210.931ZM90.5527 181.49C95.8774 177.747 98.0227 173.838 104.296 168.434L90.5527 181.49ZM90.733 180.805C93.8769 178.155 97.3186 175.128 104.558 168.209L90.733 180.805ZM124.385 149.316C129.171 143.45 134.251 138.73 144.607 128.952L124.385 149.316ZM124.474 149.712C131.031 142.455 137.643 136.199 144.428 129.355L124.474 149.712ZM176.573 97.0462C180.863 94.9684 183.547 92.0588 186.931 89.3147L176.573 97.0462ZM177.246 97.5783C179.794 95.6784 180.876 94.4504 185.705 89.0553L177.246 97.5783ZM235.397 41.3633C238.654 39.1217 241.38 36.1656 247.412 31.3835L235.397 41.3633ZM234.53 41.9414C237.919 39.0589 240.784 35.9841 247.054 30.4735L234.53 41.9414ZM40.0369 232.838C43.4757 229.705 46.7724 227.53 50.0275 224.329L40.0369 232.838ZM39.8987 233.57C42.3662 231.948 44.1217 230.08 49.3824 224.771L39.8987 233.57ZM62.4325 211.473C65.8509 208.993 67.606 206.934 71.0224 204.128L62.4325 211.473ZM63.0986 210.926C66.0254 208.84 67.8896 207.025 70.9848 203.547L63.0986 210.926ZM91.4944 184.84C95.6478 180.264 97.9667 176.743 106.812 167.776L91.4944 184.84ZM91.0694 184.051C95.2757 180.09 100.452 175.35 107.196 169.187L91.0694 184.051ZM122.51 153.261C128.432 149.35 133.172 143.461 140.622 136.41L122.51 153.261ZM122.895 154.247C130.047 147.337 136.762 139.951 140.905 135.9L122.895 154.247ZM179.172 99.8375C180.732 97.6238 183.303 94.121 187.104 91.3082L179.172 99.8375ZM178.037 100.169C181.383 97.189 184.161 94.4922 187.233 91.2878L178.037 100.169ZM239.228 42.4336C241.917 39.2473 245.549 36.009 249.864 29.9118L239.228 42.4336ZM238.388 41.4155C240.953 39.5282 243.76 36.8416 249.815 30.6477L238.388 41.4155ZM42.1944 235.375C44.6575 232.114 48.027 229.436 52.3804 224.733L42.1944 235.375ZM42.4649 234.48C44.6019 232.692 46.8934 230.595 52.6748 224.552L42.4649 234.48ZM66.0771 211.395C68.3483 210.277 69.4795 209.119 73.565 203.798L66.0771 211.395ZM65.8182 211.667C67.2946 210.114 69.5662 207.277 73.0538 205.072L65.8182 211.667ZM90.4966 186.879C98.6542 178.839 106.805 172.867 111.304 167.922L90.4966 186.879ZM91.1502 187.161C96.6515 181.919 103.161 176.032 110.53 168.941L91.1502 187.161ZM121.253 157.242C124.73 154.54 128.024 151.14 137.353 141.444L121.253 157.242ZM122.417 157.868C126.774 153.412 130.211 148.625 137.396 142.387L122.417 157.868ZM180.007 102.104C181.31 99.3278 182.998 97.06 188.007 93.9825L180.007 102.104ZM179.783 101.881C181.016 100.012 183.486 98.7137 188.044 94.3293L179.783 101.881ZM242.211 42.023C244.817 39.5235 247.182 37.3376 252.447 31.0348L242.211 42.023ZM242.274 40.9505C247.067 37.47 251.029 32.5199 253.249 31.1122L242.274 40.9505ZM45.2854 235.015C48.8646 230.681 52.3936 227.883 56.4249 223.498L45.2854 235.015ZM45.3626 234.704C47.2539 231.853 49.8861 230.29 56.2659 223.973L45.3626 234.704ZM67.1702 213.075C69.6075 210.782 72.0244 208.564 75.3305 205.945L67.1702 213.075ZM67.8607 212.965C70.5264 210.508 73.3539 208.366 74.5956 205.648L67.8607 212.965ZM91.6754 189.734C94.9235 185.996 99.1618 183.187 102.376 178.655L91.6754 189.734ZM91.696 190.055C94.6818 187.557 98.0177 183.846 102.788 178.77L91.696 190.055ZM102.463 179.367C105.949 176.74 108.274 172.342 112.623 169.749L102.463 179.367ZM102.953 179.123C105.761 176.619 108.415 173.944 113.398 168.874L102.953 179.123ZM120.67 161.612C127.147 154.234 132.931 149.911 135.788 145.83L120.67 161.612ZM121.91 161.019C127.131 155.193 133.368 149.512 136.828 146.027L121.91 161.019ZM179.382 104.387C183.753 102.158 185.749 97.7364 187.831 95.3893L179.382 104.387ZM180.015 104.213C183.318 102.055 185.582 98.5008 188.288 95.7449L180.015 104.213ZM246.059 39.5215C248.354 38.2623 252.702 35.8864 255.391 31.9285L246.059 39.5215ZM246.669 39.9152C249.308 37.5084 252.162 34.8594 255.13 31.5138L246.669 39.9152ZM48.7741 235.337C50.6475 232.788 53.4803 230.775 58.5467 224.782L48.7741 235.337ZM47.8708 234.921C52.5666 230.932 56.8213 226.925 59.1092 224.33L47.8708 234.921ZM69.4625 214.05C71.5835 213.28 72.5814 210.781 75.927 207.023L69.4625 214.05ZM69.3314 214.674C71.0325 213.644 71.9926 211.711 76.557 207.584L69.3314 214.674ZM91.7678 193.46C94.7222 191.253 97.5016 186.752 101.633 182.913L91.7678 193.46ZM91.3886 193.282C94.8557 189.824 97.0971 187.357 102.681 182.726L91.3886 193.282ZM105.81 179.489C107.951 176.371 109.526 175.488 116.793 168.103L105.81 179.489ZM106.117 179.127C108.42 176.311 111.879 173.431 117.094 168.529L106.117 179.127ZM121.567 163.909C126.301 160.119 129.957 155.643 136.022 151.497L121.567 163.909ZM121.536 163.929C126.21 159.884 131.301 154.782 135.203 151.039L121.536 163.929ZM180.446 107.157C184.29 102.475 188.06 99.6981 189.854 99.1083L180.446 107.157ZM181.318 106.235C182.908 104.639 185.38 102.928 189.08 98.6902L181.318 106.235ZM234.3 54.5744C236.778 53.5287 236.903 52.2127 241.689 46.9695L234.3 54.5744ZM234.424 55.1032C237.417 52.8817 240.086 50.3647 241.464 48.0712L234.424 55.1032ZM248.596 39.9782C250.567 38.7628 252.745 38.0069 255.934 33.8711L248.596 39.9782ZM249.301 40.7371C251.647 38.8943 253.711 36.7114 256.352 33.2051L249.301 40.7371ZM51.3192 233.857C54.2066 231.244 59.2857 228.396 62.6456 225.183L51.3192 233.857ZM51.2552 234.823C55.5286 230.826 59.3125 227.066 62.2893 224.3L51.2552 234.823ZM70.4132 216.248C72.9419 214.332 74.2732 212.729 78.328 208.38L70.4132 216.248ZM71.2917 215.498C72.8038 214.06 75.2867 212.164 77.537 209.214L71.2917 215.498ZM91.0333 195.324C93.7934 193.179 97.4666 190.368 101.955 185.689L91.0333 195.324ZM91.6048 195.849C93.8927 193.805 95.7249 191.402 102.927 185.194L91.6048 195.849ZM108.443 180.415C119.546 169.363 128.951 159.602 134.186 155.266L108.443 180.415ZM108.765 179.483C116.575 172.213 124.32 164.863 134.108 154.909L108.765 179.483ZM183.879 108.39C185.332 105.878 188.494 102.441 190.194 100.307L183.879 108.39ZM182.547 107.728C185.472 105.371 188.25 101.803 190.298 101.03L182.547 107.728ZM236.774 56.4859C238.887 53.6785 239.506 52.3661 243.36 48.7709L236.774 56.4859ZM235.851 56.2981C237.847 54.8708 239.596 52.855 243.907 49.4333L235.851 56.2981ZM251.326 41.2539C254.397 40.1606 256.329 35.6526 258.132 35.0548L251.326 41.2539ZM250.743 42.0066C254.198 39.4994 256.65 37.204 258.884 34.6955L250.743 42.0066ZM53.9698 235.718C56.4485 232.899 59.1152 231.134 64.7178 223.821L53.9698 235.718ZM54.1759 234.207C57.1809 232.229 59.3425 230.573 64.9481 224.055L54.1759 234.207ZM72.7027 217.309C74.449 215.428 76.0308 215.435 79.8777 210.285L72.7027 217.309ZM72.2381 217.948C74.0284 215.577 76.4522 213.395 80.2045 210.771L72.2381 217.948ZM91.7863 198.438C95.0765 194.897 100.497 190.609 101.66 188.056L91.7863 198.438ZM91.8054 199.236C95.0133 195.897 98.1253 192.568 102.094 188.876L91.8054 199.236ZM112.257 178.327C117.491 173.969 125.125 167.381 131.679 161.206L112.257 178.327ZM112.162 178.98C118.241 173.32 123.863 168.248 130.999 161.65L112.162 178.98ZM184.079 109.738C184.189 109.642 184.246 109.545 184.444 109.337L184.079 109.738ZM184.089 109.715C184.137 109.638 184.213 109.585 184.423 109.351L184.089 109.715ZM237.227 56.9785C240.574 56.5442 241.984 55.2572 245.297 50.7666L237.227 56.9785ZM238.12 57.5164C239.96 55.697 241.493 54.7738 245.881 50.624L238.12 57.5164ZM253.171 44.344C254.861 41.1388 258.224 39.2261 259.261 36.0042L253.171 44.344ZM252.814 43.1068C254.591 42.0998 256.47 39.9641 259.623 36.1548L252.814 43.1068ZM58.8067 235.16C61.0902 230.797 65.7336 226.018 69.0129 223.947L58.8067 235.16ZM58.2756 234.535C60.404 231.733 63.5985 229.026 68.8243 224.098L58.2756 234.535ZM74.3963 218.615C75.168 217.821 77.3767 215.707 81.3777 212.275L74.3963 218.615ZM73.462 219.875C75.4138 217.891 76.3886 216.659 81.3712 212.656L73.462 219.875ZM90.6169 201.711C94.8736 198.121 100.311 194.816 102.359 191.576L90.6169 201.711ZM91.7911 202.663C94.9384 198.715 98.1201 195.227 102.123 191.213L91.7911 202.663ZM115.333 179.715C119.128 174.653 124.826 170.776 129.538 163.884L115.333 179.715ZM114.959 179.272C119.974 174.432 125.639 168.985 130.179 164.864L114.959 179.272ZM240.804 58.4674C242.406 57.3721 242.948 55.5628 247.408 50.6324L240.804 58.4674ZM240.143 58.9503C243.262 55.6429 245.878 53.4204 247.728 51.4894L240.143 58.9503ZM253.065 45.7797C256.57 43.4783 258.646 40.9509 261.61 37.453L253.065 45.7797ZM253.39 45.5683C255.475 44.0966 256.536 42.2629 261.528 37.9826L253.39 45.5683ZM59.9948 234.36C64.7057 230.967 69.909 226.668 70.9455 223.503L59.9948 234.36ZM61.0167 234.431C63.5714 231.745 66.4366 228.977 72.0704 224.56L61.0167 234.431ZM74.4152 221.799C76.0894 218.652 78.1638 217.013 82.2889 214.514L74.4152 221.799ZM73.8613 222.044C75.625 220.017 77.5987 218.249 82.0545 213.805L73.8613 222.044ZM91.6568 206.075C95.6521 200.453 99.5772 196.743 101.593 195.321L91.6568 206.075ZM91.0425 205.023C95.7435 201.667 99.4716 197.92 102.192 194.898L91.0425 205.023ZM118.901 177.294C120.958 175.694 123.91 173.655 129.195 167.66L118.901 177.294ZM119.579 178.142C122.971 174.953 127.501 170.817 129.647 168.27L119.579 178.142ZM241.513 60.1468C244.585 58.6178 246.753 54.5951 249.91 52.2501L241.513 60.1468ZM241.977 60.2472C243.366 58.5622 245.021 57.4511 249.001 53.4543L241.977 60.2472ZM254.413 47.8762C256.03 44.7105 258.511 44.5557 263.072 39.1362L254.413 47.8762ZM254.765 46.8774C257.108 44.7851 260.279 42.0711 262.654 40.1353L254.765 46.8774ZM63.7034 233.884C68.107 230.947 73.617 226.136 74.339 224.761L63.7034 233.884ZM63.9557 234.289C66.7705 231.427 70.5691 228.458 74.9261 224.815L63.9557 234.289ZM75.1842 223.702C77.4087 221.191 79.6632 219.143 82.5479 216.137L75.1842 223.702ZM74.7278 224.094C77.6279 220.915 81.1744 218.746 83.6765 216.555L74.7278 224.094ZM92.2532 207.094C93.9906 205.698 97.7738 203.075 102.912 196.896L92.2532 207.094ZM92.0207 207.702C96.1412 204.771 99.7582 200.921 102.979 197.204L92.0207 207.702ZM119.48 180.962C120.273 180.475 121.367 179.603 121.598 179.153L119.48 180.962ZM119.627 181.189C120.173 180.498 120.63 180.208 121.47 179.249L119.627 181.189ZM243.835 61.9878C249.17 56.7504 253.862 52.0054 264.595 42.4288L243.835 61.9878ZM243.371 61.976C251.621 54.3064 259.194 46.0155 263.484 42.2202L243.371 61.976ZM67.433 234.946C74.0085 228.147 78.8293 223.045 83.6213 218.352L67.433 234.946ZM67.2162 234.571C72.3658 229.534 78.6039 224.045 84.2611 218.517L67.2162 234.571ZM92.704 210.114C95.11 207.239 98.2354 205.809 101.267 200.726L92.704 210.114ZM245.525 63.2546C250.801 57.671 256.63 50.7758 263.566 45.2651L245.525 63.2546ZM244.735 62.9716C251.945 56.9714 258.022 49.5306 263.895 44.2692L244.735 62.9716ZM69.4873 234.453C75.0597 229.358 79.8126 225.204 85.0718 221.319L69.4873 234.453ZM69.9762 234.454C75.5619 229.303 81.3276 225.096 84.8899 220.64L69.9762 234.454ZM245.238 65.6601C252.57 58.0798 258.716 51.0792 264.015 46.7708L245.238 65.6601ZM246.415 65.1C252.1 58.5952 258.922 52.6502 264.866 47.8854L246.415 65.1ZM74.5348 233.923C75.9143 232.37 78.352 228.913 86.314 223.396L74.5348 233.923ZM73.8963 235.012C77.4307 231.58 80.5472 228.37 85.5421 222.559L73.8963 235.012ZM173.221 139.299C176.481 136.308 180.767 132.359 182.75 129.4L173.221 139.299ZM173.622 138.14C175.272 136.574 176.57 134.829 182.2 130.572L173.622 138.14ZM194.195 117.749C196.28 117.417 198.473 114.667 201.734 110.727L194.195 117.749ZM262.389 52.7231C262.361 52.1132 262.899 51.8223 263.775 51.0314L262.389 52.7231ZM262.177 52.5256C262.74 52.0392 263.239 51.672 263.748 51.1535L262.177 52.5256ZM76.9021 235.468C79.8188 232.625 82.3866 229.825 86.5706 226.356L76.9021 235.468ZM76.6671 234.857C80.0745 231.657 83.5238 228.333 86.1895 225.334L76.6671 234.857ZM99.2367 212.874C102.524 208.988 104.804 206.958 108.058 204.201L99.2367 212.874ZM99.9173 212.24C101.83 210.301 104.452 208.16 107.922 204.609L99.9173 212.24ZM118.973 194.337C122.25 190.655 126.213 188.155 129.61 181.798L118.973 194.337ZM119.916 193.19C123.265 189.838 126.039 187.236 130.856 182.829L119.916 193.19ZM172.982 141.436C175.279 140.617 177.308 137.405 183.698 131.366L172.982 141.436ZM172.502 141.981C175.817 139.141 179.164 136.093 184.024 131.35L172.502 141.981ZM194.863 119.396C196.83 117.829 200.032 116.882 204.335 111.182L194.863 119.396ZM195.63 119.239C196.934 118.201 198.621 116.779 203.717 112.306L195.63 119.239ZM259.905 57.5181C260.491 57.2385 261.031 56.5648 262.158 55.6508L259.905 57.5181ZM259.952 57.7518C260.807 56.8322 261.609 56.0282 262.278 55.5829L259.952 57.7518ZM78.8706 234.053C81.6806 233.12 84.2241 229.809 90.3672 225.359L78.8706 234.053ZM79.5841 234.573C83.1641 231.601 87.2708 228.032 89.492 225.35L79.5841 234.573ZM101.82 213.086C105.458 210.522 107.519 207.903 111.205 206.026L101.82 213.086ZM102.149 213.222C105.297 209.981 108.644 207.077 110.398 205.162L102.149 213.222ZM118.673 195.99C124.149 193.254 126.712 188.663 131.247 186.744L118.673 195.99ZM119.056 196.776C123.563 192.741 127.945 189.06 130.771 185.273L119.056 196.776ZM173.344 145.7C175.654 143.761 177.164 140.198 185.004 133.642L173.344 145.7ZM172.558 144.868C175.759 141.721 179.367 138.361 183.907 134.325L172.558 144.868ZM196.533 122.159C200.648 117.63 203.763 114.805 206.075 112.818L196.533 122.159ZM197.141 121.582C200.624 117.623 203.568 114.819 205.484 112.748L197.141 121.582ZM83.0404 234.096C84.9715 232.905 87.5447 229.693 93.5951 224.686L83.0404 234.096ZM82.7647 234.987C86.1373 232.167 88.2373 229.493 92.5002 225.735L82.7647 234.987ZM103.807 213.41C106.28 211.076 109.665 209.691 113.025 207.574L103.807 213.41ZM104.163 213.963C107.052 211.582 110.877 207.815 112.216 206.913L104.163 213.963ZM119.405 200.377C122.38 197.178 125.104 193.647 129.715 188.863L119.405 200.377ZM119.668 199.816C123.518 194.901 128.084 191.432 131.155 189.108L119.668 199.816ZM172.439 148.614C175.365 144.897 178.083 141.922 183.547 138.013L172.439 148.614ZM172.065 149.117C176.056 145.108 179.868 141.042 183.716 137.418L172.065 149.117ZM199.392 122.46C202.688 119.674 205.297 116.182 206.845 114.804L199.392 122.46ZM199.289 122.258C202.646 118.991 205.425 115.91 207.904 114.63L199.289 122.258ZM255.517 68.3988C256.784 67.1885 257.695 66.3195 258.696 65.0617L255.517 68.3988ZM255.418 68.3008C256.129 67.6702 256.485 66.8541 258.489 64.9595L255.418 68.3008ZM87.0656 235.693C89.4593 231.41 94.7297 227.455 96.7514 224.961L87.0656 235.693ZM86.2797 235.064C90.1062 231.329 93.2236 227.959 96.2809 224.788L86.2797 235.064ZM105.748 215.008C108.697 213.039 111.219 210.183 113.948 209.257L105.748 215.008ZM106.426 215.691C108.441 212.678 110.54 211.229 113.658 207.738L106.426 215.691ZM120.571 201.508C121.425 198.826 124.422 197.311 130.655 192.458L120.571 201.508ZM119.478 202.374C122.598 199.482 124.892 196.731 130.824 192.102L119.478 202.374ZM172.147 151.663C176.689 146.859 178.817 143.862 183.651 139.948L172.147 151.663ZM172.819 150.584C175.633 148.123 178.667 146.043 183.831 140.094L172.819 150.584ZM200.634 124.193C203.523 120.673 205.646 119.471 210.317 115.68L200.634 124.193ZM201.552 123.21C204.571 120.62 206.389 118.094 210.33 114.731L201.552 123.21ZM253.642 73.0327C255.302 71.5825 258.362 69.5704 259.26 67.1627L253.642 73.0327ZM252.71 73.3142C255.318 71.9069 257.633 69.312 259.338 67.3251L252.71 73.3142ZM90.4058 234.914C91.5858 233.037 94.2931 229.744 100.137 226.14L90.4058 234.914ZM89.331 234.524C93.2631 231.2 96.472 227.374 98.6929 225.366L89.331 234.524ZM106.92 217.499C110.242 214.711 113.021 212.125 115.598 209.278L106.92 217.499ZM107.469 216.608C109.563 215.278 112.382 212.478 115.662 209.458L107.469 216.608ZM120.264 205.102C121.572 203.314 123.99 201.657 131.172 193.768L120.264 205.102ZM119.553 206.014C122.495 202.426 125.414 200.108 130.267 194.974L119.553 206.014ZM172.314 154.187C175.988 149.686 181.54 144.976 183.996 143.814L172.314 154.187ZM172.648 154.648C175.181 152.027 177.162 149.959 184.446 143.579L172.648 154.648ZM203.245 123.767C206.836 122.219 210.397 117.731 212.155 116.091L203.245 123.767ZM204.154 124.382C206.309 121.914 209.012 118.324 211.695 115.807L204.154 124.382ZM251.639 77.5941C253.999 75.5403 257.297 72.2587 261.29 68.8574L251.639 77.5941ZM252.501 77.6081C255.436 74.2638 258.694 70.7866 260.335 69.5371L252.501 77.6081ZM91.6847 234.078C95.0823 231.876 98.0933 229.71 101.333 225.448L91.6847 234.078ZM92.5731 234.635C94.1995 232.883 96.596 230.982 102.147 225.701L92.5731 234.635ZM109.17 219.571C110.064 218.199 111.577 215.702 116.042 212.019L109.17 219.571ZM108.71 218.715C112.201 215.641 114.818 212.984 116.481 211.425L108.71 218.715ZM119.669 208.954C124.47 204.271 128.158 201.619 131.017 198.427L119.669 208.954ZM119.366 208.41C122.602 205.689 124.975 203.516 130.945 197.496L119.366 208.41ZM170.378 157.983C176.145 154.169 179.077 150.705 183.369 146.337L170.378 157.983ZM170.892 158.579C174.222 155.712 177.567 152.86 183.41 147.381L170.892 158.579ZM206.333 125.295C207.645 122.38 210.974 120.577 212.994 117.755L206.333 125.295ZM205.611 125.757C208.308 122.892 210.348 121.509 214.241 117.994L205.611 125.757ZM252.209 79.648C255.491 78.2679 257.997 75.815 260.948 72.2211L252.209 79.648ZM252.77 79.6162C255.384 77.2722 258.082 74.662 261.782 71.6735L252.77 79.6162ZM95.663 235.791C98.1996 231.064 100.975 228.821 105.583 224.381L95.663 235.791ZM95.5367 234.384C98.7171 231.605 101.976 228.43 105.3 224.704L95.5367 234.384ZM110.536 221.067C112.199 217.653 115.072 216.009 116.573 213.516L110.536 221.067ZM110.755 220.579C112.835 218.048 114.147 216.54 117.39 213.886L110.755 220.579ZM119.313 210.932C123.449 207.384 128.434 202.954 130.559 200.465L119.313 210.932ZM119.545 211.998C124.134 207.793 127.218 204.096 130.368 201.633L119.545 211.998ZM170.673 162.611C173.541 160.123 178.064 154.636 181.713 150.144L170.673 162.611ZM169.917 162.686C173.796 158.509 178.316 154.639 182.291 150.494L169.917 162.686ZM206.975 127.525C209.583 125.943 210.561 122.915 215.777 119.272L206.975 127.525ZM207.934 126.717C209.261 125.018 211.471 122.422 216.614 118.136L207.934 126.717ZM254.557 82.8651C256.633 78.9925 258.778 76.4103 263.024 74.993L254.557 82.8651ZM253.663 82.4978C257.005 79.3209 260.239 76.1014 261.797 73.5729L253.663 82.4978ZM99.8759 234.101C101.398 231.773 103.392 230.987 108.39 225.318L99.8759 234.101ZM98.4702 234.609C102.247 231.269 106.162 227.511 108.947 225.642L98.4702 234.609ZM110.259 221.796C112.162 220.206 114.811 219.003 118.646 215.737L110.259 221.796ZM110.938 222.685C112.782 221.378 115.389 219.335 118.85 215.887L110.938 222.685ZM119.404 214.097C123.631 212.143 125.96 206.698 130.557 205.141L119.404 214.097ZM119.468 214.222C124.06 210.283 127.411 207.012 130.504 204.499L119.468 214.222ZM167.729 166.709C171.823 164.326 174.573 161.815 182.825 154.473L167.729 166.709ZM168.298 167.264C171.922 164.072 175.015 161.096 182.076 153.844L168.298 167.264ZM210.586 128.47C213.461 124.665 216.907 120.722 217.593 118.975L210.586 128.47ZM209.775 127.224C212.763 125.434 214.807 122.403 217.867 119.109L209.775 127.224ZM256.166 89.0553C259.365 85.7912 260.079 78.8632 263 76.7706L256.166 89.0553ZM101.53 234.954C110.996 224.897 121.629 214.939 130.025 206.889L101.53 234.954ZM101.674 234.423C112.095 225.355 122.178 215.316 130.584 207.361L101.674 234.423ZM164.792 173.411C168.568 169.736 174.347 164.408 182.047 157.698L164.792 173.411ZM165.334 173.094C171.87 167.184 176.976 161.395 181.785 157.666L165.334 173.094ZM211.559 129.348C215.52 126.594 216.038 124.404 220.909 120.319L211.559 129.348ZM212.549 128.164C215.468 125.332 219.475 121.4 221.584 119.544L212.549 128.164ZM253.368 90.2089C257.331 85.1803 261.08 81.0294 263.66 79.1023L253.368 90.2089ZM252.251 89.4723C256.69 85.0012 260.705 81.4032 262.645 79.7564L252.251 89.4723ZM105.843 233.624C110.761 228.989 115.922 224.589 130.845 211.003L105.843 233.624ZM105.545 234.126C111.011 228.666 116.878 223.212 130.471 210.366L105.545 234.126ZM162.266 180.225C168.575 173.332 174.89 167.466 181.446 160.225L162.266 180.225ZM162.279 179.973C169.987 172.119 177.556 164.727 181.249 160.835L162.279 179.973ZM214.197 127.658C217.567 127.233 218.843 125.232 224.999 119.484L214.197 127.658ZM214.88 128.41C217.417 126.263 220.399 124.103 223.983 119.559L214.88 128.41ZM251.042 93.7835C254.323 89.706 258.267 87.8959 262.978 82.2416L251.042 93.7835ZM251.665 92.5432C254.636 90.6814 257.935 87.6563 262.49 82.2845L251.665 92.5432ZM108.508 234.015C112.012 229.652 117.504 226.214 129.703 213.184L108.508 234.015ZM108.085 234.188C115.78 227.605 123.929 219.745 129.912 214.027L108.085 234.188ZM159.268 185C165.799 179.993 172.491 173.167 180.021 165.922L159.268 185ZM159.591 186.022C164.264 181.336 168.278 176.669 180.444 165.539L159.591 186.022ZM218.1 129.708C222.582 123.478 229.188 119.27 230.936 114.727L218.1 129.708ZM217.854 129.488C221.365 126.02 224.167 122.859 231.87 115.391L217.854 129.488ZM237.096 110.366C237.323 110.102 237.493 109.962 237.786 109.711L237.096 110.366ZM251.323 97.5388C255.359 93.2698 260.137 88.6522 263.907 84.6366L251.323 97.5388ZM250.459 97.3849C253.196 94.4836 255.752 92.3263 262.838 85.0517L250.459 97.3849ZM110.392 234.975C114.632 231.269 117.343 229.585 121.918 224.258L110.392 234.975ZM111.71 235.221C115.015 231.028 119.078 227.67 122.181 224.041L111.71 235.221ZM123.106 223.528C125.056 222.079 127.773 218.704 130.56 216.743L123.106 223.528ZM122.868 224.218C124.735 222.446 126.416 220.465 130.769 216.441L122.868 224.218ZM159.48 189.1C165.009 182.968 173.12 175.309 179.287 170.251L159.48 189.1ZM159.164 189.326C163.713 184.303 169.506 178.947 178.513 170.416L159.164 189.326ZM219.841 130.23C231.358 118.231 243.529 106.061 262.49 89.1514L219.841 130.23ZM220.606 129.244C229.957 120.079 240.188 110.722 263.245 88.3101L220.606 129.244ZM115.292 234.619C116.058 232.271 119.923 230.352 122.913 227.075L115.292 234.619ZM114.817 234.523C117.226 232.083 120.37 229.7 123.038 227.36L114.817 234.523ZM122.869 226.962C125.646 222.716 127.894 220.881 132.45 219.224L122.869 226.962ZM123.33 226.412C125.671 223.968 128.409 221.08 131.314 218.892L123.33 226.412ZM148.473 202.043C158.767 192.01 168.619 183.766 177.505 174.389L148.473 202.043ZM148.252 202.479C159.761 191.743 170.683 180.681 176.445 174.864L148.252 202.479ZM218.395 133.943C230.881 121.979 242.591 110.277 264.041 91.824L218.395 133.943ZM218.733 134.774C233.496 120.035 249.401 105.443 263.594 91.4356L218.733 134.774ZM117.53 235.759C118.25 233.932 120.426 233.031 122.74 229.77L117.53 235.759ZM117.54 234.862C119.323 233.274 121.038 231.638 122.482 229.99L117.54 234.862ZM124.423 227.149C127.237 224.576 129.857 223.501 133.458 220.775L124.423 227.149ZM125.172 227.825C127.604 225.25 129.953 222.155 132.928 220.498L125.172 227.825ZM148.715 206.533C157.144 196.571 165.379 190.188 176.085 177.571L148.715 206.533ZM147.561 205.645C156.411 197.664 164.054 189.689 176.491 178.657L147.561 205.645ZM216.644 138.608C230.287 125.045 244.048 112.916 262.247 96.3925L216.644 138.608ZM216.963 138.489C230.846 125.953 244.609 111.891 262.492 95.8011L216.963 138.489ZM126.796 230.028C128.681 228.034 132.048 225.364 134.29 222.377L126.796 230.028ZM126.083 229.537C129.214 227.008 132.118 223.295 133.833 221.878L126.083 229.537ZM149.154 208.131C153.096 203.009 159.232 198.078 172.497 185.241L149.154 208.131ZM148.532 208.837C157.964 199.441 166.382 190.712 171.49 185.648L148.532 208.837ZM216.028 143.545C218.82 140.442 224.37 135.647 232.16 127.128L216.028 143.545ZM215.578 143.906C219.398 140.113 223.284 135.525 233.62 126.637L215.578 143.906ZM232.838 126.037C242.82 118.14 252.449 109.361 259.447 101.562L232.838 126.037ZM233.08 126.051C242.226 116.697 252.278 107.976 259.665 100.41L233.08 126.051ZM128.522 231.65C130.743 228.058 133.65 225.266 135.364 223.121L128.522 231.65ZM127.842 230.505C130.567 227.711 133.956 225.304 136.088 223.633L127.842 230.505ZM149.154 209.93C153.884 205.494 159.491 199.435 166.549 194.822L149.154 209.93ZM149.446 209.913C153.676 205.549 158.461 201.804 166.013 193.346L149.446 209.913ZM213.852 146.386C219.231 141.872 224.156 137.544 232.577 131.493L213.852 146.386ZM214.653 147.795C220.526 141.644 226.892 135.275 232.11 130.443L214.653 147.795ZM241.804 121.014C245.718 117.458 247.923 114.338 256.166 106.914L241.804 121.014ZM242.221 120.182C245.989 117.127 249.87 113.953 255.519 107.809L242.221 120.182ZM130.265 230.94C133.116 228.892 134.094 228.212 137.278 224.275L130.265 230.94ZM130.254 231.475C133.513 229.226 136.028 225.549 138.296 223.791L130.254 231.475ZM151.785 211.636C154.027 209.498 155.823 207.146 161.598 202.237L151.785 211.636ZM151.538 211.098C154.429 209.045 156.288 206.001 160.983 202.557L151.538 211.098ZM212.376 153.608C216.317 147.408 221.139 144.027 230.178 135.894L212.376 153.608ZM212.451 152.526C219.066 146.068 225.542 139.877 230.469 135.503L212.451 152.526ZM131.43 232.772C136.149 229.179 137.745 226.802 142.173 224.562L131.43 232.772ZM131.871 232.907C134.526 231.361 136.187 229.352 140.818 224.735L131.871 232.907ZM154.838 211.039C158.032 208.651 162.036 205.745 161.937 202.866L154.838 211.039ZM154.493 211.196C156.884 209.266 158.772 207.115 162.367 203.338L154.493 211.196ZM208.869 159.214C214.687 152.219 220.547 147.542 229.364 139.144L208.869 159.214ZM209.596 158.209C215.91 152.247 223.249 145.639 228.568 139.614L209.596 158.209ZM135.284 233.429C138.78 229.812 141.245 225.743 144.359 223.998L135.284 233.429ZM135.058 234.048C136.801 231.648 139.255 228.657 144.912 224.053L135.058 234.048ZM157.006 212.067C160.53 209.359 163.128 207.387 164.475 205.685L157.006 212.067ZM157.269 211.723C158.676 209.737 161.434 208.73 164.914 204.257L157.269 211.723ZM206.594 164.963C211.628 159.41 218.662 153.181 226.605 145.194L206.594 164.963ZM206.331 164.539C212.267 158.798 217.866 153.877 226.241 145.524L206.331 164.539ZM136.965 233.908C138.502 232.663 141.65 229.307 147.813 224.172L136.965 233.908ZM136.698 234.172C141.21 231.09 144.721 227.445 147.914 223.713L136.698 234.172ZM158.702 212.397C161.686 211.292 163.008 209.535 167.531 205.674L158.702 212.397ZM159.513 213.515C161.513 210.74 163.089 208.918 166.393 205.867L159.513 213.515ZM203.079 170.423C209.654 163.26 217.969 157.574 224.01 150.751L203.079 170.423ZM202.803 170.685C210.762 163.118 219.117 154.523 223.161 150.915L202.803 170.685ZM137.847 236.583C144.401 231.869 147.748 226.481 150.214 223.975L137.847 236.583ZM138.8 235.714C142.618 231.627 146.891 227.427 151.083 224.395L138.8 235.714ZM161.112 213.912C164.011 212.982 165.484 209.792 168.695 206.941L161.112 213.912ZM160.767 214.476C162.534 212.392 164.818 210.455 167.629 207.056L160.767 214.476ZM197.484 179.811C205.453 170.93 213.782 162.708 220.785 157.158L197.484 179.811ZM197.22 179.477C204.369 172.863 210.552 165.929 221.328 156.526L197.22 179.477ZM141.517 235.945C143.632 233.038 146.219 230.84 153.981 223.349L141.517 235.945ZM141.678 236.302C146.322 231.407 149.929 228.267 154.305 223.725L141.678 236.302ZM162.536 215.116C166.168 212.451 168.198 211.163 169.441 208.599L162.536 215.116ZM162.49 215.557C164.371 214.377 165.512 212.88 169.361 209.128L162.49 215.557ZM190.043 190.002C199.585 179.799 210.521 169.164 218.443 161.387L190.043 190.002ZM189.355 190.158C198.536 181.677 207.38 173.008 219.23 161.839L189.355 190.158ZM146.132 235.905C149.461 231.38 154.114 225.979 156.821 224.821L146.132 235.905ZM144.672 236.124C148.733 231.985 152.614 228.343 156.718 223.761L144.672 236.124ZM164.432 217.801C165.309 215.811 168.699 213.971 171.589 211.08L164.432 217.801ZM164.207 217.835C166.249 215.646 168.011 213.208 171.422 210.776L164.207 217.835ZM182.901 200.198C194.155 187.874 207.488 175.951 218.891 166.003L182.901 200.198ZM181.923 199.567C195 187.619 208.556 174.287 217.824 165.389L181.923 199.567ZM148.786 235.182C151.796 232.563 155.152 228.172 160.625 224.659L148.786 235.182ZM148.103 236.113C152.342 231.606 157.399 226.87 160.104 224.873L148.103 236.113ZM165.798 218.454C167.841 217.048 171.38 215.092 173.421 212.798L165.798 218.454ZM164.986 219.299C166.965 217.752 169.111 215.489 173.169 212.466L164.986 219.299ZM180.863 205.131C192.604 194.312 205.186 181.495 214.404 172.046L180.863 205.131ZM179.912 204.752C189.868 195.496 199.935 185.121 213.932 171.958L179.912 204.752ZM150.274 236.203C154.622 232.832 156.6 229.749 163.709 223.922L150.274 236.203ZM150.771 235.981C155.208 231.734 160.36 227.458 163.909 224.644L150.771 235.981ZM165.77 222.008C168.249 219.782 170.618 216.392 174.29 213.44L165.77 222.008ZM166.176 221.481C167.545 219.511 169.143 218.356 173.921 213.644L166.176 221.481ZM181.014 207.705C187.474 200.844 196.775 191.506 211.238 178.747L181.014 207.705ZM179.759 207.738C191.347 197.185 202.929 185.71 210.696 178.676L179.759 207.738ZM154.266 236.161C159.102 232.41 160.89 228.159 166.296 223.427L154.266 236.161ZM154.836 235.361C159.239 231.006 163.447 227.335 166.832 224.136L154.836 235.361ZM166.164 224.544C169.425 222.777 170.093 219.77 175.676 216.267L166.164 224.544ZM166.58 224.002C169.343 221.239 172.516 218.12 174.532 215.86L166.58 224.002ZM180.639 208.647C189.992 202.284 198.283 192.903 208.286 185.355L180.639 208.647ZM181.289 209.487C187.881 203.669 195.012 196.723 207.123 184.301L181.289 209.487ZM156.871 236.375C162.596 232.076 167.2 227.313 175.466 217.546L156.871 236.375ZM158.033 235.908C164.973 228.58 172.246 222.265 176.258 218.358L158.033 235.908ZM183.902 211.233C188.467 205.352 192.333 202.151 201.722 194.434L183.902 211.233ZM183.007 211.65C187.206 207.843 190.662 203.728 201.161 194.05L183.007 211.65ZM160.453 236.592C163.447 233.193 167.015 229.181 176.444 219.868L160.453 236.592ZM161.423 236.222C165.088 232.443 168.244 227.861 176.918 220.175L161.423 236.222ZM185.29 210.884C187.809 208.776 191.273 205.986 195.281 202.094L185.29 210.884ZM185.54 212.175C188.61 209.506 190.678 206.742 194.808 202.99L185.54 212.175ZM163.845 235.757C169.586 231.301 173.553 227.468 176.957 222.779L163.845 235.757ZM163.652 235.637C168.368 232.279 171.721 228.323 177.659 223.082L163.652 235.637ZM187.568 211.628C192.497 209.679 195.423 207.208 196.266 204.709L187.568 211.628ZM188.305 211.867C191.426 209.248 194.785 205.598 196.198 204.802L188.305 211.867ZM167.659 236.341C171.354 230.856 175.15 227.928 177.474 225.875L167.659 236.341ZM166.586 236.086C170.786 231.896 174.148 229.014 178.406 225.375L166.586 236.086ZM191.642 212.169C194.247 210.666 194.862 207.61 197.873 204.844L191.642 212.169ZM191.026 212.494C192.784 211.561 194.138 209.614 198.561 205.802L191.026 212.494ZM171.117 234.894C173.959 233.87 176.697 230.37 181.725 224.517L171.117 234.894ZM169.963 235.293C172.414 233.616 175.621 231.204 181.632 224.902L169.963 235.293ZM192.17 213.735C194.603 211.253 196.798 208.409 200.088 207.411L192.17 213.735ZM192.182 214.298C194.16 212.272 195.503 211.143 200.149 206.88L192.182 214.298ZM173.343 235.049C177.759 232.208 181.459 229.548 183.506 224.679L173.343 235.049ZM173.479 235.908C176.973 231.844 181.021 228.535 184.796 225.482L173.479 235.908ZM194.564 215.998C196.081 214.301 197.837 213.253 201.086 208.48L194.564 215.998ZM194.999 214.98C197.042 213.17 198.358 211.764 201.53 208.254L194.999 214.98ZM176.342 235.09C180.844 231.422 186.257 227.339 186.851 224.962L176.342 235.09ZM176.173 236.483C179.776 232.241 183.476 229.117 187.765 225.324L176.173 236.483ZM195.499 216.902C198.967 213.596 202.794 210.475 202.81 210.5L195.499 216.902ZM195.953 217.322C198.954 214.659 200.806 212.148 203.63 209.49L195.953 217.322ZM179.352 236.471C183.872 232.488 187.243 227.589 190.345 224.145L179.352 236.471ZM179.236 235.456C183.063 232.645 186.476 228.888 191.007 225.602L179.236 235.456ZM196.841 219.344C199.087 216.44 200.119 215.283 204.098 210.889L196.841 219.344ZM197.784 218.793C200.105 216.343 203.059 212.987 205.252 211.302L197.784 218.793ZM183.704 236.08C186.007 231.643 189.93 228.631 193.505 224.489L183.704 236.08ZM182.984 236.475C185.413 233.038 188.438 230.549 193.986 224.828L182.984 236.475ZM199.363 219.818C200.338 217.928 203.912 214.858 205.49 213.475L199.363 219.818ZM198.498 220.881C200.693 218.791 203.491 216.767 205.91 213.896L198.498 220.881ZM185.75 236.264C189.977 232.288 192.923 228.863 197.98 225.152L185.75 236.264ZM186.59 235.601C189.759 232.296 194.373 228.562 197.059 225.547L186.59 235.601ZM200.714 222.257C202.024 219.626 205.628 216.741 208.293 216.211L200.714 222.257ZM199.845 222.149C201.843 221.594 202.933 219.275 207.764 215.835L199.845 222.149ZM189.264 235.355C192.656 232.036 198.541 228.286 208.2 216.769L189.264 235.355ZM188.678 236.447C195.178 230.281 200.504 224.714 208.238 217.252L188.678 236.447ZM192.328 235.785C197.67 231.842 202.823 227.23 208.343 219.918L192.328 235.785ZM192.006 236.485C197.349 231.572 202.401 225.92 209.675 219.758L192.006 236.485ZM195.512 236.871C201.053 229.98 205.557 225.876 209.592 222.302L195.512 236.871ZM195.497 235.567C201.114 231.325 205.581 225.512 209.596 222.331L195.497 235.567ZM199.371 236.286C201.33 232.994 204.669 229.835 209.456 224.42L199.371 236.286ZM198.54 236.411C200.583 233.903 204.002 231.04 210.383 224.445L198.54 236.411ZM201.989 237.053C204.964 233.807 206.731 231.827 211.607 226.933L201.989 237.053ZM201.223 235.695C205.036 232.612 208.356 229.869 211.665 226.099L201.223 235.695ZM206.674 234.601C207.334 232.792 210.319 230.937 211.142 229.703L206.674 234.601Z" stroke="#333333" stroke-width="2"/>
<path d="M111.799 51.2885C113.334 49.6439 114.516 48.4392 116.633 45.8694M106.487 46.3195C107.88 45.0121 108.849 43.6986 111.185 40.6343L106.487 46.3195ZM105.834 45.3831C107.936 43.9002 109.22 42.8941 111.06 40.7842L105.834 45.3831ZM107.146 47.2657C108.162 45.0515 111.773 43.4118 111.89 41.373L107.146 47.2657ZM106.151 47.3611C108.545 45.7779 110.204 43.5639 112.364 41.3219L106.151 47.3611ZM107.723 49.3552C109.842 47.4628 112.95 44.7736 114.864 42.9437L107.723 49.3552ZM107.552 48.8185C109.664 46.7329 113.025 43.9583 114.189 42.4419L107.552 48.8185ZM108.299 49.2225C111.311 47.8193 113.548 45.1939 115.793 43.0023L108.299 49.2225ZM108.684 50.3649C110.272 48.5738 112.004 46.5382 115.542 42.4509L108.684 50.3649ZM109.657 50.3759C111.293 49.2181 112.516 48.2426 115.947 44.7292L109.657 50.3759ZM110.417 50.5182C111.977 48.3315 114.172 46.4649 116.051 45.0001L110.417 50.5182ZM112.536 51.4852C113.693 50.0532 115.399 47.3208 116.548 46.7876L112.536 51.4852Z" stroke="#6B6B6B" stroke-width="2.66396"/>
<path d="M111.117 50.8452V50.8452M111.117 50.8452C112.142 51.5011 114.181 49.8802 115.354 49.6884L111.117 50.8452ZM114.762 49.3344C116.234 49.3894 115.801 46.4154 116.777 45.2973L114.762 49.3344ZM116.273 45.6889C116.6 45.0355 115.67 42.6407 114.611 42.8424L116.273 45.6889ZM114.762 42.0383C114.314 41.4869 111.533 39.9532 111.668 41.1359L114.762 42.0383ZM111.117 40.5327C109.855 40.1719 108.158 40.2591 107.145 42.7211L111.117 40.5327ZM107.472 42.0383C106.509 42.5228 106.685 45.2042 106.045 45.3389L107.472 42.0383ZM105.961 45.6889C105.474 46.0861 105.819 47.7751 108.387 49.1428L105.961 45.6889ZM107.472 49.3344C108.943 50.0978 110.544 50.9125 111.623 50.0844L107.472 49.3344Z" stroke="#6B6B6B"/>
</g>
<defs>
<clipPath id="clip0">
<rect width="264" height="264" fill="white"/>
</clipPath>
</defs>
</svg>
