<?xml version="1.0" encoding="iso-8859-1"?>
<!-- Generator: Adobe Illustrator 19.0.0, SVG Export Plug-In . SVG Version: 6.00 Build 0)  -->
<svg version="1.1" id="Capa_1" xmlns="http://www.w3.org/2000/svg" xmlns:xlink="http://www.w3.org/1999/xlink" x="0px" y="0px"
	 viewBox="0 0 472.008 472.008" style="enable-background:new 0 0 472.008 472.008;" xml:space="preserve">
<path style="fill:#FFCB57;" d="M184.008,304.004h26.736c28.976,0,56.768-11.512,77.256-32l0,0c20.488-20.488,32-48.28,32-77.256
	v-18.744h-32v14.056c0,21.736-8.632,42.576-24,57.944l0,0c-15.368,15.368-36.208,24-57.944,24h-22.048V304.004z"/>
<g>
	<path style="fill:#3F3A34;" d="M168,336.004v-16H40c-13.232,0-24-10.768-24-24s10.768-24,24-24h87.096
		c12.136,0,22.696-8.592,24.576-19.992c1.16-7.024-0.8-14.136-5.368-19.52c-4.576-5.392-11.248-8.488-18.304-8.488H24
		c-4.408,0-8-3.592-8-8v-48c0-13.232,10.768-24,24-24s24,10.768,24,24v8h16v-8c0-2.736-0.28-5.416-0.808-8H96v16h16v-16h16v16h16
		v-16h16v-16H71.792c-7.312-9.656-18.784-16-31.792-16c-22.056,0-40,17.944-40,40v48c0,13.232,10.768,24,24,24h104
		c2.344,0,4.576,1.032,6.104,2.84c1.544,1.824,2.176,4.152,1.776,6.568c-0.608,3.696-4.464,6.592-8.784,6.592H40
		c-22.056,0-40,17.944-40,40s17.944,40,40,40H168z"/>
	<path style="fill:#3F3A34;" d="M128,192.004H32v16h96c22.056,0,40,17.944,40,40s-17.944,40-40,40H32v16h96
		c18.984,0,35.76-9.512,45.888-24h18.256l5.2,16H184v33.368c0,16.728,6.512,32.456,18.344,44.288s27.552,18.344,44.288,18.344
		h44.672l-20.672-20.688c-6.424-6.424-10.888-14.296-13.08-22.872l13.336,5.336c10.336,4.128,21.224,6.224,32.344,6.224
		c23.264,0,45.136-9.056,61.592-25.512l22.488-22.488H368c-13.032,0-25.512-3.576-36.336-10.264
		c15.256-3.584,29.256-11.344,40.616-22.704l31.032-31.032H328v16h36.688l-3.712,3.712c-13.088,13.088-30.472,20.288-48.976,20.288
		h-19.352l15.072,15.024c11.848,11.848,26.584,19.784,42.608,23.152c-13.008,11.528-29.568,17.824-47.096,17.824
		c-9.08,0-17.968-1.712-26.408-5.08l-36.832-14.736v11.816c0,14.648,4.744,28.568,13.504,40h-6.872
		c-12.456,0-24.168-4.848-32.976-13.656c-8.808-8.808-13.656-20.52-13.656-32.976v-17.368h10.744
		c31.32,0,60.768-12.192,82.912-34.344c22.152-22.144,34.344-51.584,34.344-82.912v-18.744h-16v16h-16.096
		c0.016-0.648,0.096-1.288,0.096-1.944v-14.056h-16v14.056c0,19.752-7.688,38.32-21.656,52.288
		c-13.968,13.968-32.52,21.656-52.272,21.656H181.64c1.52-5.072,2.36-10.44,2.36-16C184,217.124,158.88,192.004,128,192.004z
		 M273.072,274.46c-6.312,4.952-13.136,9.072-20.336,12.36l-10.496-14.448c5.496-2.416,10.744-5.408,15.688-8.92L273.072,274.46z
		 M237.056,292.46c-7.416,1.984-15.096,3.12-22.936,3.376l-5.192-15.976c5.912-0.184,11.712-0.928,17.36-2.224L237.056,292.46z
		 M285.04,263.372l-14.584-10.592c4.224-4.336,7.96-9.024,11.184-14l17.312,5.624C295.112,251.188,290.448,257.532,285.04,263.372z
		 M311.04,208.004c-0.976,7.488-2.776,14.768-5.352,21.76l-16.456-5.344c2.184-5.28,3.848-10.776,4.984-16.416H311.04z"/>
	<path style="fill:#3F3A34;" d="M413.04,215.9c15.36-0.888,29.72-7.336,41.096-18.72c11.536-11.528,17.88-26.864,17.872-43.176
		l-0.016-18h-54.736c-8.992,0-17.44-3.504-23.8-9.856c-3.128-3.128-6.52-5.896-10.064-8.392c14.288-2.664,28.112-7.68,40.8-14.928
		c19.624-11.208,31.816-32.216,31.816-54.824V36.908l-86.904,28.968c-12.208,4.064-24.92,6.128-37.784,6.128
		c-1.832,0-3.32-1.488-3.32-3.312c0-0.872,0.352-1.728,0.976-2.344l42.336-42.344H352c-42.088,0-81.648,16.008-112,44.96v-32.28
		l-13.656,13.664c-13.968,13.968-32.528,21.656-52.28,21.656H163.32c-9.432,0-18.296,3.672-24.976,10.344
		C131.672,89.012,128,97.884,128,107.316v20.688h16v-20.688c0-5.08,2.064-10.064,5.656-13.656c3.656-3.648,8.504-5.656,13.664-5.656
		h10.744c18.048,0,35.28-5.28,49.936-15.104v31.104h16V91.316l8.4-8.4c22.712-22.712,51.576-37.056,82.832-41.464l-13.576,13.584
		c-3.6,3.6-5.664,8.576-5.664,13.656c0,10.648,8.664,19.312,19.32,19.312c14.6,0,29.008-2.336,42.84-6.952l64.392-21.464
		c-3.112,12.24-11.08,22.936-22.296,29.344c-17.248,9.864-36.88,15.072-56.744,15.072H344v0.192c-1.336-0.064-2.656-0.192-4-0.192
		c-19.6,0-38.016,7.456-52.128,20.944c-10.2-8.384-22.872-12.944-36.256-12.944c-8.832,0-17.68,2.088-25.576,6.04l-5.616,2.808
		l7.152,14.312l5.616-2.808c5.688-2.848,12.056-4.352,18.424-4.352c11.008,0,21.36,4.288,29.144,12.072l3.928,3.928l-3.928,3.928
		c-7.784,7.784-18.128,12.072-29.144,12.072c-6.368,0-12.736-1.504-18.432-4.352l-5.616-2.808l-7.152,14.312l5.608,2.808
		c7.912,3.952,16.76,6.04,25.592,6.04c15.288,0,29.656-5.952,40.456-16.76l15.24-15.24l-7.928-7.928
		c11.072-10.344,25.384-16.072,40.616-16.072c15.92,0,30.888,6.2,42.144,17.464c9.384,9.368,21.856,14.536,35.112,14.536h38.752
		v2.008c0.008,12.032-4.672,23.344-13.584,32.256c-8.856,8.856-20.592,13.736-33.056,13.736h-0.008h-36.68l17.392,17.368
		c17.624,17.624,40.432,28.184,64.992,30.256c-1.344,5.264-4.08,10.096-8.024,14.04l-1.36,1.36
		c-5.808,5.792-13.504,8.976-21.68,8.976h-32v8c0,29.52,22.96,53.784,51.968,55.856c-8.608,17.176-23.656,30.272-42.056,36.408
		c-7.432,2.48-15.176,3.736-23.024,3.736h-62.2l45.032,45.032c-19.656,7.28-40.24,10.968-61.264,10.968
		c-47.168,0-91.512-18.368-124.856-51.72l-5-5c-1.688-7.616-2.592-15.416-2.592-23.28h-16c0,22.168,5.976,43.944,17.28,63.008
		c-23.232-3.152-44.696-13.744-61.56-30.608l-27.72-27.712v53.52l-9.304-5.32C51.76,394.084,40,373.812,40,352.004H24
		c0,27.536,14.848,53.128,38.76,66.792l33.24,19v-42.48l0.408,0.408c23.392,23.392,54.496,36.28,87.592,36.28h14.128l-13.752-22.92
		c33.256,25.232,73.608,38.92,116.08,38.92c24.608,0,48.672-4.64,71.512-13.776l18.264-7.304l-34.92-34.92h23.576
		c9.576,0,19.024-1.536,28.08-4.56c24.832-8.28,44.656-26.968,54.384-51.272l6.464-16.168H448c-19.32,0-35.48-13.768-39.192-32H424
		c12.456,0,24.16-4.848,32.984-13.664l1.36-1.36c8.808-8.808,13.656-20.512,13.656-32.976v-8h-8
		C445.496,232.004,427.848,226.364,413.04,215.9z"/>
</g>
<path style="fill:#E56565;" d="M184,176.004c-17.648,0-32-14.352-32-32s14.352-32,32-32c17.648,0,32,14.352,32,32
	S201.648,176.004,184,176.004z M184,128.004c-8.824,0-16,7.176-16,16s7.176,16,16,16s16-7.176,16-16S192.824,128.004,184,128.004z"
	/>
<g>
</g>
<g>
</g>
<g>
</g>
<g>
</g>
<g>
</g>
<g>
</g>
<g>
</g>
<g>
</g>
<g>
</g>
<g>
</g>
<g>
</g>
<g>
</g>
<g>
</g>
<g>
</g>
<g>
</g>
</svg>
